<ttFont>
<head>
    <!-- Most of this table will be recalculated by the compiler -->
    <tableVersion value="1.0"/>
    <fontRevision value="2.10999"/>
    <checkSumAdjustment value="0x49d4b6de"/>
    <magicNumber value="0x5f0f3cf5"/>
    <flags value="00000000 00000011"/>
    <unitsPerEm value="1000"/>
    <created value="Wed Apr  5 21:30:04 2017"/>
    <modified value="Wed Apr  5 13:30:05 2017"/>
    <xMin value="-56"/>
    <yMin value="-272"/>
    <xMax value="1603"/>
    <yMax value="989"/>
    <macStyle value="00000000 00000000"/>
    <lowestRecPPEM value="7"/>
    <fontDirectionHint value="2"/>
    <indexToLocFormat value="0"/>
    <glyphDataFormat value="0"/>
  </head>
    <TTGlyph name=".notdef" xMin="171" yMin="0" xMax="581" yMax="701">
      <contour>
        <pt x="581" y="701" on="1"/>
        <pt x="581" y="0" on="1"/>
        <pt x="171" y="0" on="1"/>
        <pt x="171" y="701" on="1"/>
      </contour>
      <contour>
        <pt x="516" y="61" on="1"/>
        <pt x="516" y="640" on="1"/>
        <pt x="237" y="640" on="1"/>
        <pt x="237" y="61" on="1"/>
      </contour>
    </TTGlyph>
    <TTGlyph name="A" xMin="34" yMin="0" xMax="664" yMax="696">
      <contour>
        <pt x="494" y="142" on="1"/>
        <pt x="203" y="142" on="1"/>
        <pt x="153" y="0" on="1"/>
        <pt x="34" y="0" on="1"/>
        <pt x="283" y="696" on="1"/>
        <pt x="415" y="696" on="1"/>
        <pt x="664" y="0" on="1"/>
        <pt x="544" y="0" on="1"/>
      </contour>
      <contour>
        <pt x="463" y="231" on="1"/>
        <pt x="349" y="558" on="1"/>
        <pt x="234" y="231" on="1"/>
      </contour>
    </TTGlyph>
    <TTGlyph name="AE" xMin="12" yMin="0" xMax="855" yMax="696">
      <contour>
        <pt x="586" y="607" on="1"/>
        <pt x="586" y="396" on="1"/>
        <pt x="825" y="396" on="1"/>
        <pt x="825" y="308" on="1"/>
        <pt x="586" y="308" on="1"/>
        <pt x="586" y="89" on="1"/>
        <pt x="855" y="89" on="1"/>
        <pt x="855" y="0" on="1"/>
        <pt x="472" y="0" on="1"/>
        <pt x="472" y="142" on="1"/>
        <pt x="213" y="142" on="1"/>
        <pt x="136" y="0" on="1"/>
        <pt x="12" y="0" on="1"/>
        <pt x="395" y="696" on="1"/>
        <pt x="855" y="696" on="1"/>
        <pt x="855" y="607" on="1"/>
      </contour>
      <contour>
        <pt x="472" y="231" on="1"/>
        <pt x="472" y="617" on="1"/>
        <pt x="262" y="231" on="1"/>
      </contour>
    </TTGlyph>
    <TTGlyph name="Aacute" xMin="34" yMin="0" xMax="664" yMax="941">
      <component glyphName="A" x="0" y="0" flags="0x0"/>
      <component glyphName="acute" x="221" y="145" flags="0x4"/>
    </TTGlyph>
    <TTGlyph name="Abreve" xMin="34" yMin="0" xMax="664" yMax="914">
      <component glyphName="A" x="0" y="0" flags="0x0"/>
      <component glyphName="breve" x="189" y="145" flags="0x4"/>
    </TTGlyph>
    <TTGlyph name="Acircumflex" xMin="34" yMin="0" xMax="664" yMax="913">
      <component glyphName="A" x="0" y="0" flags="0x0"/>
      <component glyphName="circumflex" x="196" y="145" flags="0x4"/>
    </TTGlyph>
    <TTGlyph name="Adieresis" xMin="34" yMin="0" xMax="664" yMax="885">
      <component glyphName="A" x="0" y="0" flags="0x0"/>
      <component glyphName="dieresis" x="193" y="145" flags="0x4"/>
    </TTGlyph>
    <TTGlyph name="Agrave" xMin="34" yMin="0" xMax="664" yMax="941">
      <component glyphName="A" x="0" y="0" flags="0x0"/>
      <component glyphName="grave" x="221" y="145" flags="0x4"/>
    </TTGlyph>
    <TTGlyph name="Amacron" xMin="34" yMin="0" xMax="664" yMax="865">
      <component glyphName="A" x="0" y="0" flags="0x0"/>
      <component glyphName="macron" x="156" y="145" flags="0x4"/>
    </TTGlyph>
    <TTGlyph name="Aogonek" xMin="34" yMin="-205" xMax="698" yMax="696">
      <contour>
        <pt x="698" y="-133" on="1"/>
        <pt x="698" y="-205" on="1"/>
        <pt x="592" y="-205" on="1"/>
        <pt x="537" y="-205" on="0"/>
        <pt x="464" y="-146" on="0"/>
        <pt x="464" y="-96" on="1"/>
        <pt x="464" y="-59" on="0"/>
        <pt x="507" y="-10" on="0"/>
        <pt x="545" y="-1" on="1"/>
        <pt x="495" y="142" on="1"/>
        <pt x="203" y="142" on="1"/>
        <pt x="153" y="0" on="1"/>
        <pt x="34" y="0" on="1"/>
        <pt x="283" y="696" on="1"/>
        <pt x="415" y="696" on="1"/>
        <pt x="664" y="1" on="1"/>
        <pt x="664" y="-60" on="1"/>
        <pt x="614" y="-60" on="1"/>
        <pt x="585" y="-60" on="0"/>
        <pt x="558" y="-75" on="0"/>
        <pt x="558" y="-96" on="1"/>
        <pt x="558" y="-117" on="0"/>
        <pt x="586" y="-133" on="0"/>
        <pt x="614" y="-133" on="1"/>
      </contour>
      <contour>
        <pt x="464" y="231" on="1"/>
        <pt x="349" y="558" on="1"/>
        <pt x="234" y="231" on="1"/>
      </contour>
    </TTGlyph>
    <TTGlyph name="Aring" xMin="34" yMin="0" xMax="664" yMax="969">
      <component glyphName="A" x="0" y="0" flags="0x0"/>
      <component glyphName="ring" x="230" y="145" flags="0x4"/>
    </TTGlyph>
    <TTGlyph name="Atilde" xMin="34" yMin="0" xMax="664" yMax="870">
      <component glyphName="A" x="0" y="0" flags="0x0"/>
      <component glyphName="tilde" x="176" y="145" flags="0x4"/>
    </TTGlyph>
    <TTGlyph name="B" xMin="75" yMin="0" xMax="581" yMax="695">
      <contour>
        <pt x="498" y="346" on="0"/>
        <pt x="581" y="247" on="0"/>
        <pt x="581" y="183" on="1"/>
        <pt x="581" y="131" on="0"/>
        <pt x="526" y="48" on="0"/>
        <pt x="422" y="0" on="0"/>
        <pt x="353" y="0" on="1"/>
        <pt x="75" y="0" on="1"/>
        <pt x="75" y="695" on="1"/>
        <pt x="340" y="695" on="1"/>
        <pt x="411" y="695" on="0"/>
        <pt x="513" y="647" on="0"/>
        <pt x="565" y="563" on="0"/>
        <pt x="565" y="511" on="1"/>
        <pt x="565" y="452" on="0"/>
        <pt x="495" y="375" on="0"/>
        <pt x="430" y="357" on="1"/>
      </contour>
      <contour>
        <pt x="189" y="400" on="1"/>
        <pt x="330" y="400" on="1"/>
        <pt x="386" y="400" on="0"/>
        <pt x="449" y="454" on="0"/>
        <pt x="449" y="502" on="1"/>
        <pt x="449" y="551" on="0"/>
        <pt x="386" y="606" on="0"/>
        <pt x="330" y="606" on="1"/>
        <pt x="189" y="606" on="1"/>
      </contour>
      <contour>
        <pt x="401" y="89" on="0"/>
        <pt x="467" y="147" on="0"/>
        <pt x="467" y="199" on="1"/>
        <pt x="467" y="250" on="0"/>
        <pt x="397" y="311" on="0"/>
        <pt x="339" y="311" on="1"/>
        <pt x="189" y="311" on="1"/>
        <pt x="189" y="89" on="1"/>
        <pt x="343" y="89" on="1"/>
      </contour>
    </TTGlyph>
    <TTGlyph name="C" xMin="37" yMin="-6" xMax="715" yMax="704">
      <contour>
        <pt x="503" y="704" on="0"/>
        <pt x="676" y="595" on="0"/>
        <pt x="715" y="495" on="1"/>
        <pt x="578" y="495" on="1"/>
        <pt x="551" y="547" on="0"/>
        <pt x="455" y="600" on="0"/>
        <pt x="392" y="600" on="1"/>
        <pt x="323" y="600" on="0"/>
        <pt x="215" y="538" on="0"/>
        <pt x="154" y="424" on="0"/>
        <pt x="154" y="349" on="1"/>
        <pt x="154" y="274" on="0"/>
        <pt x="215" y="159" on="0"/>
        <pt x="323" y="97" on="0"/>
        <pt x="392" y="97" on="1"/>
        <pt x="455" y="97" on="0"/>
        <pt x="551" y="150" on="0"/>
        <pt x="578" y="202" on="1"/>
        <pt x="715" y="202" on="1"/>
        <pt x="676" y="102" on="0"/>
        <pt x="503" y="-6" on="0"/>
        <pt x="392" y="-6" on="1"/>
        <pt x="294" y="-6" on="0"/>
        <pt x="132" y="85" on="0"/>
        <pt x="37" y="247" on="0"/>
        <pt x="37" y="349" on="1"/>
        <pt x="37" y="451" on="0"/>
        <pt x="132" y="613" on="0"/>
        <pt x="295" y="704" on="0"/>
        <pt x="392" y="704" on="1"/>
      </contour>
    </TTGlyph>
    <TTGlyph name="Cacute" xMin="37" yMin="-6" xMax="715" yMax="941">
      <component glyphName="C" x="0" y="0" flags="0x0"/>
      <component glyphName="acute" x="258" y="145" flags="0x4"/>
    </TTGlyph>
    <TTGlyph name="Ccaron" xMin="37" yMin="-6" xMax="715" yMax="913">
      <component glyphName="C" x="0" y="0" flags="0x0"/>
      <component glyphName="caron" x="233" y="145" flags="0x4"/>
    </TTGlyph>
    <TTGlyph name="Ccedilla" xMin="37" yMin="-262" xMax="715" yMax="704">
      <contour>
        <pt x="455" y="97" on="0"/>
        <pt x="551" y="150" on="0"/>
        <pt x="578" y="202" on="1"/>
        <pt x="715" y="202" on="1"/>
        <pt x="679" y="110" on="0"/>
        <pt x="527" y="4" on="0"/>
        <pt x="428" y="-4" on="1"/>
        <pt x="428" y="-48" on="1"/>
        <pt x="486" y="-48" on="0"/>
        <pt x="558" y="-103" on="0"/>
        <pt x="558" y="-153" on="1"/>
        <pt x="558" y="-203" on="0"/>
        <pt x="486" y="-262" on="0"/>
        <pt x="431" y="-262" on="1"/>
        <pt x="299" y="-262" on="1"/>
        <pt x="299" y="-190" on="1"/>
        <pt x="408" y="-190" on="1"/>
        <pt x="436" y="-190" on="0"/>
        <pt x="464" y="-174" on="0"/>
        <pt x="464" y="-153" on="1"/>
        <pt x="464" y="-132" on="0"/>
        <pt x="436" y="-116" on="0"/>
        <pt x="408" y="-116" on="1"/>
        <pt x="353" y="-116" on="1"/>
        <pt x="353" y="-4" on="1"/>
        <pt x="264" y="5" on="0"/>
        <pt x="120" y="99" on="0"/>
        <pt x="37" y="254" on="0"/>
        <pt x="37" y="349" on="1"/>
        <pt x="37" y="451" on="0"/>
        <pt x="132" y="613" on="0"/>
        <pt x="295" y="704" on="0"/>
        <pt x="392" y="704" on="1"/>
        <pt x="503" y="704" on="0"/>
        <pt x="676" y="595" on="0"/>
        <pt x="715" y="495" on="1"/>
        <pt x="578" y="495" on="1"/>
        <pt x="551" y="547" on="0"/>
        <pt x="455" y="600" on="0"/>
        <pt x="392" y="600" on="1"/>
        <pt x="323" y="600" on="0"/>
        <pt x="215" y="538" on="0"/>
        <pt x="154" y="424" on="0"/>
        <pt x="154" y="349" on="1"/>
        <pt x="154" y="274" on="0"/>
        <pt x="215" y="159" on="0"/>
        <pt x="323" y="97" on="0"/>
        <pt x="392" y="97" on="1"/>
      </contour>
    </TTGlyph>
    <TTGlyph name="D" xMin="75" yMin="0" xMax="671" yMax="695">
      <contour>
        <pt x="671" y="239" on="0"/>
        <pt x="580" y="83" on="0"/>
        <pt x="413" y="0" on="0"/>
        <pt x="302" y="0" on="1"/>
        <pt x="75" y="0" on="1"/>
        <pt x="75" y="695" on="1"/>
        <pt x="302" y="695" on="1"/>
        <pt x="413" y="695" on="0"/>
        <pt x="580" y="610" on="0"/>
        <pt x="671" y="451" on="0"/>
        <pt x="671" y="345" on="1"/>
      </contour>
      <contour>
        <pt x="423" y="87" on="0"/>
        <pt x="554" y="225" on="0"/>
        <pt x="554" y="345" on="1"/>
        <pt x="554" y="466" on="0"/>
        <pt x="423" y="603" on="0"/>
        <pt x="302" y="603" on="1"/>
        <pt x="189" y="603" on="1"/>
        <pt x="189" y="87" on="1"/>
        <pt x="302" y="87" on="1"/>
      </contour>
    </TTGlyph>
    <TTGlyph name="Dcaron" xMin="75" yMin="0" xMax="671" yMax="913">
      <component glyphName="D" x="0" y="0" flags="0x0"/>
      <component glyphName="caron" x="202" y="145" flags="0x4"/>
    </TTGlyph>
    <TTGlyph name="Dcroat" xMin="9" yMin="0" xMax="682" yMax="695">
      <component glyphName="Eth" x="0" y="0" flags="0x0"/>
    </TTGlyph>
    <TTGlyph name="E" xMin="75" yMin="0" xMax="459" yMax="696">
      <contour>
        <pt x="189" y="607" on="1"/>
        <pt x="189" y="396" on="1"/>
        <pt x="429" y="396" on="1"/>
        <pt x="429" y="308" on="1"/>
        <pt x="189" y="308" on="1"/>
        <pt x="189" y="89" on="1"/>
        <pt x="459" y="89" on="1"/>
        <pt x="459" y="0" on="1"/>
        <pt x="75" y="0" on="1"/>
        <pt x="75" y="696" on="1"/>
        <pt x="459" y="696" on="1"/>
        <pt x="459" y="607" on="1"/>
      </contour>
    </TTGlyph>
    <TTGlyph name="Eacute" xMin="75" yMin="0" xMax="459" yMax="941">
      <component glyphName="E" x="0" y="0" flags="0x0"/>
      <component glyphName="acute" x="134" y="145" flags="0x4"/>
    </TTGlyph>
    <TTGlyph name="Ecaron" xMin="75" yMin="0" xMax="459" yMax="913">
      <component glyphName="E" x="0" y="0" flags="0x0"/>
      <component glyphName="caron" x="109" y="145" flags="0x4"/>
    </TTGlyph>
    <TTGlyph name="Ecircumflex" xMin="75" yMin="0" xMax="459" yMax="913">
      <component glyphName="E" x="0" y="0" flags="0x0"/>
      <component glyphName="circumflex" x="109" y="145" flags="0x4"/>
    </TTGlyph>
    <TTGlyph name="Edieresis" xMin="75" yMin="0" xMax="459" yMax="885">
      <component glyphName="E" x="0" y="0" flags="0x0"/>
      <component glyphName="dieresis" x="106" y="145" flags="0x4"/>
    </TTGlyph>
    <TTGlyph name="Edotaccent" xMin="75" yMin="0" xMax="459" yMax="885">
      <component glyphName="E" x="0" y="0" flags="0x0"/>
      <component glyphName="dotaccent" x="192" y="145" flags="0x4"/>
    </TTGlyph>
    <TTGlyph name="Egrave" xMin="75" yMin="0" xMax="459" yMax="941">
      <component glyphName="E" x="0" y="0" flags="0x0"/>
      <component glyphName="grave" x="134" y="145" flags="0x4"/>
    </TTGlyph>
    <TTGlyph name="Emacron" xMin="75" yMin="0" xMax="459" yMax="865">
      <component glyphName="E" x="0" y="0" flags="0x0"/>
      <component glyphName="macron" x="69" y="145" flags="0x4"/>
    </TTGlyph>
    <TTGlyph name="Eogonek" xMin="75" yMin="-205" xMax="493" yMax="696">
      <contour>
        <pt x="493" y="-133" on="1"/>
        <pt x="493" y="-205" on="1"/>
        <pt x="387" y="-205" on="1"/>
        <pt x="332" y="-205" on="0"/>
        <pt x="259" y="-146" on="0"/>
        <pt x="259" y="-96" on="1"/>
        <pt x="259" y="-60" on="0"/>
        <pt x="297" y="-12" on="0"/>
        <pt x="331" y="0" on="1"/>
        <pt x="75" y="0" on="1"/>
        <pt x="75" y="696" on="1"/>
        <pt x="459" y="696" on="1"/>
        <pt x="459" y="607" on="1"/>
        <pt x="189" y="607" on="1"/>
        <pt x="189" y="396" on="1"/>
        <pt x="429" y="396" on="1"/>
        <pt x="429" y="308" on="1"/>
        <pt x="189" y="308" on="1"/>
        <pt x="189" y="89" on="1"/>
        <pt x="459" y="89" on="1"/>
        <pt x="459" y="0" on="1"/>
        <pt x="458" y="0" on="1"/>
        <pt x="458" y="-60" on="1"/>
        <pt x="409" y="-60" on="1"/>
        <pt x="380" y="-60" on="0"/>
        <pt x="353" y="-75" on="0"/>
        <pt x="353" y="-96" on="1"/>
        <pt x="353" y="-117" on="0"/>
        <pt x="381" y="-133" on="0"/>
        <pt x="409" y="-133" on="1"/>
      </contour>
    </TTGlyph>
    <TTGlyph name="Eth" xMin="9" yMin="0" xMax="682" yMax="695">
      <contour>
        <pt x="425" y="695" on="0"/>
        <pt x="591" y="610" on="0"/>
        <pt x="682" y="451" on="0"/>
        <pt x="682" y="345" on="1"/>
        <pt x="682" y="239" on="0"/>
        <pt x="591" y="83" on="0"/>
        <pt x="425" y="0" on="0"/>
        <pt x="314" y="0" on="1"/>
        <pt x="86" y="0" on="1"/>
        <pt x="86" y="293" on="1"/>
        <pt x="9" y="293" on="1"/>
        <pt x="9" y="398" on="1"/>
        <pt x="86" y="398" on="1"/>
        <pt x="86" y="695" on="1"/>
        <pt x="314" y="695" on="1"/>
      </contour>
      <contour>
        <pt x="435" y="87" on="0"/>
        <pt x="565" y="225" on="0"/>
        <pt x="565" y="345" on="1"/>
        <pt x="565" y="466" on="0"/>
        <pt x="435" y="603" on="0"/>
        <pt x="314" y="603" on="1"/>
        <pt x="201" y="603" on="1"/>
        <pt x="201" y="398" on="1"/>
        <pt x="379" y="398" on="1"/>
        <pt x="379" y="293" on="1"/>
        <pt x="201" y="293" on="1"/>
        <pt x="201" y="87" on="1"/>
        <pt x="314" y="87" on="1"/>
      </contour>
    </TTGlyph>
    <TTGlyph name="Euro" xMin="26" yMin="-6" xMax="775" yMax="704">
      <contour>
        <pt x="516" y="97" on="0"/>
        <pt x="611" y="150" on="0"/>
        <pt x="638" y="202" on="1"/>
        <pt x="775" y="202" on="1"/>
        <pt x="736" y="102" on="0"/>
        <pt x="564" y="-6" on="0"/>
        <pt x="453" y="-6" on="1"/>
        <pt x="336" y="-6" on="0"/>
        <pt x="154" y="121" on="0"/>
        <pt x="118" y="227" on="1"/>
        <pt x="26" y="227" on="1"/>
        <pt x="26" y="305" on="1"/>
        <pt x="100" y="305" on="1"/>
        <pt x="98" y="333" on="0"/>
        <pt x="98" y="349" on="1"/>
        <pt x="98" y="365" on="0"/>
        <pt x="100" y="393" on="1"/>
        <pt x="26" y="393" on="1"/>
        <pt x="26" y="471" on="1"/>
        <pt x="118" y="471" on="1"/>
        <pt x="154" y="577" on="0"/>
        <pt x="336" y="704" on="0"/>
        <pt x="453" y="704" on="1"/>
        <pt x="563" y="704" on="0"/>
        <pt x="736" y="595" on="0"/>
        <pt x="775" y="495" on="1"/>
        <pt x="638" y="495" on="1"/>
        <pt x="611" y="547" on="0"/>
        <pt x="516" y="600" on="0"/>
        <pt x="453" y="600" on="1"/>
        <pt x="381" y="600" on="0"/>
        <pt x="269" y="532" on="0"/>
        <pt x="240" y="471" on="1"/>
        <pt x="453" y="471" on="1"/>
        <pt x="453" y="393" on="1"/>
        <pt x="218" y="393" on="1"/>
        <pt x="215" y="372" on="0"/>
        <pt x="215" y="349" on="1"/>
        <pt x="215" y="326" on="0"/>
        <pt x="218" y="305" on="1"/>
        <pt x="453" y="305" on="1"/>
        <pt x="453" y="227" on="1"/>
        <pt x="240" y="227" on="1"/>
        <pt x="269" y="165" on="0"/>
        <pt x="380" y="97" on="0"/>
        <pt x="453" y="97" on="1"/>
      </contour>
    </TTGlyph>
    <TTGlyph name="F" xMin="75" yMin="0" xMax="484" yMax="695">
      <contour>
        <pt x="484" y="695" on="1"/>
        <pt x="484" y="606" on="1"/>
        <pt x="189" y="606" on="1"/>
        <pt x="189" y="395" on="1"/>
        <pt x="419" y="395" on="1"/>
        <pt x="419" y="307" on="1"/>
        <pt x="189" y="307" on="1"/>
        <pt x="189" y="0" on="1"/>
        <pt x="75" y="0" on="1"/>
        <pt x="75" y="695" on="1"/>
      </contour>
    </TTGlyph>
    <TTGlyph name="G" xMin="37" yMin="-6" xMax="736" yMax="704">
      <contour>
        <pt x="503" y="704" on="0"/>
        <pt x="676" y="595" on="0"/>
        <pt x="715" y="495" on="1"/>
        <pt x="578" y="495" on="1"/>
        <pt x="551" y="547" on="0"/>
        <pt x="455" y="600" on="0"/>
        <pt x="392" y="600" on="1"/>
        <pt x="323" y="600" on="0"/>
        <pt x="215" y="538" on="0"/>
        <pt x="154" y="424" on="0"/>
        <pt x="154" y="349" on="1"/>
        <pt x="154" y="274" on="0"/>
        <pt x="215" y="159" on="0"/>
        <pt x="323" y="97" on="0"/>
        <pt x="392" y="97" on="1"/>
        <pt x="485" y="97" on="0"/>
        <pt x="602" y="202" on="0"/>
        <pt x="614" y="292" on="1"/>
        <pt x="353" y="292" on="1"/>
        <pt x="353" y="381" on="1"/>
        <pt x="736" y="381" on="1"/>
        <pt x="736" y="292" on="1"/>
        <pt x="725" y="211" on="0"/>
        <pt x="632" y="75" on="0"/>
        <pt x="483" y="-6" on="0"/>
        <pt x="392" y="-6" on="1"/>
        <pt x="294" y="-6" on="0"/>
        <pt x="132" y="85" on="0"/>
        <pt x="37" y="247" on="0"/>
        <pt x="37" y="349" on="1"/>
        <pt x="37" y="451" on="0"/>
        <pt x="132" y="613" on="0"/>
        <pt x="295" y="704" on="0"/>
        <pt x="392" y="704" on="1"/>
      </contour>
    </TTGlyph>
    <TTGlyph name="Gbreve" xMin="37" yMin="-6" xMax="736" yMax="914">
      <component glyphName="G" x="0" y="0" flags="0x0"/>
      <component glyphName="breve" x="226" y="145" flags="0x4"/>
    </TTGlyph>
    <TTGlyph name="H" xMin="75" yMin="0" xMax="630" yMax="695">
      <contour>
        <pt x="630" y="695" on="1"/>
        <pt x="630" y="0" on="1"/>
        <pt x="516" y="0" on="1"/>
        <pt x="516" y="307" on="1"/>
        <pt x="189" y="307" on="1"/>
        <pt x="189" y="0" on="1"/>
        <pt x="75" y="0" on="1"/>
        <pt x="75" y="695" on="1"/>
        <pt x="189" y="695" on="1"/>
        <pt x="189" y="395" on="1"/>
        <pt x="516" y="395" on="1"/>
        <pt x="516" y="695" on="1"/>
      </contour>
    </TTGlyph>
    <TTGlyph name="I" xMin="75" yMin="0" xMax="189" yMax="695">
      <contour>
        <pt x="189" y="695" on="1"/>
        <pt x="189" y="0" on="1"/>
        <pt x="75" y="0" on="1"/>
        <pt x="75" y="695" on="1"/>
      </contour>
    </TTGlyph>
    <TTGlyph name="ITF" xMin="147" yMin="0" xMax="1603" yMax="671">
      <contour>
        <pt x="354" y="671" on="1"/>
        <pt x="354" y="0" on="1"/>
        <pt x="147" y="0" on="1"/>
        <pt x="147" y="671" on="1"/>
      </contour>
      <contour>
        <pt x="604" y="671" on="1"/>
        <pt x="604" y="475" on="1"/>
        <pt x="397" y="475" on="1"/>
        <pt x="397" y="671" on="1"/>
      </contour>
      <contour>
        <pt x="854" y="671" on="1"/>
        <pt x="854" y="0" on="1"/>
        <pt x="647" y="0" on="1"/>
        <pt x="647" y="671" on="1"/>
      </contour>
      <contour>
        <pt x="1104" y="671" on="1"/>
        <pt x="1104" y="475" on="1"/>
        <pt x="896" y="475" on="1"/>
        <pt x="896" y="671" on="1"/>
      </contour>
      <contour>
        <pt x="1354" y="671" on="1"/>
        <pt x="1354" y="0" on="1"/>
        <pt x="1146" y="0" on="1"/>
        <pt x="1146" y="671" on="1"/>
      </contour>
      <contour>
        <pt x="1603" y="671" on="1"/>
        <pt x="1603" y="475" on="1"/>
        <pt x="1396" y="475" on="1"/>
        <pt x="1396" y="671" on="1"/>
      </contour>
      <contour>
        <pt x="1603" y="433" on="1"/>
        <pt x="1603" y="237" on="1"/>
        <pt x="1396" y="237" on="1"/>
        <pt x="1396" y="433" on="1"/>
      </contour>
    </TTGlyph>
    <TTGlyph name="Iacute" xMin="14" yMin="0" xMax="235" yMax="941">
      <component glyphName="I" x="0" y="0" flags="0x0"/>
      <component glyphName="acute" x="4" y="145" flags="0x4"/>
    </TTGlyph>
    <TTGlyph name="Icircumflex" xMin="-11" yMin="0" xMax="275" yMax="913">
      <component glyphName="I" x="0" y="0" flags="0x0"/>
      <component glyphName="circumflex" x="-21" y="145" flags="0x4"/>
    </TTGlyph>
    <TTGlyph name="Idieresis" xMin="-14" yMin="0" xMax="278" yMax="885">
      <component glyphName="I" x="0" y="0" flags="0x0"/>
      <component glyphName="dieresis" x="-24" y="145" flags="0x4"/>
    </TTGlyph>
    <TTGlyph name="Idotaccent" xMin="72" yMin="0" xMax="192" yMax="885">
      <component glyphName="I" x="0" y="0" flags="0x0"/>
      <component glyphName="dotaccent" x="62" y="145" flags="0x4"/>
    </TTGlyph>
    <TTGlyph name="Igrave" xMin="14" yMin="0" xMax="235" yMax="941">
      <component glyphName="I" x="0" y="0" flags="0x0"/>
      <component glyphName="grave" x="4" y="145" flags="0x4"/>
    </TTGlyph>
    <TTGlyph name="Imacron" xMin="-51" yMin="0" xMax="315" yMax="865">
      <component glyphName="I" x="0" y="0" flags="0x0"/>
      <component glyphName="macron" x="-61" y="145" flags="0x4"/>
    </TTGlyph>
    <TTGlyph name="Iogonek" xMin="-10" yMin="-204" xMax="224" yMax="695">
      <contour>
        <pt x="224" y="-132" on="1"/>
        <pt x="224" y="-204" on="1"/>
        <pt x="118" y="-204" on="1"/>
        <pt x="63" y="-204" on="0"/>
        <pt x="-10" y="-145" on="0"/>
        <pt x="-10" y="-95" on="1"/>
        <pt x="-10" y="-56" on="0"/>
        <pt x="36" y="-4" on="0"/>
        <pt x="75" y="5" on="1"/>
        <pt x="75" y="695" on="1"/>
        <pt x="189" y="695" on="1"/>
        <pt x="189" y="-59" on="1"/>
        <pt x="140" y="-59" on="1"/>
        <pt x="111" y="-59" on="0"/>
        <pt x="84" y="-74" on="0"/>
        <pt x="84" y="-95" on="1"/>
        <pt x="84" y="-116" on="0"/>
        <pt x="112" y="-132" on="0"/>
        <pt x="140" y="-132" on="1"/>
      </contour>
    </TTGlyph>
    <TTGlyph name="J" xMin="44" yMin="-7" xMax="454" yMax="695">
      <contour>
        <pt x="454" y="695" on="1"/>
        <pt x="454" y="194" on="1"/>
        <pt x="454" y="101" on="0"/>
        <pt x="341" y="-7" on="0"/>
        <pt x="249" y="-7" on="1"/>
        <pt x="157" y="-7" on="0"/>
        <pt x="44" y="101" on="0"/>
        <pt x="44" y="194" on="1"/>
        <pt x="159" y="194" on="1"/>
        <pt x="160" y="148" on="0"/>
        <pt x="205" y="94" on="0"/>
        <pt x="249" y="94" on="1"/>
        <pt x="293" y="94" on="0"/>
        <pt x="339" y="149" on="0"/>
        <pt x="339" y="194" on="1"/>
        <pt x="339" y="695" on="1"/>
      </contour>
    </TTGlyph>
    <TTGlyph name="K" xMin="75" yMin="0" xMax="608" yMax="695">
      <contour>
        <pt x="294" y="346" on="1"/>
        <pt x="608" y="0" on="1"/>
        <pt x="458" y="0" on="1"/>
        <pt x="189" y="311" on="1"/>
        <pt x="189" y="0" on="1"/>
        <pt x="75" y="0" on="1"/>
        <pt x="75" y="695" on="1"/>
        <pt x="189" y="695" on="1"/>
        <pt x="189" y="378" on="1"/>
        <pt x="459" y="695" on="1"/>
        <pt x="608" y="695" on="1"/>
      </contour>
    </TTGlyph>
    <TTGlyph name="L" xMin="75" yMin="0" xMax="424" yMax="695">
      <contour>
        <pt x="189" y="87" on="1"/>
        <pt x="424" y="87" on="1"/>
        <pt x="424" y="0" on="1"/>
        <pt x="75" y="0" on="1"/>
        <pt x="75" y="695" on="1"/>
        <pt x="189" y="695" on="1"/>
      </contour>
    </TTGlyph>
    <TTGlyph name="Lacute" xMin="75" yMin="0" xMax="424" yMax="941">
      <component glyphName="L" x="0" y="0" flags="0x0"/>
      <component glyphName="acute" x="94" y="145" flags="0x4"/>
    </TTGlyph>
    <TTGlyph name="Lcaron" xMin="75" yMin="0" xMax="424" yMax="695">
      <contour>
        <pt x="189" y="87" on="1"/>
        <pt x="424" y="87" on="1"/>
        <pt x="424" y="0" on="1"/>
        <pt x="75" y="0" on="1"/>
        <pt x="75" y="695" on="1"/>
        <pt x="189" y="695" on="1"/>
      </contour>
      <contour>
        <pt x="414" y="643" on="0"/>
        <pt x="414" y="596" on="1"/>
        <pt x="414" y="471" on="0"/>
        <pt x="302" y="471" on="1"/>
        <pt x="302" y="521" on="1"/>
        <pt x="350" y="521" on="0"/>
        <pt x="350" y="578" on="1"/>
        <pt x="350" y="599" on="1"/>
        <pt x="297" y="599" on="1"/>
        <pt x="297" y="695" on="1"/>
        <pt x="400" y="695" on="1"/>
      </contour>
    </TTGlyph>
    <TTGlyph name="Lslash" xMin="9" yMin="0" xMax="435" yMax="695">
      <contour>
        <pt x="435" y="87" on="1"/>
        <pt x="435" y="0" on="1"/>
        <pt x="86" y="0" on="1"/>
        <pt x="86" y="288" on="1"/>
        <pt x="9" y="263" on="1"/>
        <pt x="9" y="368" on="1"/>
        <pt x="86" y="393" on="1"/>
        <pt x="86" y="695" on="1"/>
        <pt x="201" y="695" on="1"/>
        <pt x="201" y="431" on="1"/>
        <pt x="293" y="461" on="1"/>
        <pt x="293" y="355" on="1"/>
        <pt x="201" y="325" on="1"/>
        <pt x="201" y="87" on="1"/>
      </contour>
    </TTGlyph>
    <TTGlyph name="M" xMin="75" yMin="0" xMax="807" yMax="695">
      <contour>
        <pt x="807" y="695" on="1"/>
        <pt x="807" y="0" on="1"/>
        <pt x="693" y="0" on="1"/>
        <pt x="693" y="476" on="1"/>
        <pt x="481" y="0" on="1"/>
        <pt x="402" y="0" on="1"/>
        <pt x="189" y="476" on="1"/>
        <pt x="189" y="0" on="1"/>
        <pt x="75" y="0" on="1"/>
        <pt x="75" y="695" on="1"/>
        <pt x="198" y="695" on="1"/>
        <pt x="442" y="150" on="1"/>
        <pt x="685" y="695" on="1"/>
      </contour>
    </TTGlyph>
    <TTGlyph name="N" xMin="75" yMin="0" xMax="646" yMax="696">
      <contour>
        <pt x="646" y="0" on="1"/>
        <pt x="532" y="0" on="1"/>
        <pt x="189" y="519" on="1"/>
        <pt x="189" y="0" on="1"/>
        <pt x="75" y="0" on="1"/>
        <pt x="75" y="696" on="1"/>
        <pt x="189" y="696" on="1"/>
        <pt x="532" y="178" on="1"/>
        <pt x="532" y="696" on="1"/>
        <pt x="646" y="696" on="1"/>
      </contour>
    </TTGlyph>
    <TTGlyph name="Nacute" xMin="75" yMin="0" xMax="646" yMax="941">
      <component glyphName="N" x="0" y="0" flags="0x0"/>
      <component glyphName="acute" x="233" y="145" flags="0x4"/>
    </TTGlyph>
    <TTGlyph name="Ncaron" xMin="75" yMin="0" xMax="646" yMax="913">
      <component glyphName="N" x="0" y="0" flags="0x0"/>
      <component glyphName="caron" x="208" y="145" flags="0x4"/>
    </TTGlyph>
    <TTGlyph name="Ntilde" xMin="75" yMin="0" xMax="646" yMax="870">
      <component glyphName="N" x="0" y="0" flags="0x0"/>
      <component glyphName="tilde" x="188" y="145" flags="0x4"/>
    </TTGlyph>
    <TTGlyph name="O" xMin="37" yMin="-7" xMax="747" yMax="704">
      <contour>
        <pt x="490" y="704" on="0"/>
        <pt x="653" y="613" on="0"/>
        <pt x="747" y="451" on="0"/>
        <pt x="747" y="349" on="1"/>
        <pt x="747" y="247" on="0"/>
        <pt x="653" y="84" on="0"/>
        <pt x="490" y="-7" on="0"/>
        <pt x="392" y="-7" on="1"/>
        <pt x="295" y="-7" on="0"/>
        <pt x="132" y="84" on="0"/>
        <pt x="37" y="247" on="0"/>
        <pt x="37" y="349" on="1"/>
        <pt x="37" y="451" on="0"/>
        <pt x="132" y="613" on="0"/>
        <pt x="295" y="704" on="0"/>
        <pt x="392" y="704" on="1"/>
      </contour>
      <contour>
        <pt x="323" y="600" on="0"/>
        <pt x="215" y="538" on="0"/>
        <pt x="154" y="424" on="0"/>
        <pt x="154" y="349" on="1"/>
        <pt x="154" y="274" on="0"/>
        <pt x="215" y="159" on="0"/>
        <pt x="323" y="96" on="0"/>
        <pt x="392" y="96" on="1"/>
        <pt x="461" y="96" on="0"/>
        <pt x="569" y="159" on="0"/>
        <pt x="630" y="274" on="0"/>
        <pt x="630" y="349" on="1"/>
        <pt x="630" y="424" on="0"/>
        <pt x="569" y="538" on="0"/>
        <pt x="461" y="600" on="0"/>
        <pt x="392" y="600" on="1"/>
      </contour>
    </TTGlyph>
    <TTGlyph name="OE" xMin="37" yMin="-7" xMax="1014" yMax="704">
      <contour>
        <pt x="744" y="395" on="1"/>
        <pt x="984" y="395" on="1"/>
        <pt x="984" y="307" on="1"/>
        <pt x="744" y="307" on="1"/>
        <pt x="744" y="89" on="1"/>
        <pt x="1014" y="89" on="1"/>
        <pt x="1014" y="0" on="1"/>
        <pt x="630" y="0" on="1"/>
        <pt x="630" y="111" on="1"/>
        <pt x="587" y="53" on="0"/>
        <pt x="464" y="-7" on="0"/>
        <pt x="392" y="-7" on="1"/>
        <pt x="295" y="-7" on="0"/>
        <pt x="132" y="84" on="0"/>
        <pt x="37" y="247" on="0"/>
        <pt x="37" y="349" on="1"/>
        <pt x="37" y="452" on="0"/>
        <pt x="132" y="614" on="0"/>
        <pt x="295" y="704" on="0"/>
        <pt x="392" y="704" on="1"/>
        <pt x="465" y="704" on="0"/>
        <pt x="587" y="644" on="0"/>
        <pt x="630" y="585" on="1"/>
        <pt x="630" y="695" on="1"/>
        <pt x="1014" y="695" on="1"/>
        <pt x="1014" y="606" on="1"/>
        <pt x="744" y="606" on="1"/>
      </contour>
      <contour>
        <pt x="461" y="96" on="0"/>
        <pt x="569" y="159" on="0"/>
        <pt x="630" y="274" on="0"/>
        <pt x="630" y="349" on="1"/>
        <pt x="630" y="424" on="0"/>
        <pt x="569" y="538" on="0"/>
        <pt x="461" y="600" on="0"/>
        <pt x="392" y="600" on="1"/>
        <pt x="323" y="600" on="0"/>
        <pt x="215" y="538" on="0"/>
        <pt x="154" y="424" on="0"/>
        <pt x="154" y="349" on="1"/>
        <pt x="154" y="274" on="0"/>
        <pt x="215" y="159" on="0"/>
        <pt x="323" y="96" on="0"/>
        <pt x="392" y="96" on="1"/>
      </contour>
    </TTGlyph>
    <TTGlyph name="Oacute" xMin="37" yMin="-7" xMax="747" yMax="941">
      <component glyphName="O" x="0" y="0" flags="0x0"/>
      <component glyphName="acute" x="264" y="145" flags="0x4"/>
    </TTGlyph>
    <TTGlyph name="Ocircumflex" xMin="37" yMin="-7" xMax="747" yMax="913">
      <component glyphName="O" x="0" y="0" flags="0x0"/>
      <component glyphName="circumflex" x="239" y="145" flags="0x4"/>
    </TTGlyph>
    <TTGlyph name="Odieresis" xMin="37" yMin="-7" xMax="747" yMax="885">
      <component glyphName="O" x="0" y="0" flags="0x0"/>
      <component glyphName="dieresis" x="236" y="145" flags="0x4"/>
    </TTGlyph>
    <TTGlyph name="Ograve" xMin="37" yMin="-7" xMax="747" yMax="941">
      <component glyphName="O" x="0" y="0" flags="0x0"/>
      <component glyphName="grave" x="264" y="145" flags="0x4"/>
    </TTGlyph>
    <TTGlyph name="Ohungarumlaut" xMin="37" yMin="-7" xMax="747" yMax="916">
      <component glyphName="O" x="0" y="0" flags="0x0"/>
      <component glyphName="hungarumlaut" x="254" y="145" flags="0x4"/>
    </TTGlyph>
    <TTGlyph name="Omacron" xMin="37" yMin="-7" xMax="747" yMax="865">
      <component glyphName="O" x="0" y="0" flags="0x0"/>
      <component glyphName="macron" x="199" y="145" flags="0x4"/>
    </TTGlyph>
    <TTGlyph name="Oslash" xMin="26" yMin="-7" xMax="758" yMax="704">
      <contour>
        <pt x="659" y="589" on="1"/>
        <pt x="701" y="542" on="0"/>
        <pt x="747" y="419" on="0"/>
        <pt x="747" y="349" on="1"/>
        <pt x="747" y="247" on="0"/>
        <pt x="653" y="84" on="0"/>
        <pt x="490" y="-7" on="0"/>
        <pt x="392" y="-7" on="1"/>
        <pt x="331" y="-7" on="0"/>
        <pt x="220" y="29" on="0"/>
        <pt x="175" y="63" on="1"/>
        <pt x="117" y="0" on="1"/>
        <pt x="26" y="0" on="1"/>
        <pt x="126" y="108" on="1"/>
        <pt x="84" y="156" on="0"/>
        <pt x="37" y="279" on="0"/>
        <pt x="37" y="349" on="1"/>
        <pt x="37" y="451" on="0"/>
        <pt x="132" y="613" on="0"/>
        <pt x="295" y="704" on="0"/>
        <pt x="392" y="704" on="1"/>
        <pt x="453" y="704" on="0"/>
        <pt x="565" y="668" on="0"/>
        <pt x="610" y="634" on="1"/>
        <pt x="667" y="696" on="1"/>
        <pt x="758" y="696" on="1"/>
      </contour>
      <contour>
        <pt x="154" y="256" on="0"/>
        <pt x="201" y="190" on="1"/>
        <pt x="537" y="555" on="1"/>
        <pt x="476" y="600" on="0"/>
        <pt x="392" y="600" on="1"/>
        <pt x="323" y="600" on="0"/>
        <pt x="215" y="538" on="0"/>
        <pt x="154" y="424" on="0"/>
        <pt x="154" y="349" on="1"/>
      </contour>
      <contour>
        <pt x="630" y="440" on="0"/>
        <pt x="584" y="507" on="1"/>
        <pt x="248" y="142" on="1"/>
        <pt x="308" y="96" on="0"/>
        <pt x="392" y="96" on="1"/>
        <pt x="461" y="96" on="0"/>
        <pt x="569" y="159" on="0"/>
        <pt x="630" y="274" on="0"/>
        <pt x="630" y="349" on="1"/>
      </contour>
    </TTGlyph>
    <TTGlyph name="Otilde" xMin="37" yMin="-7" xMax="747" yMax="870">
      <component glyphName="O" x="0" y="0" flags="0x0"/>
      <component glyphName="tilde" x="219" y="145" flags="0x4"/>
    </TTGlyph>
    <TTGlyph name="P" xMin="75" yMin="0" xMax="561" yMax="695">
      <contour>
        <pt x="189" y="282" on="1"/>
        <pt x="189" y="0" on="1"/>
        <pt x="75" y="0" on="1"/>
        <pt x="75" y="695" on="1"/>
        <pt x="315" y="695" on="1"/>
        <pt x="395" y="695" on="0"/>
        <pt x="506" y="640" on="0"/>
        <pt x="561" y="546" on="0"/>
        <pt x="561" y="488" on="1"/>
        <pt x="561" y="435" on="0"/>
        <pt x="511" y="341" on="0"/>
        <pt x="401" y="282" on="0"/>
        <pt x="315" y="282" on="1"/>
      </contour>
      <contour>
        <pt x="380" y="371" on="0"/>
        <pt x="444" y="433" on="0"/>
        <pt x="444" y="488" on="1"/>
        <pt x="444" y="544" on="0"/>
        <pt x="380" y="606" on="0"/>
        <pt x="315" y="606" on="1"/>
        <pt x="189" y="606" on="1"/>
        <pt x="189" y="371" on="1"/>
        <pt x="315" y="371" on="1"/>
      </contour>
    </TTGlyph>
    <TTGlyph name="Q" xMin="37" yMin="-126" xMax="758" yMax="704">
      <contour>
        <pt x="613" y="-126" on="1"/>
        <pt x="491" y="6" on="1"/>
        <pt x="446" y="-7" on="0"/>
        <pt x="392" y="-7" on="1"/>
        <pt x="295" y="-7" on="0"/>
        <pt x="132" y="84" on="0"/>
        <pt x="37" y="247" on="0"/>
        <pt x="37" y="349" on="1"/>
        <pt x="37" y="451" on="0"/>
        <pt x="132" y="613" on="0"/>
        <pt x="295" y="704" on="0"/>
        <pt x="392" y="704" on="1"/>
        <pt x="490" y="704" on="0"/>
        <pt x="653" y="613" on="0"/>
        <pt x="747" y="451" on="0"/>
        <pt x="747" y="349" on="1"/>
        <pt x="747" y="253" on="0"/>
        <pt x="664" y="98" on="0"/>
        <pt x="591" y="51" on="1"/>
        <pt x="758" y="-126" on="1"/>
      </contour>
      <contour>
        <pt x="154" y="274" on="0"/>
        <pt x="215" y="159" on="0"/>
        <pt x="323" y="96" on="0"/>
        <pt x="392" y="96" on="1"/>
        <pt x="461" y="96" on="0"/>
        <pt x="569" y="159" on="0"/>
        <pt x="630" y="274" on="0"/>
        <pt x="630" y="349" on="1"/>
        <pt x="630" y="424" on="0"/>
        <pt x="569" y="538" on="0"/>
        <pt x="461" y="600" on="0"/>
        <pt x="392" y="600" on="1"/>
        <pt x="323" y="600" on="0"/>
        <pt x="215" y="538" on="0"/>
        <pt x="154" y="424" on="0"/>
        <pt x="154" y="349" on="1"/>
      </contour>
    </TTGlyph>
    <TTGlyph name="R" xMin="75" yMin="0" xMax="572" yMax="695">
      <contour>
        <pt x="433" y="0" on="1"/>
        <pt x="259" y="282" on="1"/>
        <pt x="189" y="282" on="1"/>
        <pt x="189" y="0" on="1"/>
        <pt x="75" y="0" on="1"/>
        <pt x="75" y="695" on="1"/>
        <pt x="315" y="695" on="1"/>
        <pt x="395" y="695" on="0"/>
        <pt x="506" y="640" on="0"/>
        <pt x="561" y="546" on="0"/>
        <pt x="561" y="488" on="1"/>
        <pt x="561" y="418" on="0"/>
        <pt x="476" y="306" on="0"/>
        <pt x="388" y="289" on="1"/>
        <pt x="572" y="0" on="1"/>
      </contour>
      <contour>
        <pt x="189" y="371" on="1"/>
        <pt x="315" y="371" on="1"/>
        <pt x="380" y="371" on="0"/>
        <pt x="444" y="433" on="0"/>
        <pt x="444" y="488" on="1"/>
        <pt x="444" y="544" on="0"/>
        <pt x="380" y="606" on="0"/>
        <pt x="315" y="606" on="1"/>
        <pt x="189" y="606" on="1"/>
      </contour>
    </TTGlyph>
    <TTGlyph name="Racute" xMin="75" yMin="0" xMax="572" yMax="941">
      <component glyphName="R" x="0" y="0" flags="0x0"/>
      <component glyphName="acute" x="188" y="145" flags="0x4"/>
    </TTGlyph>
    <TTGlyph name="Rcaron" xMin="75" yMin="0" xMax="572" yMax="913">
      <component glyphName="R" x="0" y="0" flags="0x0"/>
      <component glyphName="caron" x="163" y="145" flags="0x4"/>
    </TTGlyph>
    <TTGlyph name="S" xMin="60" yMin="-7" xMax="544" yMax="704">
      <contour>
        <pt x="544" y="145" on="0"/>
        <pt x="487" y="51" on="0"/>
        <pt x="377" y="-7" on="0"/>
        <pt x="303" y="-7" on="1"/>
        <pt x="196" y="-7" on="0"/>
        <pt x="60" y="95" on="0"/>
        <pt x="60" y="185" on="1"/>
        <pt x="182" y="185" on="1"/>
        <pt x="186" y="139" on="0"/>
        <pt x="246" y="85" on="0"/>
        <pt x="303" y="85" on="1"/>
        <pt x="362" y="85" on="0"/>
        <pt x="429" y="145" on="0"/>
        <pt x="429" y="192" on="1"/>
        <pt x="429" y="229" on="0"/>
        <pt x="388" y="272" on="0"/>
        <pt x="326" y="295" on="0"/>
        <pt x="272" y="308" on="1"/>
        <pt x="204" y="324" on="0"/>
        <pt x="120" y="359" on="0"/>
        <pt x="60" y="436" on="0"/>
        <pt x="60" y="502" on="1"/>
        <pt x="60" y="562" on="0"/>
        <pt x="120" y="654" on="0"/>
        <pt x="228" y="704" on="0"/>
        <pt x="298" y="704" on="1"/>
        <pt x="400" y="704" on="0"/>
        <pt x="525" y="608" on="0"/>
        <pt x="532" y="517" on="1"/>
        <pt x="406" y="517" on="1"/>
        <pt x="402" y="557" on="0"/>
        <pt x="342" y="611" on="0"/>
        <pt x="292" y="611" on="1"/>
        <pt x="240" y="611" on="0"/>
        <pt x="176" y="559" on="0"/>
        <pt x="176" y="508" on="1"/>
        <pt x="176" y="471" on="0"/>
        <pt x="217" y="426" on="0"/>
        <pt x="279" y="403" on="0"/>
        <pt x="334" y="390" on="1"/>
        <pt x="401" y="374" on="0"/>
        <pt x="485" y="339" on="0"/>
        <pt x="544" y="264" on="0"/>
        <pt x="544" y="198" on="1"/>
      </contour>
    </TTGlyph>
    <TTGlyph name="Sacute" xMin="60" yMin="-7" xMax="544" yMax="941">
      <component glyphName="S" x="0" y="0" flags="0x0"/>
      <component glyphName="acute" x="174" y="145" flags="0x4"/>
    </TTGlyph>
    <TTGlyph name="Scaron" xMin="60" yMin="-7" xMax="544" yMax="913">
      <component glyphName="S" x="0" y="0" flags="0x0"/>
      <component glyphName="caron" x="149" y="145" flags="0x4"/>
    </TTGlyph>
    <TTGlyph name="T" xMin="39" yMin="0" xMax="524" yMax="695">
      <contour>
        <pt x="524" y="695" on="1"/>
        <pt x="524" y="606" on="1"/>
        <pt x="339" y="606" on="1"/>
        <pt x="339" y="0" on="1"/>
        <pt x="225" y="0" on="1"/>
        <pt x="225" y="606" on="1"/>
        <pt x="39" y="606" on="1"/>
        <pt x="39" y="695" on="1"/>
      </contour>
    </TTGlyph>
    <TTGlyph name="Tcaron" xMin="39" yMin="0" xMax="524" yMax="913">
      <component glyphName="T" x="0" y="0" flags="0x0"/>
      <component glyphName="caron" x="129" y="145" flags="0x4"/>
    </TTGlyph>
    <TTGlyph name="Thorn" xMin="75" yMin="0" xMax="561" yMax="696">
      <contour>
        <pt x="189" y="142" on="1"/>
        <pt x="189" y="0" on="1"/>
        <pt x="75" y="0" on="1"/>
        <pt x="75" y="696" on="1"/>
        <pt x="188" y="696" on="1"/>
        <pt x="188" y="555" on="1"/>
        <pt x="315" y="555" on="1"/>
        <pt x="395" y="555" on="0"/>
        <pt x="506" y="500" on="0"/>
        <pt x="561" y="406" on="0"/>
        <pt x="561" y="348" on="1"/>
        <pt x="561" y="295" on="0"/>
        <pt x="511" y="201" on="0"/>
        <pt x="401" y="142" on="0"/>
        <pt x="315" y="142" on="1"/>
      </contour>
      <contour>
        <pt x="380" y="231" on="0"/>
        <pt x="444" y="293" on="0"/>
        <pt x="444" y="348" on="1"/>
        <pt x="444" y="403" on="0"/>
        <pt x="380" y="466" on="0"/>
        <pt x="315" y="466" on="1"/>
        <pt x="189" y="466" on="1"/>
        <pt x="189" y="231" on="1"/>
        <pt x="315" y="231" on="1"/>
      </contour>
    </TTGlyph>
    <TTGlyph name="U" xMin="74" yMin="-7" xMax="617" yMax="695">
      <contour>
        <pt x="188" y="695" on="1"/>
        <pt x="188" y="254" on="1"/>
        <pt x="188" y="175" on="0"/>
        <pt x="271" y="95" on="0"/>
        <pt x="345" y="95" on="1"/>
        <pt x="420" y="95" on="0"/>
        <pt x="503" y="175" on="0"/>
        <pt x="503" y="254" on="1"/>
        <pt x="503" y="695" on="1"/>
        <pt x="617" y="695" on="1"/>
        <pt x="617" y="254" on="1"/>
        <pt x="617" y="169" on="0"/>
        <pt x="543" y="51" on="0"/>
        <pt x="419" y="-7" on="0"/>
        <pt x="344" y="-7" on="1"/>
        <pt x="269" y="-7" on="0"/>
        <pt x="146" y="51" on="0"/>
        <pt x="74" y="169" on="0"/>
        <pt x="74" y="254" on="1"/>
        <pt x="74" y="695" on="1"/>
      </contour>
    </TTGlyph>
    <TTGlyph name="Uacute" xMin="74" yMin="-7" xMax="617" yMax="941">
      <component glyphName="U" x="0" y="0" flags="0x0"/>
      <component glyphName="acute" x="217" y="145" flags="0x4"/>
    </TTGlyph>
    <TTGlyph name="Ucircumflex" xMin="74" yMin="-7" xMax="617" yMax="913">
      <component glyphName="U" x="0" y="0" flags="0x0"/>
      <component glyphName="circumflex" x="192" y="145" flags="0x4"/>
    </TTGlyph>
    <TTGlyph name="Udieresis" xMin="74" yMin="-7" xMax="617" yMax="885">
      <component glyphName="U" x="0" y="0" flags="0x0"/>
      <component glyphName="dieresis" x="189" y="145" flags="0x4"/>
    </TTGlyph>
    <TTGlyph name="Ugrave" xMin="74" yMin="-7" xMax="617" yMax="941">
      <component glyphName="U" x="0" y="0" flags="0x0"/>
      <component glyphName="grave" x="217" y="145" flags="0x4"/>
    </TTGlyph>
    <TTGlyph name="Uhungarumlaut" xMin="74" yMin="-7" xMax="617" yMax="916">
      <component glyphName="U" x="0" y="0" flags="0x0"/>
      <component glyphName="hungarumlaut" x="207" y="145" flags="0x4"/>
    </TTGlyph>
    <TTGlyph name="Umacron" xMin="74" yMin="-7" xMax="617" yMax="865">
      <component glyphName="U" x="0" y="0" flags="0x0"/>
      <component glyphName="macron" x="152" y="145" flags="0x4"/>
    </TTGlyph>
    <TTGlyph name="Uogonek" xMin="74" yMin="-145" xMax="617" yMax="695">
      <contour>
        <pt x="188" y="695" on="1"/>
        <pt x="188" y="254" on="1"/>
        <pt x="188" y="175" on="0"/>
        <pt x="271" y="95" on="0"/>
        <pt x="345" y="95" on="1"/>
        <pt x="420" y="95" on="0"/>
        <pt x="503" y="175" on="0"/>
        <pt x="503" y="254" on="1"/>
        <pt x="503" y="695" on="1"/>
        <pt x="617" y="695" on="1"/>
        <pt x="617" y="254" on="1"/>
        <pt x="617" y="149" on="0"/>
        <pt x="513" y="27" on="0"/>
        <pt x="440" y="6" on="1"/>
        <pt x="406" y="-3" on="0"/>
        <pt x="380" y="-21" on="0"/>
        <pt x="380" y="-37" on="1"/>
        <pt x="380" y="-74" on="0"/>
        <pt x="428" y="-74" on="1"/>
        <pt x="520" y="-74" on="1"/>
        <pt x="520" y="-145" on="1"/>
        <pt x="414" y="-145" on="1"/>
        <pt x="359" y="-145" on="0"/>
        <pt x="286" y="-86" on="0"/>
        <pt x="286" y="-36" on="1"/>
        <pt x="286" y="-18" on="0"/>
        <pt x="292" y="-3" on="1"/>
        <pt x="195" y="11" on="0"/>
        <pt x="74" y="143" on="0"/>
        <pt x="74" y="254" on="1"/>
        <pt x="74" y="695" on="1"/>
      </contour>
    </TTGlyph>
    <TTGlyph name="Uring" xMin="74" yMin="-7" xMax="617" yMax="969">
      <component glyphName="U" x="0" y="0" flags="0x0"/>
      <component glyphName="ring" x="226" y="145" flags="0x4"/>
    </TTGlyph>
    <TTGlyph name="V" xMin="19" yMin="0" xMax="674" yMax="695">
      <contour>
        <pt x="141" y="695" on="1"/>
        <pt x="346" y="118" on="1"/>
        <pt x="553" y="695" on="1"/>
        <pt x="674" y="695" on="1"/>
        <pt x="413" y="0" on="1"/>
        <pt x="281" y="0" on="1"/>
        <pt x="19" y="695" on="1"/>
      </contour>
    </TTGlyph>
    <TTGlyph name="W" xMin="19" yMin="-1" xMax="980" yMax="695">
      <contour>
        <pt x="980" y="695" on="1"/>
        <pt x="774" y="0" on="1"/>
        <pt x="645" y="0" on="1"/>
        <pt x="499" y="526" on="1"/>
        <pt x="344" y="0" on="1"/>
        <pt x="216" y="-1" on="1"/>
        <pt x="19" y="695" on="1"/>
        <pt x="140" y="695" on="1"/>
        <pt x="284" y="129" on="1"/>
        <pt x="440" y="695" on="1"/>
        <pt x="568" y="695" on="1"/>
        <pt x="713" y="132" on="1"/>
        <pt x="858" y="695" on="1"/>
      </contour>
    </TTGlyph>
    <TTGlyph name="X" xMin="50" yMin="0" xMax="611" yMax="695">
      <contour>
        <pt x="394" y="347" on="1"/>
        <pt x="610" y="0" on="1"/>
        <pt x="482" y="0" on="1"/>
        <pt x="325" y="252" on="1"/>
        <pt x="178" y="0" on="1"/>
        <pt x="50" y="0" on="1"/>
        <pt x="266" y="347" on="1"/>
        <pt x="50" y="695" on="1"/>
        <pt x="178" y="695" on="1"/>
        <pt x="335" y="442" on="1"/>
        <pt x="483" y="695" on="1"/>
        <pt x="611" y="695" on="1"/>
      </contour>
    </TTGlyph>
    <TTGlyph name="Y" xMin="15" yMin="0" xMax="590" yMax="695">
      <contour>
        <pt x="590" y="695" on="1"/>
        <pt x="360" y="252" on="1"/>
        <pt x="360" y="0" on="1"/>
        <pt x="246" y="0" on="1"/>
        <pt x="246" y="252" on="1"/>
        <pt x="15" y="695" on="1"/>
        <pt x="142" y="695" on="1"/>
        <pt x="302" y="356" on="1"/>
        <pt x="462" y="695" on="1"/>
      </contour>
    </TTGlyph>
    <TTGlyph name="Yacute" xMin="15" yMin="0" xMax="590" yMax="941">
      <component glyphName="Y" x="0" y="0" flags="0x0"/>
      <component glyphName="acute" x="175" y="145" flags="0x4"/>
    </TTGlyph>
    <TTGlyph name="Ydieresis" xMin="15" yMin="0" xMax="590" yMax="885">
      <component glyphName="Y" x="0" y="0" flags="0x0"/>
      <component glyphName="dieresis" x="147" y="145" flags="0x4"/>
    </TTGlyph>
    <TTGlyph name="Z" xMin="50" yMin="0" xMax="508" yMax="695">
      <contour>
        <pt x="181" y="89" on="1"/>
        <pt x="508" y="89" on="1"/>
        <pt x="508" y="0" on="1"/>
        <pt x="50" y="0" on="1"/>
        <pt x="50" y="89" on="1"/>
        <pt x="376" y="606" on="1"/>
        <pt x="50" y="606" on="1"/>
        <pt x="50" y="695" on="1"/>
        <pt x="508" y="695" on="1"/>
        <pt x="508" y="606" on="1"/>
      </contour>
    </TTGlyph>
    <TTGlyph name="Zacute" xMin="50" yMin="0" xMax="508" yMax="941">
      <component glyphName="Z" x="0" y="0" flags="0x0"/>
      <component glyphName="acute" x="151" y="145" flags="0x4"/>
    </TTGlyph>
    <TTGlyph name="Zcaron" xMin="50" yMin="0" xMax="508" yMax="913">
      <component glyphName="Z" x="0" y="0" flags="0x0"/>
      <component glyphName="caron" x="126" y="145" flags="0x4"/>
    </TTGlyph>
    <TTGlyph name="Zdotaccent" xMin="50" yMin="0" xMax="508" yMax="885">
      <component glyphName="Z" x="0" y="0" flags="0x0"/>
      <component glyphName="dotaccent" x="209" y="145" flags="0x4"/>
    </TTGlyph>
    <TTGlyph name="a" xMin="37" yMin="-9" xMax="603" yMax="560">
      <contour>
        <pt x="362" y="560" on="0"/>
        <pt x="461" y="501" on="0"/>
        <pt x="488" y="453" on="1"/>
        <pt x="488" y="551" on="1"/>
        <pt x="603" y="551" on="1"/>
        <pt x="603" y="0" on="1"/>
        <pt x="488" y="0" on="1"/>
        <pt x="488" y="103" on="1"/>
        <pt x="460" y="52" on="0"/>
        <pt x="362" y="-9" on="0"/>
        <pt x="297" y="-9" on="1"/>
        <pt x="225" y="-9" on="0"/>
        <pt x="106" y="64" on="0"/>
        <pt x="37" y="195" on="0"/>
        <pt x="37" y="278" on="1"/>
        <pt x="37" y="361" on="0"/>
        <pt x="106" y="489" on="0"/>
        <pt x="225" y="560" on="0"/>
        <pt x="297" y="560" on="1"/>
      </contour>
      <contour>
        <pt x="277" y="461" on="0"/>
        <pt x="201" y="418" on="0"/>
        <pt x="154" y="335" on="0"/>
        <pt x="154" y="278" on="1"/>
        <pt x="154" y="221" on="0"/>
        <pt x="201" y="135" on="0"/>
        <pt x="278" y="90" on="0"/>
        <pt x="321" y="90" on="1"/>
        <pt x="365" y="90" on="0"/>
        <pt x="441" y="134" on="0"/>
        <pt x="488" y="219" on="0"/>
        <pt x="488" y="276" on="1"/>
        <pt x="488" y="333" on="0"/>
        <pt x="441" y="417" on="0"/>
        <pt x="365" y="461" on="0"/>
        <pt x="321" y="461" on="1"/>
      </contour>
    </TTGlyph>
    <TTGlyph name="aacute" xMin="37" yMin="-9" xMax="603" yMax="796">
      <component glyphName="a" x="0" y="0" flags="0x0"/>
      <component glyphName="acute" x="211" y="0" flags="0x0"/>
    </TTGlyph>
    <TTGlyph name="abreve" xMin="37" yMin="-9" xMax="603" yMax="769">
      <component glyphName="a" x="0" y="0" flags="0x0"/>
      <component glyphName="breve" x="179" y="0" flags="0x0"/>
    </TTGlyph>
    <TTGlyph name="acircumflex" xMin="37" yMin="-9" xMax="603" yMax="768">
      <component glyphName="a" x="0" y="0" flags="0x0"/>
      <component glyphName="circumflex" x="186" y="0" flags="0x0"/>
    </TTGlyph>
    <TTGlyph name="acute" xMin="10" yMin="590" xMax="231" yMax="796">
      <contour>
        <pt x="231" y="699" on="1"/>
        <pt x="10" y="590" on="1"/>
        <pt x="10" y="674" on="1"/>
        <pt x="231" y="796" on="1"/>
      </contour>
    </TTGlyph>
    <TTGlyph name="adieresis" xMin="37" yMin="-9" xMax="603" yMax="740">
      <component glyphName="a" x="0" y="0" flags="0x0"/>
      <component glyphName="dieresis" x="183" y="0" flags="0x0"/>
    </TTGlyph>
    <TTGlyph name="ae" xMin="37" yMin="-9" xMax="1051" yMax="560">
      <contour>
        <pt x="1051" y="262" on="0"/>
        <pt x="1047" y="237" on="1"/>
        <pt x="616" y="237" on="1"/>
        <pt x="622" y="190" on="0"/>
        <pt x="670" y="122" on="0"/>
        <pt x="739" y="87" on="0"/>
        <pt x="777" y="87" on="1"/>
        <pt x="827" y="87" on="0"/>
        <pt x="894" y="129" on="0"/>
        <pt x="909" y="164" on="1"/>
        <pt x="1033" y="164" on="1"/>
        <pt x="1008" y="88" on="0"/>
        <pt x="882" y="-9" on="0"/>
        <pt x="792" y="-9" on="1"/>
        <pt x="732" y="-9" on="0"/>
        <pt x="629" y="45" on="0"/>
        <pt x="601" y="90" on="1"/>
        <pt x="601" y="0" on="1"/>
        <pt x="487" y="0" on="1"/>
        <pt x="487" y="90" on="1"/>
        <pt x="457" y="45" on="0"/>
        <pt x="358" y="-9" on="0"/>
        <pt x="297" y="-9" on="1"/>
        <pt x="225" y="-9" on="0"/>
        <pt x="106" y="64" on="0"/>
        <pt x="37" y="195" on="0"/>
        <pt x="37" y="278" on="1"/>
        <pt x="37" y="361" on="0"/>
        <pt x="106" y="490" on="0"/>
        <pt x="228" y="560" on="0"/>
        <pt x="303" y="560" on="1"/>
        <pt x="425" y="560" on="0"/>
        <pt x="487" y="467" on="1"/>
        <pt x="487" y="551" on="1"/>
        <pt x="601" y="551" on="1"/>
        <pt x="601" y="467" on="1"/>
        <pt x="638" y="517" on="0"/>
        <pt x="731" y="560" on="0"/>
        <pt x="792" y="560" on="1"/>
        <pt x="867" y="560" on="0"/>
        <pt x="985" y="491" on="0"/>
        <pt x="1051" y="368" on="0"/>
        <pt x="1051" y="291" on="1"/>
      </contour>
      <contour>
        <pt x="933" y="315" on="1"/>
        <pt x="932" y="383" on="0"/>
        <pt x="846" y="464" on="0"/>
        <pt x="779" y="464" on="1"/>
        <pt x="717" y="464" on="0"/>
        <pt x="624" y="381" on="0"/>
        <pt x="616" y="315" on="1"/>
      </contour>
      <contour>
        <pt x="365" y="90" on="0"/>
        <pt x="441" y="134" on="0"/>
        <pt x="488" y="219" on="0"/>
        <pt x="488" y="276" on="1"/>
        <pt x="488" y="333" on="0"/>
        <pt x="441" y="417" on="0"/>
        <pt x="365" y="461" on="0"/>
        <pt x="321" y="461" on="1"/>
        <pt x="277" y="461" on="0"/>
        <pt x="201" y="418" on="0"/>
        <pt x="154" y="335" on="0"/>
        <pt x="154" y="278" on="1"/>
        <pt x="154" y="221" on="0"/>
        <pt x="201" y="135" on="0"/>
        <pt x="278" y="90" on="0"/>
        <pt x="321" y="90" on="1"/>
      </contour>
    </TTGlyph>
    <TTGlyph name="agrave" xMin="37" yMin="-9" xMax="603" yMax="796">
      <component glyphName="a" x="0" y="0" flags="0x0"/>
      <component glyphName="grave" x="211" y="0" flags="0x0"/>
    </TTGlyph>
    <TTGlyph name="amacron" xMin="37" yMin="-9" xMax="603" yMax="720">
      <component glyphName="a" x="0" y="0" flags="0x0"/>
      <component glyphName="macron" x="146" y="0" flags="0x0"/>
    </TTGlyph>
    <TTGlyph name="ampersand" xMin="36" yMin="-8" xMax="666" yMax="740">
      <contour>
        <pt x="530" y="0" on="1"/>
        <pt x="439" y="123" on="1"/>
        <pt x="418" y="66" on="0"/>
        <pt x="312" y="-8" on="0"/>
        <pt x="246" y="-8" on="1"/>
        <pt x="188" y="-8" on="0"/>
        <pt x="92" y="46" on="0"/>
        <pt x="36" y="143" on="0"/>
        <pt x="36" y="203" on="1"/>
        <pt x="36" y="262" on="0"/>
        <pt x="90" y="357" on="0"/>
        <pt x="180" y="410" on="0"/>
        <pt x="233" y="410" on="1"/>
        <pt x="216" y="418" on="1"/>
        <pt x="181" y="465" on="0"/>
        <pt x="149" y="537" on="0"/>
        <pt x="149" y="573" on="1"/>
        <pt x="149" y="617" on="0"/>
        <pt x="193" y="693" on="0"/>
        <pt x="278" y="740" on="0"/>
        <pt x="336" y="740" on="1"/>
        <pt x="394" y="740" on="0"/>
        <pt x="479" y="695" on="0"/>
        <pt x="524" y="622" on="0"/>
        <pt x="524" y="581" on="1"/>
        <pt x="524" y="553" on="0"/>
        <pt x="515" y="530" on="1"/>
        <pt x="403" y="530" on="1"/>
        <pt x="411" y="548" on="0"/>
        <pt x="411" y="570" on="1"/>
        <pt x="411" y="602" on="0"/>
        <pt x="369" y="644" on="0"/>
        <pt x="336" y="644" on="1"/>
        <pt x="304" y="644" on="0"/>
        <pt x="263" y="602" on="0"/>
        <pt x="263" y="571" on="1"/>
        <pt x="263" y="550" on="0"/>
        <pt x="279" y="510" on="0"/>
        <pt x="301" y="482" on="1"/>
        <pt x="666" y="0" on="1"/>
      </contour>
      <contour>
        <pt x="293" y="86" on="0"/>
        <pt x="358" y="155" on="0"/>
        <pt x="358" y="204" on="1"/>
        <pt x="358" y="253" on="0"/>
        <pt x="293" y="321" on="0"/>
        <pt x="247" y="321" on="1"/>
        <pt x="200" y="321" on="0"/>
        <pt x="137" y="253" on="0"/>
        <pt x="137" y="204" on="1"/>
        <pt x="137" y="154" on="0"/>
        <pt x="201" y="86" on="0"/>
        <pt x="247" y="86" on="1"/>
      </contour>
    </TTGlyph>
    <TTGlyph name="aogonek" xMin="37" yMin="-205" xMax="637" yMax="560">
      <contour>
        <pt x="637" y="-133" on="1"/>
        <pt x="637" y="-205" on="1"/>
        <pt x="531" y="-205" on="1"/>
        <pt x="476" y="-205" on="0"/>
        <pt x="403" y="-146" on="0"/>
        <pt x="403" y="-96" on="1"/>
        <pt x="403" y="-57" on="0"/>
        <pt x="449" y="-5" on="0"/>
        <pt x="488" y="4" on="1"/>
        <pt x="488" y="103" on="1"/>
        <pt x="460" y="52" on="0"/>
        <pt x="362" y="-9" on="0"/>
        <pt x="297" y="-9" on="1"/>
        <pt x="225" y="-9" on="0"/>
        <pt x="106" y="64" on="0"/>
        <pt x="37" y="195" on="0"/>
        <pt x="37" y="278" on="1"/>
        <pt x="37" y="361" on="0"/>
        <pt x="106" y="489" on="0"/>
        <pt x="225" y="560" on="0"/>
        <pt x="297" y="560" on="1"/>
        <pt x="362" y="560" on="0"/>
        <pt x="461" y="501" on="0"/>
        <pt x="488" y="453" on="1"/>
        <pt x="488" y="551" on="1"/>
        <pt x="603" y="551" on="1"/>
        <pt x="603" y="0" on="1"/>
        <pt x="602" y="0" on="1"/>
        <pt x="602" y="-60" on="1"/>
        <pt x="553" y="-60" on="1"/>
        <pt x="524" y="-60" on="0"/>
        <pt x="497" y="-75" on="0"/>
        <pt x="497" y="-96" on="1"/>
        <pt x="497" y="-117" on="0"/>
        <pt x="525" y="-133" on="0"/>
        <pt x="553" y="-133" on="1"/>
      </contour>
      <contour>
        <pt x="365" y="90" on="0"/>
        <pt x="441" y="134" on="0"/>
        <pt x="488" y="219" on="0"/>
        <pt x="488" y="276" on="1"/>
        <pt x="488" y="333" on="0"/>
        <pt x="441" y="417" on="0"/>
        <pt x="365" y="461" on="0"/>
        <pt x="321" y="461" on="1"/>
        <pt x="277" y="461" on="0"/>
        <pt x="201" y="418" on="0"/>
        <pt x="154" y="335" on="0"/>
        <pt x="154" y="278" on="1"/>
        <pt x="154" y="221" on="0"/>
        <pt x="201" y="135" on="0"/>
        <pt x="278" y="90" on="0"/>
        <pt x="321" y="90" on="1"/>
      </contour>
    </TTGlyph>
    <TTGlyph name="approxequal" xMin="36" yMin="178" xMax="517" yMax="567">
      <component glyphName="asciitilde" x="0" y="-58" flags="0x4"/>
      <component glyphName="asciitilde" x="0" y="164" flags="0x4"/>
    </TTGlyph>
    <TTGlyph name="aring" xMin="37" yMin="-9" xMax="603" yMax="824">
      <component glyphName="a" x="0" y="0" flags="0x0"/>
      <component glyphName="ring" x="220" y="0" flags="0x0"/>
    </TTGlyph>
    <TTGlyph name="asciicircum" xMin="36" yMin="168" xMax="619" yMax="696">
      <contour>
        <pt x="154" y="168" on="1"/>
        <pt x="36" y="168" on="1"/>
        <pt x="273" y="696" on="1"/>
        <pt x="381" y="696" on="1"/>
        <pt x="619" y="168" on="1"/>
        <pt x="500" y="168" on="1"/>
        <pt x="328" y="558" on="1"/>
      </contour>
    </TTGlyph>
    <TTGlyph name="asciitilde" xMin="36" yMin="236" xMax="517" yMax="403">
      <contour>
        <pt x="223" y="403" on="0"/>
        <pt x="266" y="385" on="0"/>
        <pt x="294" y="367" on="1"/>
        <pt x="319" y="352" on="0"/>
        <pt x="348" y="338" on="0"/>
        <pt x="366" y="338" on="1"/>
        <pt x="391" y="338" on="0"/>
        <pt x="430" y="371" on="0"/>
        <pt x="434" y="401" on="1"/>
        <pt x="517" y="401" on="1"/>
        <pt x="502" y="317" on="0"/>
        <pt x="419" y="236" on="0"/>
        <pt x="357" y="236" on="1"/>
        <pt x="329" y="236" on="0"/>
        <pt x="287" y="254" on="0"/>
        <pt x="259" y="272" on="1"/>
        <pt x="237" y="287" on="0"/>
        <pt x="205" y="301" on="0"/>
        <pt x="187" y="301" on="1"/>
        <pt x="161" y="301" on="0"/>
        <pt x="122" y="268" on="0"/>
        <pt x="118" y="238" on="1"/>
        <pt x="36" y="238" on="1"/>
        <pt x="51" y="322" on="0"/>
        <pt x="133" y="403" on="0"/>
        <pt x="195" y="403" on="1"/>
      </contour>
    </TTGlyph>
    <TTGlyph name="asterisk" xMin="63" yMin="360" xMax="437" yMax="736">
      <contour>
        <pt x="392" y="679" on="1"/>
        <pt x="437" y="599" on="1"/>
        <pt x="300" y="548" on="1"/>
        <pt x="437" y="497" on="1"/>
        <pt x="391" y="415" on="1"/>
        <pt x="277" y="505" on="1"/>
        <pt x="298" y="360" on="1"/>
        <pt x="206" y="360" on="1"/>
        <pt x="225" y="505" on="1"/>
        <pt x="111" y="413" on="1"/>
        <pt x="63" y="498" on="1"/>
        <pt x="199" y="549" on="1"/>
        <pt x="63" y="598" on="1"/>
        <pt x="109" y="680" on="1"/>
        <pt x="226" y="590" on="1"/>
        <pt x="206" y="736" on="1"/>
        <pt x="299" y="736" on="1"/>
        <pt x="277" y="590" on="1"/>
      </contour>
    </TTGlyph>
    <TTGlyph name="at" xMin="49" yMin="-256" xMax="1143" yMax="793">
      <contour>
        <pt x="810" y="793" on="0"/>
        <pt x="1024" y="686" on="0"/>
        <pt x="1143" y="490" on="0"/>
        <pt x="1143" y="359" on="1"/>
        <pt x="1143" y="257" on="0"/>
        <pt x="1061" y="88" on="0"/>
        <pt x="930" y="-9" on="0"/>
        <pt x="860" y="-9" on="1"/>
        <pt x="797" y="-9" on="0"/>
        <pt x="734" y="59" on="0"/>
        <pt x="732" y="114" on="1"/>
        <pt x="658" y="-9" on="0"/>
        <pt x="530" y="-9" on="1"/>
        <pt x="470" y="-9" on="0"/>
        <pt x="370" y="51" on="0"/>
        <pt x="313" y="161" on="0"/>
        <pt x="313" y="231" on="1"/>
        <pt x="313" y="254" on="0"/>
        <pt x="316" y="279" on="1"/>
        <pt x="328" y="361" on="0"/>
        <pt x="419" y="489" on="0"/>
        <pt x="554" y="559" on="0"/>
        <pt x="630" y="559" on="1"/>
        <pt x="697" y="559" on="0"/>
        <pt x="800" y="503" on="0"/>
        <pt x="857" y="402" on="0"/>
        <pt x="857" y="337" on="1"/>
        <pt x="857" y="315" on="0"/>
        <pt x="854" y="292" on="1"/>
        <pt x="832" y="143" on="1"/>
        <pt x="831" y="138" on="0"/>
        <pt x="831" y="130" on="1"/>
        <pt x="831" y="110" on="0"/>
        <pt x="851" y="89" on="0"/>
        <pt x="869" y="89" on="1"/>
        <pt x="903" y="89" on="0"/>
        <pt x="976" y="158" on="0"/>
        <pt x="1025" y="282" on="0"/>
        <pt x="1025" y="360" on="1"/>
        <pt x="1025" y="462" on="0"/>
        <pt x="937" y="616" on="0"/>
        <pt x="769" y="701" on="0"/>
        <pt x="654" y="701" on="1"/>
        <pt x="514" y="701" on="0"/>
        <pt x="292" y="571" on="0"/>
        <pt x="166" y="348" on="0"/>
        <pt x="166" y="213" on="1"/>
        <pt x="166" y="96" on="0"/>
        <pt x="266" y="-72" on="0"/>
        <pt x="451" y="-161" on="0"/>
        <pt x="578" y="-164" on="1"/>
        <pt x="555" y="-256" on="1"/>
        <pt x="406" y="-253" on="0"/>
        <pt x="177" y="-140" on="0"/>
        <pt x="49" y="70" on="0"/>
        <pt x="49" y="213" on="1"/>
        <pt x="49" y="378" on="0"/>
        <pt x="211" y="643" on="0"/>
        <pt x="495" y="793" on="0"/>
        <pt x="669" y="793" on="1"/>
      </contour>
      <contour>
        <pt x="599" y="89" on="0"/>
        <pt x="677" y="137" on="0"/>
        <pt x="732" y="222" on="0"/>
        <pt x="740" y="276" on="1"/>
        <pt x="742" y="288" on="0"/>
        <pt x="742" y="310" on="1"/>
        <pt x="742" y="354" on="0"/>
        <pt x="707" y="423" on="0"/>
        <pt x="648" y="461" on="0"/>
        <pt x="612" y="461" on="1"/>
        <pt x="571" y="461" on="0"/>
        <pt x="493" y="413" on="0"/>
        <pt x="438" y="328" on="0"/>
        <pt x="430" y="275" on="1"/>
        <pt x="427" y="257" on="0"/>
        <pt x="427" y="241" on="1"/>
        <pt x="427" y="173" on="0"/>
        <pt x="502" y="89" on="0"/>
        <pt x="558" y="89" on="1"/>
      </contour>
    </TTGlyph>
    <TTGlyph name="atilde" xMin="37" yMin="-9" xMax="603" yMax="725">
      <component glyphName="a" x="0" y="0" flags="0x0"/>
      <component glyphName="tilde" x="166" y="0" flags="0x0"/>
    </TTGlyph>
    <TTGlyph name="b" xMin="75" yMin="-9" xMax="640" yMax="740">
      <contour>
        <pt x="453" y="560" on="0"/>
        <pt x="572" y="489" on="0"/>
        <pt x="640" y="361" on="0"/>
        <pt x="640" y="278" on="1"/>
        <pt x="640" y="195" on="0"/>
        <pt x="572" y="64" on="0"/>
        <pt x="453" y="-9" on="0"/>
        <pt x="381" y="-9" on="1"/>
        <pt x="316" y="-9" on="0"/>
        <pt x="218" y="52" on="0"/>
        <pt x="189" y="103" on="1"/>
        <pt x="189" y="0" on="1"/>
        <pt x="75" y="0" on="1"/>
        <pt x="75" y="740" on="1"/>
        <pt x="189" y="740" on="1"/>
        <pt x="189" y="453" on="1"/>
        <pt x="217" y="501" on="0"/>
        <pt x="316" y="560" on="0"/>
        <pt x="381" y="560" on="1"/>
      </contour>
      <contour>
        <pt x="313" y="461" on="0"/>
        <pt x="236" y="417" on="0"/>
        <pt x="189" y="333" on="0"/>
        <pt x="189" y="276" on="1"/>
        <pt x="189" y="219" on="0"/>
        <pt x="236" y="134" on="0"/>
        <pt x="313" y="90" on="0"/>
        <pt x="356" y="90" on="1"/>
        <pt x="400" y="90" on="0"/>
        <pt x="477" y="135" on="0"/>
        <pt x="524" y="221" on="0"/>
        <pt x="524" y="278" on="1"/>
        <pt x="524" y="335" on="0"/>
        <pt x="477" y="418" on="0"/>
        <pt x="400" y="461" on="0"/>
        <pt x="356" y="461" on="1"/>
      </contour>
    </TTGlyph>
    <TTGlyph name="backslash" xMin="164" yMin="-175" xMax="576" yMax="944">
      <contour>
        <pt x="464" y="-175" on="1"/>
        <pt x="164" y="944" on="1"/>
        <pt x="276" y="944" on="1"/>
        <pt x="576" y="-175" on="1"/>
      </contour>
    </TTGlyph>
    <TTGlyph name="bar" xMin="105" yMin="-113" xMax="219" yMax="801">
      <contour>
        <pt x="219" y="-113" on="1"/>
        <pt x="105" y="-113" on="1"/>
        <pt x="105" y="801" on="1"/>
        <pt x="219" y="801" on="1"/>
      </contour>
    </TTGlyph>
    <TTGlyph name="braceleft" xMin="126" yMin="-217" xMax="450" yMax="961">
      <contour>
        <pt x="335" y="350" on="0"/>
        <pt x="335" y="241" on="1"/>
        <pt x="335" y="217" on="0"/>
        <pt x="329" y="165" on="0"/>
        <pt x="328" y="156" on="1"/>
        <pt x="319" y="100" on="0"/>
        <pt x="319" y="49" on="1"/>
        <pt x="319" y="-50" on="0"/>
        <pt x="390" y="-179" on="0"/>
        <pt x="450" y="-201" on="1"/>
        <pt x="450" y="-217" on="1"/>
        <pt x="335" y="-217" on="1"/>
        <pt x="208" y="-160" on="0"/>
        <pt x="208" y="32" on="1"/>
        <pt x="208" y="74" on="0"/>
        <pt x="217" y="132" on="1"/>
        <pt x="225" y="192" on="0"/>
        <pt x="225" y="227" on="1"/>
        <pt x="225" y="270" on="0"/>
        <pt x="182" y="340" on="0"/>
        <pt x="126" y="349" on="1"/>
        <pt x="126" y="395" on="1"/>
        <pt x="182" y="404" on="0"/>
        <pt x="225" y="473" on="0"/>
        <pt x="225" y="517" on="1"/>
        <pt x="225" y="552" on="0"/>
        <pt x="217" y="612" on="1"/>
        <pt x="208" y="670" on="0"/>
        <pt x="208" y="712" on="1"/>
        <pt x="208" y="904" on="0"/>
        <pt x="335" y="961" on="1"/>
        <pt x="450" y="961" on="1"/>
        <pt x="450" y="945" on="1"/>
        <pt x="390" y="923" on="0"/>
        <pt x="319" y="794" on="0"/>
        <pt x="319" y="695" on="1"/>
        <pt x="319" y="644" on="0"/>
        <pt x="328" y="588" on="1"/>
        <pt x="329" y="579" on="0"/>
        <pt x="335" y="527" on="0"/>
        <pt x="335" y="503" on="1"/>
        <pt x="335" y="452" on="0"/>
        <pt x="284" y="384" on="0"/>
        <pt x="231" y="373" on="1"/>
        <pt x="231" y="371" on="1"/>
      </contour>
    </TTGlyph>
    <TTGlyph name="braceright" xMin="94" yMin="-217" xMax="418" yMax="961">
      <contour>
        <pt x="260" y="384" on="0"/>
        <pt x="208" y="452" on="0"/>
        <pt x="208" y="503" on="1"/>
        <pt x="208" y="527" on="0"/>
        <pt x="214" y="579" on="0"/>
        <pt x="215" y="588" on="1"/>
        <pt x="224" y="644" on="0"/>
        <pt x="224" y="695" on="1"/>
        <pt x="224" y="794" on="0"/>
        <pt x="154" y="923" on="0"/>
        <pt x="94" y="945" on="1"/>
        <pt x="94" y="961" on="1"/>
        <pt x="209" y="961" on="1"/>
        <pt x="335" y="905" on="0"/>
        <pt x="335" y="712" on="1"/>
        <pt x="335" y="670" on="0"/>
        <pt x="326" y="612" on="1"/>
        <pt x="318" y="552" on="0"/>
        <pt x="318" y="517" on="1"/>
        <pt x="318" y="473" on="0"/>
        <pt x="361" y="404" on="0"/>
        <pt x="418" y="395" on="1"/>
        <pt x="418" y="349" on="1"/>
        <pt x="361" y="340" on="0"/>
        <pt x="318" y="270" on="0"/>
        <pt x="318" y="227" on="1"/>
        <pt x="318" y="192" on="0"/>
        <pt x="326" y="132" on="1"/>
        <pt x="335" y="74" on="0"/>
        <pt x="335" y="32" on="1"/>
        <pt x="335" y="-161" on="0"/>
        <pt x="209" y="-217" on="1"/>
        <pt x="94" y="-217" on="1"/>
        <pt x="94" y="-201" on="1"/>
        <pt x="154" y="-179" on="0"/>
        <pt x="224" y="-50" on="0"/>
        <pt x="224" y="49" on="1"/>
        <pt x="224" y="100" on="0"/>
        <pt x="215" y="156" on="1"/>
        <pt x="214" y="165" on="0"/>
        <pt x="208" y="217" on="0"/>
        <pt x="208" y="241" on="1"/>
        <pt x="208" y="350" on="0"/>
        <pt x="313" y="371" on="1"/>
        <pt x="313" y="373" on="1"/>
      </contour>
    </TTGlyph>
    <TTGlyph name="bracketleft" xMin="148" yMin="-176" xMax="356" yMax="944">
      <contour>
        <pt x="356" y="944" on="1"/>
        <pt x="356" y="850" on="1"/>
        <pt x="255" y="850" on="1"/>
        <pt x="255" y="-81" on="1"/>
        <pt x="356" y="-81" on="1"/>
        <pt x="356" y="-176" on="1"/>
        <pt x="148" y="-176" on="1"/>
        <pt x="148" y="944" on="1"/>
      </contour>
    </TTGlyph>
    <TTGlyph name="bracketright" xMin="128" yMin="-176" xMax="336" yMax="944">
      <contour>
        <pt x="128" y="-176" on="1"/>
        <pt x="128" y="-81" on="1"/>
        <pt x="230" y="-81" on="1"/>
        <pt x="230" y="850" on="1"/>
        <pt x="128" y="850" on="1"/>
        <pt x="128" y="944" on="1"/>
        <pt x="336" y="944" on="1"/>
        <pt x="336" y="-176" on="1"/>
      </contour>
    </TTGlyph>
    <TTGlyph name="breve" xMin="10" yMin="608" xMax="311" yMax="769">
      <contour>
        <pt x="90" y="608" on="0"/>
        <pt x="10" y="685" on="0"/>
        <pt x="10" y="748" on="1"/>
        <pt x="10" y="769" on="1"/>
        <pt x="75" y="769" on="1"/>
        <pt x="75" y="733" on="0"/>
        <pt x="113" y="697" on="0"/>
        <pt x="160" y="697" on="1"/>
        <pt x="207" y="697" on="0"/>
        <pt x="245" y="733" on="0"/>
        <pt x="245" y="769" on="1"/>
        <pt x="311" y="769" on="1"/>
        <pt x="311" y="747" on="1"/>
        <pt x="311" y="684" on="0"/>
        <pt x="230" y="608" on="0"/>
        <pt x="160" y="608" on="1"/>
      </contour>
    </TTGlyph>
    <TTGlyph name="brokenbar" xMin="105" yMin="-113" xMax="219" yMax="801">
      <contour>
        <pt x="105" y="801" on="1"/>
        <pt x="219" y="801" on="1"/>
        <pt x="219" y="413" on="1"/>
        <pt x="105" y="413" on="1"/>
      </contour>
      <contour>
        <pt x="219" y="-113" on="1"/>
        <pt x="105" y="-113" on="1"/>
        <pt x="105" y="275" on="1"/>
        <pt x="219" y="275" on="1"/>
      </contour>
    </TTGlyph>
    <TTGlyph name="bullet" xMin="100" yMin="203" xMax="362" yMax="464">
      <contour>
        <pt x="100" y="388" on="0"/>
        <pt x="176" y="464" on="0"/>
        <pt x="230" y="464" on="1"/>
        <pt x="286" y="464" on="0"/>
        <pt x="362" y="388" on="0"/>
        <pt x="362" y="333" on="1"/>
        <pt x="362" y="278" on="0"/>
        <pt x="286" y="203" on="0"/>
        <pt x="230" y="203" on="1"/>
        <pt x="194" y="203" on="0"/>
        <pt x="135" y="238" on="0"/>
        <pt x="100" y="297" on="0"/>
        <pt x="100" y="333" on="1"/>
      </contour>
    </TTGlyph>
    <TTGlyph name="c" xMin="37" yMin="-9" xMax="561" yMax="560">
      <contour>
        <pt x="407" y="560" on="0"/>
        <pt x="538" y="465" on="0"/>
        <pt x="561" y="377" on="1"/>
        <pt x="438" y="377" on="1"/>
        <pt x="423" y="418" on="0"/>
        <pt x="357" y="464" on="0"/>
        <pt x="307" y="464" on="1"/>
        <pt x="237" y="464" on="0"/>
        <pt x="154" y="365" on="0"/>
        <pt x="154" y="276" on="1"/>
        <pt x="154" y="187" on="0"/>
        <pt x="237" y="87" on="0"/>
        <pt x="307" y="87" on="1"/>
        <pt x="406" y="87" on="0"/>
        <pt x="438" y="174" on="1"/>
        <pt x="561" y="174" on="1"/>
        <pt x="537" y="90" on="0"/>
        <pt x="405" y="-9" on="0"/>
        <pt x="307" y="-9" on="1"/>
        <pt x="228" y="-9" on="0"/>
        <pt x="106" y="62" on="0"/>
        <pt x="37" y="191" on="0"/>
        <pt x="37" y="276" on="1"/>
        <pt x="37" y="361" on="0"/>
        <pt x="106" y="490" on="0"/>
        <pt x="228" y="560" on="0"/>
        <pt x="307" y="560" on="1"/>
      </contour>
    </TTGlyph>
    <TTGlyph name="cacute" xMin="37" yMin="-9" xMax="561" yMax="796">
      <component glyphName="c" x="0" y="0" flags="0x0"/>
      <component glyphName="acute" x="172" y="0" flags="0x0"/>
    </TTGlyph>
    <TTGlyph name="caron" xMin="10" yMin="596" xMax="296" yMax="768">
      <contour>
        <pt x="296" y="679" on="1"/>
        <pt x="153" y="596" on="1"/>
        <pt x="10" y="679" on="1"/>
        <pt x="10" y="768" on="1"/>
        <pt x="153" y="682" on="1"/>
        <pt x="296" y="768" on="1"/>
      </contour>
    </TTGlyph>
    <TTGlyph name="ccaron" xMin="37" yMin="-9" xMax="561" yMax="768">
      <component glyphName="c" x="0" y="0" flags="0x0"/>
      <component glyphName="caron" x="147" y="0" flags="0x0"/>
    </TTGlyph>
    <TTGlyph name="ccedilla" xMin="37" yMin="-262" xMax="561" yMax="560">
      <contour>
        <pt x="406" y="87" on="0"/>
        <pt x="438" y="174" on="1"/>
        <pt x="561" y="174" on="1"/>
        <pt x="539" y="98" on="0"/>
        <pt x="426" y="1" on="0"/>
        <pt x="341" y="-7" on="1"/>
        <pt x="341" y="-48" on="1"/>
        <pt x="399" y="-48" on="0"/>
        <pt x="471" y="-103" on="0"/>
        <pt x="471" y="-153" on="1"/>
        <pt x="471" y="-203" on="0"/>
        <pt x="399" y="-262" on="0"/>
        <pt x="344" y="-262" on="1"/>
        <pt x="212" y="-262" on="1"/>
        <pt x="212" y="-190" on="1"/>
        <pt x="321" y="-190" on="1"/>
        <pt x="349" y="-190" on="0"/>
        <pt x="377" y="-174" on="0"/>
        <pt x="377" y="-153" on="1"/>
        <pt x="377" y="-132" on="0"/>
        <pt x="349" y="-116" on="0"/>
        <pt x="321" y="-116" on="1"/>
        <pt x="266" y="-116" on="1"/>
        <pt x="266" y="-6" on="1"/>
        <pt x="198" y="2" on="0"/>
        <pt x="94" y="77" on="0"/>
        <pt x="37" y="198" on="0"/>
        <pt x="37" y="276" on="1"/>
        <pt x="37" y="361" on="0"/>
        <pt x="106" y="490" on="0"/>
        <pt x="228" y="560" on="0"/>
        <pt x="307" y="560" on="1"/>
        <pt x="407" y="560" on="0"/>
        <pt x="538" y="465" on="0"/>
        <pt x="561" y="377" on="1"/>
        <pt x="438" y="377" on="1"/>
        <pt x="423" y="418" on="0"/>
        <pt x="357" y="464" on="0"/>
        <pt x="307" y="464" on="1"/>
        <pt x="237" y="464" on="0"/>
        <pt x="154" y="365" on="0"/>
        <pt x="154" y="276" on="1"/>
        <pt x="154" y="187" on="0"/>
        <pt x="237" y="87" on="0"/>
        <pt x="307" y="87" on="1"/>
      </contour>
    </TTGlyph>
    <TTGlyph name="cedilla" xMin="10" yMin="-262" xMax="269" yMax="7">
      <contour>
        <pt x="197" y="-48" on="0"/>
        <pt x="269" y="-103" on="0"/>
        <pt x="269" y="-153" on="1"/>
        <pt x="269" y="-203" on="0"/>
        <pt x="197" y="-262" on="0"/>
        <pt x="142" y="-262" on="1"/>
        <pt x="10" y="-262" on="1"/>
        <pt x="10" y="-190" on="1"/>
        <pt x="119" y="-190" on="1"/>
        <pt x="147" y="-190" on="0"/>
        <pt x="175" y="-174" on="0"/>
        <pt x="175" y="-153" on="1"/>
        <pt x="175" y="-132" on="0"/>
        <pt x="147" y="-116" on="0"/>
        <pt x="119" y="-116" on="1"/>
        <pt x="64" y="-116" on="1"/>
        <pt x="64" y="7" on="1"/>
        <pt x="139" y="7" on="1"/>
        <pt x="139" y="-48" on="1"/>
      </contour>
    </TTGlyph>
    <TTGlyph name="cent" xMin="66" yMin="-88" xMax="565" yMax="607">
      <contour>
        <pt x="383" y="92" on="0"/>
        <pt x="447" y="135" on="0"/>
        <pt x="459" y="174" on="1"/>
        <pt x="565" y="174" on="1"/>
        <pt x="557" y="104" on="0"/>
        <pt x="447" y="8" on="0"/>
        <pt x="361" y="-1" on="1"/>
        <pt x="361" y="-88" on="1"/>
        <pt x="296" y="-88" on="1"/>
        <pt x="296" y="-1" on="1"/>
        <pt x="185" y="9" on="0"/>
        <pt x="66" y="153" on="0"/>
        <pt x="66" y="259" on="1"/>
        <pt x="66" y="365" on="0"/>
        <pt x="185" y="510" on="0"/>
        <pt x="296" y="520" on="1"/>
        <pt x="296" y="607" on="1"/>
        <pt x="361" y="607" on="1"/>
        <pt x="361" y="520" on="1"/>
        <pt x="447" y="511" on="0"/>
        <pt x="557" y="415" on="0"/>
        <pt x="565" y="345" on="1"/>
        <pt x="459" y="345" on="1"/>
        <pt x="447" y="384" on="0"/>
        <pt x="383" y="427" on="0"/>
        <pt x="329" y="427" on="1"/>
        <pt x="258" y="427" on="0"/>
        <pt x="174" y="337" on="0"/>
        <pt x="174" y="259" on="1"/>
        <pt x="174" y="181" on="0"/>
        <pt x="258" y="92" on="0"/>
        <pt x="329" y="92" on="1"/>
      </contour>
    </TTGlyph>
    <TTGlyph name="circumflex" xMin="10" yMin="596" xMax="296" yMax="768">
      <contour>
        <pt x="153" y="682" on="1"/>
        <pt x="10" y="596" on="1"/>
        <pt x="10" y="685" on="1"/>
        <pt x="153" y="768" on="1"/>
        <pt x="296" y="685" on="1"/>
        <pt x="296" y="596" on="1"/>
      </contour>
    </TTGlyph>
    <TTGlyph name="colon" xMin="80" yMin="0" xMax="217" yMax="556">
      <contour>
        <pt x="80" y="516" on="0"/>
        <pt x="120" y="556" on="0"/>
        <pt x="148" y="556" on="1"/>
        <pt x="177" y="556" on="0"/>
        <pt x="217" y="516" on="0"/>
        <pt x="217" y="487" on="1"/>
        <pt x="217" y="458" on="0"/>
        <pt x="177" y="419" on="0"/>
        <pt x="148" y="419" on="1"/>
        <pt x="120" y="419" on="0"/>
        <pt x="80" y="459" on="0"/>
        <pt x="80" y="487" on="1"/>
      </contour>
      <contour>
        <pt x="80" y="97" on="0"/>
        <pt x="119" y="137" on="0"/>
        <pt x="148" y="137" on="1"/>
        <pt x="177" y="137" on="0"/>
        <pt x="217" y="97" on="0"/>
        <pt x="217" y="68" on="1"/>
        <pt x="217" y="39" on="0"/>
        <pt x="177" y="0" on="0"/>
        <pt x="148" y="0" on="1"/>
        <pt x="120" y="0" on="0"/>
        <pt x="80" y="40" on="0"/>
        <pt x="80" y="68" on="1"/>
      </contour>
    </TTGlyph>
    <TTGlyph name="comma" xMin="36" yMin="-155" xMax="162" yMax="78">
      <contour>
        <pt x="162" y="14" on="0"/>
        <pt x="162" y="-29" on="1"/>
        <pt x="162" y="-89" on="0"/>
        <pt x="104" y="-155" on="0"/>
        <pt x="45" y="-155" on="1"/>
        <pt x="45" y="-105" on="1"/>
        <pt x="70" y="-105" on="0"/>
        <pt x="93" y="-81" on="0"/>
        <pt x="93" y="-53" on="1"/>
        <pt x="93" y="-32" on="1"/>
        <pt x="36" y="-32" on="1"/>
        <pt x="36" y="78" on="1"/>
        <pt x="144" y="78" on="1"/>
      </contour>
    </TTGlyph>
    <TTGlyph name="copyright" xMin="46" yMin="-9" xMax="743" yMax="704">
      <contour>
        <pt x="293" y="704" on="0"/>
        <pt x="134" y="613" on="0"/>
        <pt x="46" y="451" on="0"/>
        <pt x="46" y="348" on="1"/>
        <pt x="46" y="245" on="0"/>
        <pt x="134" y="82" on="0"/>
        <pt x="293" y="-9" on="0"/>
        <pt x="395" y="-9" on="1"/>
        <pt x="497" y="-9" on="0"/>
        <pt x="655" y="82" on="0"/>
        <pt x="743" y="245" on="0"/>
        <pt x="743" y="348" on="1"/>
        <pt x="743" y="451" on="0"/>
        <pt x="655" y="613" on="0"/>
        <pt x="497" y="704" on="0"/>
        <pt x="395" y="704" on="1"/>
      </contour>
      <contour>
        <pt x="486" y="659" on="0"/>
        <pt x="620" y="582" on="0"/>
        <pt x="693" y="442" on="0"/>
        <pt x="693" y="348" on="1"/>
        <pt x="693" y="255" on="0"/>
        <pt x="620" y="114" on="0"/>
        <pt x="485" y="36" on="0"/>
        <pt x="395" y="36" on="1"/>
        <pt x="304" y="36" on="0"/>
        <pt x="169" y="114" on="0"/>
        <pt x="96" y="255" on="0"/>
        <pt x="96" y="348" on="1"/>
        <pt x="96" y="442" on="0"/>
        <pt x="169" y="582" on="0"/>
        <pt x="304" y="659" on="0"/>
        <pt x="395" y="659" on="1"/>
      </contour>
      <contour>
        <pt x="470" y="578" on="0"/>
        <pt x="578" y="501" on="0"/>
        <pt x="597" y="431" on="1"/>
        <pt x="493" y="431" on="1"/>
        <pt x="483" y="463" on="0"/>
        <pt x="430" y="497" on="0"/>
        <pt x="392" y="497" on="1"/>
        <pt x="339" y="497" on="0"/>
        <pt x="275" y="421" on="0"/>
        <pt x="275" y="349" on="1"/>
        <pt x="275" y="277" on="0"/>
        <pt x="339" y="200" on="0"/>
        <pt x="392" y="200" on="1"/>
        <pt x="432" y="200" on="0"/>
        <pt x="480" y="234" on="0"/>
        <pt x="493" y="266" on="1"/>
        <pt x="597" y="266" on="1"/>
        <pt x="578" y="200" on="0"/>
        <pt x="468" y="119" on="0"/>
        <pt x="392" y="119" on="1"/>
        <pt x="331" y="119" on="0"/>
        <pt x="232" y="176" on="0"/>
        <pt x="174" y="281" on="0"/>
        <pt x="174" y="349" on="1"/>
        <pt x="174" y="417" on="0"/>
        <pt x="231" y="521" on="0"/>
        <pt x="331" y="578" on="0"/>
        <pt x="392" y="578" on="1"/>
      </contour>
    </TTGlyph>
    <TTGlyph name="currency" xMin="60" yMin="164" xMax="488" yMax="592">
      <contour>
        <pt x="460" y="317" on="0"/>
        <pt x="429" y="274" on="1"/>
        <pt x="488" y="215" on="1"/>
        <pt x="438" y="164" on="1"/>
        <pt x="376" y="225" on="1"/>
        <pt x="332" y="199" on="0"/>
        <pt x="272" y="199" on="1"/>
        <pt x="215" y="199" on="0"/>
        <pt x="171" y="224" on="1"/>
        <pt x="111" y="164" on="1"/>
        <pt x="60" y="215" on="1"/>
        <pt x="118" y="274" on="1"/>
        <pt x="89" y="317" on="0"/>
        <pt x="89" y="377" on="1"/>
        <pt x="89" y="439" on="0"/>
        <pt x="120" y="482" on="1"/>
        <pt x="60" y="541" on="1"/>
        <pt x="111" y="592" on="1"/>
        <pt x="173" y="530" on="1"/>
        <pt x="218" y="555" on="0"/>
        <pt x="274" y="555" on="1"/>
        <pt x="331" y="555" on="0"/>
        <pt x="376" y="530" on="1"/>
        <pt x="438" y="592" on="1"/>
        <pt x="488" y="541" on="1"/>
        <pt x="429" y="482" on="1"/>
        <pt x="460" y="437" on="0"/>
        <pt x="460" y="377" on="1"/>
      </contour>
      <contour>
        <pt x="312" y="266" on="0"/>
        <pt x="369" y="324" on="0"/>
        <pt x="369" y="377" on="1"/>
        <pt x="369" y="430" on="0"/>
        <pt x="313" y="489" on="0"/>
        <pt x="273" y="489" on="1"/>
        <pt x="233" y="489" on="0"/>
        <pt x="179" y="430" on="0"/>
        <pt x="179" y="377" on="1"/>
        <pt x="179" y="324" on="0"/>
        <pt x="232" y="266" on="0"/>
        <pt x="272" y="266" on="1"/>
      </contour>
    </TTGlyph>
    <TTGlyph name="d" xMin="37" yMin="-9" xMax="603" yMax="740">
      <contour>
        <pt x="362" y="560" on="0"/>
        <pt x="461" y="501" on="0"/>
        <pt x="488" y="453" on="1"/>
        <pt x="488" y="740" on="1"/>
        <pt x="603" y="740" on="1"/>
        <pt x="603" y="0" on="1"/>
        <pt x="488" y="0" on="1"/>
        <pt x="488" y="103" on="1"/>
        <pt x="460" y="52" on="0"/>
        <pt x="362" y="-9" on="0"/>
        <pt x="297" y="-9" on="1"/>
        <pt x="225" y="-9" on="0"/>
        <pt x="106" y="64" on="0"/>
        <pt x="37" y="195" on="0"/>
        <pt x="37" y="278" on="1"/>
        <pt x="37" y="361" on="0"/>
        <pt x="106" y="489" on="0"/>
        <pt x="225" y="560" on="0"/>
        <pt x="297" y="560" on="1"/>
      </contour>
      <contour>
        <pt x="277" y="461" on="0"/>
        <pt x="201" y="418" on="0"/>
        <pt x="154" y="335" on="0"/>
        <pt x="154" y="278" on="1"/>
        <pt x="154" y="221" on="0"/>
        <pt x="201" y="135" on="0"/>
        <pt x="278" y="90" on="0"/>
        <pt x="321" y="90" on="1"/>
        <pt x="365" y="90" on="0"/>
        <pt x="441" y="134" on="0"/>
        <pt x="488" y="219" on="0"/>
        <pt x="488" y="276" on="1"/>
        <pt x="488" y="333" on="0"/>
        <pt x="441" y="417" on="0"/>
        <pt x="365" y="461" on="0"/>
        <pt x="321" y="461" on="1"/>
      </contour>
    </TTGlyph>
    <TTGlyph name="dagger" xMin="49" yMin="-262" xMax="535" yMax="783">
      <contour>
        <pt x="535" y="462" on="1"/>
        <pt x="337" y="472" on="1"/>
        <pt x="349" y="-262" on="1"/>
        <pt x="235" y="-262" on="1"/>
        <pt x="247" y="472" on="1"/>
        <pt x="49" y="462" on="1"/>
        <pt x="49" y="551" on="1"/>
        <pt x="247" y="541" on="1"/>
        <pt x="235" y="783" on="1"/>
        <pt x="349" y="783" on="1"/>
        <pt x="337" y="541" on="1"/>
        <pt x="535" y="551" on="1"/>
      </contour>
    </TTGlyph>
    <TTGlyph name="daggerdbl" xMin="50" yMin="-262" xMax="535" yMax="783">
      <contour>
        <pt x="337" y="472" on="1"/>
        <pt x="337" y="50" on="1"/>
        <pt x="535" y="60" on="1"/>
        <pt x="535" y="-29" on="1"/>
        <pt x="337" y="-19" on="1"/>
        <pt x="349" y="-262" on="1"/>
        <pt x="235" y="-262" on="1"/>
        <pt x="247" y="-19" on="1"/>
        <pt x="50" y="-29" on="1"/>
        <pt x="50" y="60" on="1"/>
        <pt x="247" y="50" on="1"/>
        <pt x="247" y="472" on="1"/>
        <pt x="50" y="462" on="1"/>
        <pt x="50" y="551" on="1"/>
        <pt x="247" y="541" on="1"/>
        <pt x="235" y="783" on="1"/>
        <pt x="349" y="783" on="1"/>
        <pt x="337" y="541" on="1"/>
        <pt x="535" y="551" on="1"/>
        <pt x="535" y="462" on="1"/>
      </contour>
    </TTGlyph>
    <TTGlyph name="dcaron" xMin="37" yMin="-9" xMax="771" yMax="740">
      <contour>
        <pt x="362" y="560" on="0"/>
        <pt x="461" y="501" on="0"/>
        <pt x="488" y="453" on="1"/>
        <pt x="488" y="740" on="1"/>
        <pt x="603" y="740" on="1"/>
        <pt x="603" y="0" on="1"/>
        <pt x="488" y="0" on="1"/>
        <pt x="488" y="103" on="1"/>
        <pt x="460" y="52" on="0"/>
        <pt x="362" y="-9" on="0"/>
        <pt x="297" y="-9" on="1"/>
        <pt x="225" y="-9" on="0"/>
        <pt x="106" y="64" on="0"/>
        <pt x="37" y="195" on="0"/>
        <pt x="37" y="278" on="1"/>
        <pt x="37" y="361" on="0"/>
        <pt x="106" y="489" on="0"/>
        <pt x="225" y="560" on="0"/>
        <pt x="297" y="560" on="1"/>
      </contour>
      <contour>
        <pt x="771" y="682" on="0"/>
        <pt x="771" y="640" on="1"/>
        <pt x="771" y="516" on="0"/>
        <pt x="658" y="516" on="1"/>
        <pt x="658" y="566" on="1"/>
        <pt x="707" y="566" on="0"/>
        <pt x="707" y="622" on="1"/>
        <pt x="707" y="643" on="1"/>
        <pt x="654" y="643" on="1"/>
        <pt x="654" y="740" on="1"/>
        <pt x="757" y="740" on="1"/>
      </contour>
      <contour>
        <pt x="277" y="461" on="0"/>
        <pt x="201" y="418" on="0"/>
        <pt x="154" y="335" on="0"/>
        <pt x="154" y="278" on="1"/>
        <pt x="154" y="221" on="0"/>
        <pt x="201" y="135" on="0"/>
        <pt x="278" y="90" on="0"/>
        <pt x="321" y="90" on="1"/>
        <pt x="365" y="90" on="0"/>
        <pt x="441" y="134" on="0"/>
        <pt x="488" y="219" on="0"/>
        <pt x="488" y="276" on="1"/>
        <pt x="488" y="333" on="0"/>
        <pt x="441" y="417" on="0"/>
        <pt x="365" y="461" on="0"/>
        <pt x="321" y="461" on="1"/>
      </contour>
    </TTGlyph>
    <TTGlyph name="dcroat" xMin="37" yMin="-9" xMax="662" yMax="740">
      <contour>
        <pt x="662" y="590" on="1"/>
        <pt x="603" y="590" on="1"/>
        <pt x="603" y="0" on="1"/>
        <pt x="488" y="0" on="1"/>
        <pt x="488" y="103" on="1"/>
        <pt x="460" y="52" on="0"/>
        <pt x="362" y="-9" on="0"/>
        <pt x="297" y="-9" on="1"/>
        <pt x="225" y="-9" on="0"/>
        <pt x="106" y="64" on="0"/>
        <pt x="37" y="195" on="0"/>
        <pt x="37" y="278" on="1"/>
        <pt x="37" y="361" on="0"/>
        <pt x="106" y="489" on="0"/>
        <pt x="225" y="560" on="0"/>
        <pt x="297" y="560" on="1"/>
        <pt x="362" y="560" on="0"/>
        <pt x="461" y="501" on="0"/>
        <pt x="488" y="453" on="1"/>
        <pt x="488" y="590" on="1"/>
        <pt x="406" y="590" on="1"/>
        <pt x="406" y="656" on="1"/>
        <pt x="488" y="656" on="1"/>
        <pt x="488" y="740" on="1"/>
        <pt x="603" y="740" on="1"/>
        <pt x="603" y="656" on="1"/>
        <pt x="662" y="656" on="1"/>
      </contour>
      <contour>
        <pt x="365" y="90" on="0"/>
        <pt x="441" y="134" on="0"/>
        <pt x="488" y="219" on="0"/>
        <pt x="488" y="276" on="1"/>
        <pt x="488" y="333" on="0"/>
        <pt x="441" y="417" on="0"/>
        <pt x="365" y="461" on="0"/>
        <pt x="321" y="461" on="1"/>
        <pt x="277" y="461" on="0"/>
        <pt x="201" y="418" on="0"/>
        <pt x="154" y="335" on="0"/>
        <pt x="154" y="278" on="1"/>
        <pt x="154" y="221" on="0"/>
        <pt x="201" y="135" on="0"/>
        <pt x="278" y="90" on="0"/>
        <pt x="321" y="90" on="1"/>
      </contour>
    </TTGlyph>
    <TTGlyph name="degree" xMin="28" yMin="347" xMax="399" yMax="702">
      <contour>
        <pt x="267" y="702" on="0"/>
        <pt x="351" y="659" on="0"/>
        <pt x="399" y="578" on="0"/>
        <pt x="399" y="525" on="1"/>
        <pt x="399" y="472" on="0"/>
        <pt x="350" y="391" on="0"/>
        <pt x="264" y="347" on="0"/>
        <pt x="211" y="347" on="1"/>
        <pt x="129" y="347" on="0"/>
        <pt x="28" y="445" on="0"/>
        <pt x="28" y="525" on="1"/>
        <pt x="28" y="605" on="0"/>
        <pt x="132" y="702" on="0"/>
        <pt x="214" y="702" on="1"/>
      </contour>
      <contour>
        <pt x="173" y="637" on="0"/>
        <pt x="118" y="578" on="0"/>
        <pt x="118" y="525" on="1"/>
        <pt x="118" y="471" on="0"/>
        <pt x="171" y="414" on="0"/>
        <pt x="211" y="414" on="1"/>
        <pt x="251" y="414" on="0"/>
        <pt x="308" y="472" on="0"/>
        <pt x="308" y="525" on="1"/>
        <pt x="308" y="578" on="0"/>
        <pt x="252" y="637" on="0"/>
        <pt x="212" y="637" on="1"/>
      </contour>
    </TTGlyph>
    <TTGlyph name="dieresis" xMin="10" yMin="620" xMax="302" yMax="740">
      <contour>
        <pt x="10" y="705" on="0"/>
        <pt x="45" y="740" on="0"/>
        <pt x="70" y="740" on="1"/>
        <pt x="95" y="740" on="0"/>
        <pt x="130" y="705" on="0"/>
        <pt x="130" y="680" on="1"/>
        <pt x="130" y="655" on="0"/>
        <pt x="95" y="620" on="0"/>
        <pt x="70" y="620" on="1"/>
        <pt x="45" y="620" on="0"/>
        <pt x="10" y="655" on="0"/>
        <pt x="10" y="680" on="1"/>
      </contour>
      <contour>
        <pt x="182" y="705" on="0"/>
        <pt x="217" y="740" on="0"/>
        <pt x="242" y="740" on="1"/>
        <pt x="267" y="740" on="0"/>
        <pt x="302" y="705" on="0"/>
        <pt x="302" y="680" on="1"/>
        <pt x="302" y="655" on="0"/>
        <pt x="267" y="620" on="0"/>
        <pt x="242" y="620" on="1"/>
        <pt x="217" y="620" on="0"/>
        <pt x="182" y="655" on="0"/>
        <pt x="182" y="680" on="1"/>
      </contour>
    </TTGlyph>
    <TTGlyph name="divide" xMin="90" yMin="80" xMax="600" yMax="643">
      <contour>
        <pt x="276" y="603" on="0"/>
        <pt x="317" y="643" on="0"/>
        <pt x="345" y="643" on="1"/>
        <pt x="374" y="643" on="0"/>
        <pt x="414" y="603" on="0"/>
        <pt x="414" y="574" on="1"/>
        <pt x="414" y="546" on="0"/>
        <pt x="374" y="505" on="0"/>
        <pt x="345" y="505" on="1"/>
        <pt x="317" y="505" on="0"/>
        <pt x="276" y="546" on="0"/>
        <pt x="276" y="574" on="1"/>
      </contour>
      <contour>
        <pt x="600" y="412" on="1"/>
        <pt x="600" y="311" on="1"/>
        <pt x="90" y="311" on="1"/>
        <pt x="90" y="412" on="1"/>
      </contour>
      <contour>
        <pt x="276" y="177" on="0"/>
        <pt x="316" y="217" on="0"/>
        <pt x="345" y="217" on="1"/>
        <pt x="374" y="217" on="0"/>
        <pt x="414" y="177" on="0"/>
        <pt x="414" y="148" on="1"/>
        <pt x="414" y="120" on="0"/>
        <pt x="374" y="80" on="0"/>
        <pt x="345" y="80" on="1"/>
        <pt x="316" y="80" on="0"/>
        <pt x="276" y="120" on="0"/>
        <pt x="276" y="148" on="1"/>
      </contour>
    </TTGlyph>
    <TTGlyph name="dollar" xMin="60" yMin="-87" xMax="544" yMax="784">
      <contour>
        <pt x="544" y="148" on="0"/>
        <pt x="494" y="59" on="0"/>
        <pt x="397" y="0" on="0"/>
        <pt x="331" y="-6" on="1"/>
        <pt x="331" y="-87" on="1"/>
        <pt x="274" y="-87" on="1"/>
        <pt x="274" y="-6" on="1"/>
        <pt x="178" y="1" on="0"/>
        <pt x="60" y="102" on="0"/>
        <pt x="60" y="185" on="1"/>
        <pt x="182" y="185" on="1"/>
        <pt x="185" y="145" on="0"/>
        <pt x="231" y="94" on="0"/>
        <pt x="274" y="87" on="1"/>
        <pt x="274" y="307" on="1"/>
        <pt x="205" y="324" on="0"/>
        <pt x="120" y="359" on="0"/>
        <pt x="60" y="436" on="0"/>
        <pt x="60" y="502" on="1"/>
        <pt x="60" y="587" on="0"/>
        <pt x="178" y="695" on="0"/>
        <pt x="274" y="703" on="1"/>
        <pt x="274" y="784" on="1"/>
        <pt x="331" y="784" on="1"/>
        <pt x="331" y="703" on="1"/>
        <pt x="421" y="696" on="0"/>
        <pt x="530" y="601" on="0"/>
        <pt x="537" y="517" on="1"/>
        <pt x="415" y="517" on="1"/>
        <pt x="412" y="549" on="0"/>
        <pt x="367" y="599" on="0"/>
        <pt x="331" y="607" on="1"/>
        <pt x="331" y="391" on="1"/>
        <pt x="400" y="375" on="0"/>
        <pt x="484" y="341" on="0"/>
        <pt x="544" y="264" on="0"/>
        <pt x="544" y="198" on="1"/>
      </contour>
      <contour>
        <pt x="176" y="466" on="0"/>
        <pt x="227" y="420" on="0"/>
        <pt x="274" y="406" on="1"/>
        <pt x="274" y="610" on="1"/>
        <pt x="229" y="604" on="0"/>
        <pt x="176" y="553" on="0"/>
        <pt x="176" y="508" on="1"/>
      </contour>
      <contour>
        <pt x="377" y="94" on="0"/>
        <pt x="429" y="151" on="0"/>
        <pt x="429" y="192" on="1"/>
        <pt x="429" y="232" on="0"/>
        <pt x="378" y="278" on="0"/>
        <pt x="331" y="292" on="1"/>
        <pt x="331" y="87" on="1"/>
      </contour>
    </TTGlyph>
    <TTGlyph name="dotaccent" xMin="10" yMin="620" xMax="130" yMax="740">
      <contour>
        <pt x="10" y="705" on="0"/>
        <pt x="45" y="740" on="0"/>
        <pt x="70" y="740" on="1"/>
        <pt x="95" y="740" on="0"/>
        <pt x="130" y="705" on="0"/>
        <pt x="130" y="680" on="1"/>
        <pt x="130" y="655" on="0"/>
        <pt x="95" y="620" on="0"/>
        <pt x="70" y="620" on="1"/>
        <pt x="45" y="620" on="0"/>
        <pt x="10" y="655" on="0"/>
        <pt x="10" y="680" on="1"/>
      </contour>
    </TTGlyph>
    <TTGlyph name="dotlessi" xMin="75" yMin="0" xMax="189" yMax="551">
      <contour>
        <pt x="189" y="551" on="1"/>
        <pt x="189" y="0" on="1"/>
        <pt x="75" y="0" on="1"/>
        <pt x="75" y="551" on="1"/>
      </contour>
    </TTGlyph>
    <TTGlyph name="e" xMin="37" yMin="-9" xMax="580" yMax="560">
      <contour>
        <pt x="580" y="262" on="0"/>
        <pt x="576" y="237" on="1"/>
        <pt x="154" y="237" on="1"/>
        <pt x="158" y="168" on="0"/>
        <pt x="243" y="87" on="0"/>
        <pt x="307" y="87" on="1"/>
        <pt x="400" y="87" on="0"/>
        <pt x="438" y="164" on="1"/>
        <pt x="561" y="164" on="1"/>
        <pt x="536" y="88" on="0"/>
        <pt x="404" y="-9" on="0"/>
        <pt x="307" y="-9" on="1"/>
        <pt x="228" y="-9" on="0"/>
        <pt x="106" y="62" on="0"/>
        <pt x="37" y="191" on="0"/>
        <pt x="37" y="276" on="1"/>
        <pt x="37" y="361" on="0"/>
        <pt x="106" y="490" on="0"/>
        <pt x="231" y="560" on="0"/>
        <pt x="312" y="560" on="1"/>
        <pt x="390" y="560" on="0"/>
        <pt x="512" y="492" on="0"/>
        <pt x="580" y="370" on="0"/>
        <pt x="580" y="291" on="1"/>
      </contour>
      <contour>
        <pt x="461" y="315" on="1"/>
        <pt x="460" y="383" on="0"/>
        <pt x="372" y="464" on="0"/>
        <pt x="307" y="464" on="1"/>
        <pt x="246" y="464" on="0"/>
        <pt x="161" y="383" on="0"/>
        <pt x="155" y="315" on="1"/>
      </contour>
    </TTGlyph>
    <TTGlyph name="eacute" xMin="37" yMin="-9" xMax="580" yMax="796">
      <component glyphName="e" x="0" y="0" flags="0x0"/>
      <component glyphName="acute" x="180" y="0" flags="0x0"/>
    </TTGlyph>
    <TTGlyph name="ecaron" xMin="37" yMin="-9" xMax="580" yMax="768">
      <component glyphName="e" x="0" y="0" flags="0x0"/>
      <component glyphName="caron" x="155" y="0" flags="0x0"/>
    </TTGlyph>
    <TTGlyph name="ecircumflex" xMin="37" yMin="-9" xMax="580" yMax="768">
      <component glyphName="e" x="0" y="0" flags="0x0"/>
      <component glyphName="circumflex" x="155" y="0" flags="0x0"/>
    </TTGlyph>
    <TTGlyph name="edieresis" xMin="37" yMin="-9" xMax="580" yMax="740">
      <component glyphName="e" x="0" y="0" flags="0x0"/>
      <component glyphName="dieresis" x="153" y="0" flags="0x0"/>
    </TTGlyph>
    <TTGlyph name="edotaccent" xMin="37" yMin="-9" xMax="580" yMax="740">
      <component glyphName="e" x="0" y="0" flags="0x0"/>
      <component glyphName="dotaccent" x="239" y="0" flags="0x0"/>
    </TTGlyph>
    <TTGlyph name="egrave" xMin="37" yMin="-9" xMax="580" yMax="796">
      <component glyphName="e" x="0" y="0" flags="0x0"/>
      <component glyphName="grave" x="180" y="0" flags="0x0"/>
    </TTGlyph>
    <TTGlyph name="eight" xMin="61" yMin="-18" xMax="578" yMax="752">
      <contour>
        <pt x="79" y="609" on="0"/>
        <pt x="133" y="699" on="0"/>
        <pt x="241" y="752" on="0"/>
        <pt x="319" y="752" on="1"/>
        <pt x="396" y="752" on="0"/>
        <pt x="505" y="699" on="0"/>
        <pt x="559" y="609" on="0"/>
        <pt x="559" y="555" on="1"/>
        <pt x="559" y="499" on="0"/>
        <pt x="502" y="414" on="0"/>
        <pt x="455" y="391" on="1"/>
        <pt x="512" y="369" on="0"/>
        <pt x="578" y="273" on="0"/>
        <pt x="578" y="206" on="1"/>
        <pt x="578" y="138" on="0"/>
        <pt x="512" y="37" on="0"/>
        <pt x="394" y="-18" on="0"/>
        <pt x="319" y="-18" on="1"/>
        <pt x="244" y="-18" on="0"/>
        <pt x="127" y="37" on="0"/>
        <pt x="61" y="138" on="0"/>
        <pt x="61" y="206" on="1"/>
        <pt x="61" y="274" on="0"/>
        <pt x="127" y="370" on="0"/>
        <pt x="183" y="391" on="1"/>
        <pt x="79" y="443" on="0"/>
        <pt x="79" y="555" on="1"/>
      </contour>
      <contour>
        <pt x="189" y="490" on="0"/>
        <pt x="262" y="427" on="0"/>
        <pt x="319" y="427" on="1"/>
        <pt x="376" y="427" on="0"/>
        <pt x="450" y="491" on="0"/>
        <pt x="450" y="541" on="1"/>
        <pt x="450" y="597" on="0"/>
        <pt x="380" y="657" on="0"/>
        <pt x="319" y="657" on="1"/>
        <pt x="259" y="657" on="0"/>
        <pt x="189" y="597" on="0"/>
        <pt x="189" y="540" on="1"/>
      </contour>
      <contour>
        <pt x="170" y="150" on="0"/>
        <pt x="250" y="77" on="0"/>
        <pt x="319" y="77" on="1"/>
        <pt x="387" y="77" on="0"/>
        <pt x="466" y="151" on="0"/>
        <pt x="466" y="210" on="1"/>
        <pt x="466" y="273" on="0"/>
        <pt x="386" y="341" on="0"/>
        <pt x="319" y="341" on="1"/>
        <pt x="253" y="341" on="0"/>
        <pt x="170" y="275" on="0"/>
        <pt x="170" y="210" on="1"/>
      </contour>
    </TTGlyph>
    <TTGlyph name="ellipsis" xMin="49" yMin="0" xMax="589" yMax="137">
      <component glyphName="period" x="201" y="0" flags="0x0"/>
      <component glyphName="period" x="403" y="0" flags="0x0"/>
      <component glyphName="period" x="0" y="0" flags="0x0"/>
    </TTGlyph>
    <TTGlyph name="emacron" xMin="37" yMin="-9" xMax="580" yMax="720">
      <component glyphName="e" x="0" y="0" flags="0x0"/>
      <component glyphName="macron" x="116" y="0" flags="0x0"/>
    </TTGlyph>
    <TTGlyph name="emdash" xMin="87" yMin="314" xMax="837" yMax="410">
      <contour>
        <pt x="837" y="410" on="1"/>
        <pt x="837" y="314" on="1"/>
        <pt x="87" y="314" on="1"/>
        <pt x="87" y="410" on="1"/>
      </contour>
    </TTGlyph>
    <TTGlyph name="endash" xMin="87" yMin="314" xMax="622" yMax="410">
      <contour>
        <pt x="622" y="410" on="1"/>
        <pt x="622" y="314" on="1"/>
        <pt x="87" y="314" on="1"/>
        <pt x="87" y="410" on="1"/>
      </contour>
    </TTGlyph>
    <TTGlyph name="eogonek" xMin="37" yMin="-139" xMax="580" yMax="560">
      <contour>
        <pt x="580" y="262" on="0"/>
        <pt x="576" y="237" on="1"/>
        <pt x="154" y="237" on="1"/>
        <pt x="158" y="168" on="0"/>
        <pt x="243" y="87" on="0"/>
        <pt x="307" y="87" on="1"/>
        <pt x="400" y="87" on="0"/>
        <pt x="438" y="164" on="1"/>
        <pt x="561" y="164" on="1"/>
        <pt x="543" y="109" on="0"/>
        <pt x="465" y="29" on="0"/>
        <pt x="414" y="10" on="1"/>
        <pt x="392" y="2" on="0"/>
        <pt x="372" y="-15" on="0"/>
        <pt x="372" y="-30" on="1"/>
        <pt x="372" y="-51" on="0"/>
        <pt x="400" y="-67" on="0"/>
        <pt x="428" y="-67" on="1"/>
        <pt x="512" y="-67" on="1"/>
        <pt x="512" y="-139" on="1"/>
        <pt x="406" y="-139" on="1"/>
        <pt x="351" y="-139" on="0"/>
        <pt x="278" y="-80" on="0"/>
        <pt x="278" y="-30" on="1"/>
        <pt x="278" y="-17" on="0"/>
        <pt x="281" y="-8" on="1"/>
        <pt x="209" y="-2" on="0"/>
        <pt x="99" y="71" on="0"/>
        <pt x="37" y="196" on="0"/>
        <pt x="37" y="276" on="1"/>
        <pt x="37" y="361" on="0"/>
        <pt x="106" y="490" on="0"/>
        <pt x="231" y="560" on="0"/>
        <pt x="312" y="560" on="1"/>
        <pt x="390" y="560" on="0"/>
        <pt x="512" y="492" on="0"/>
        <pt x="580" y="370" on="0"/>
        <pt x="580" y="291" on="1"/>
      </contour>
      <contour>
        <pt x="461" y="315" on="1"/>
        <pt x="460" y="383" on="0"/>
        <pt x="372" y="464" on="0"/>
        <pt x="307" y="464" on="1"/>
        <pt x="246" y="464" on="0"/>
        <pt x="161" y="383" on="0"/>
        <pt x="155" y="315" on="1"/>
      </contour>
    </TTGlyph>
    <TTGlyph name="equal" xMin="121" yMin="197" xMax="653" yMax="525">
      <contour>
        <pt x="653" y="525" on="1"/>
        <pt x="653" y="424" on="1"/>
        <pt x="121" y="424" on="1"/>
        <pt x="121" y="525" on="1"/>
      </contour>
      <contour>
        <pt x="653" y="298" on="1"/>
        <pt x="653" y="197" on="1"/>
        <pt x="121" y="197" on="1"/>
        <pt x="121" y="298" on="1"/>
      </contour>
    </TTGlyph>
    <TTGlyph name="estimated" xMin="43" yMin="-7" xMax="714" yMax="704">
      <contour>
        <pt x="288" y="-7" on="0"/>
        <pt x="132" y="73" on="0"/>
        <pt x="43" y="226" on="0"/>
        <pt x="43" y="332" on="1"/>
        <pt x="43" y="437" on="0"/>
        <pt x="122" y="606" on="0"/>
        <pt x="273" y="704" on="0"/>
        <pt x="378" y="704" on="1"/>
        <pt x="482" y="704" on="0"/>
        <pt x="634" y="613" on="0"/>
        <pt x="714" y="464" on="0"/>
        <pt x="714" y="378" on="1"/>
        <pt x="714" y="316" on="1"/>
        <pt x="194" y="316" on="1"/>
        <pt x="194" y="146" on="1"/>
        <pt x="232" y="105" on="0"/>
        <pt x="325" y="65" on="0"/>
        <pt x="387" y="65" on="1"/>
        <pt x="459" y="65" on="0"/>
        <pt x="578" y="126" on="0"/>
        <pt x="639" y="187" on="1"/>
        <pt x="685" y="136" on="1"/>
        <pt x="552" y="-7" on="0"/>
        <pt x="387" y="-7" on="1"/>
      </contour>
      <contour>
        <pt x="556" y="561" on="1"/>
        <pt x="525" y="596" on="0"/>
        <pt x="434" y="633" on="0"/>
        <pt x="378" y="633" on="1"/>
        <pt x="258" y="633" on="0"/>
        <pt x="194" y="551" on="1"/>
        <pt x="194" y="387" on="1"/>
        <pt x="556" y="387" on="1"/>
      </contour>
    </TTGlyph>
    <TTGlyph name="eth" xMin="37" yMin="-9" xMax="599" yMax="743">
      <contour>
        <pt x="599" y="503" on="0"/>
        <pt x="599" y="317" on="1"/>
        <pt x="599" y="212" on="0"/>
        <pt x="525" y="65" on="0"/>
        <pt x="396" y="-9" on="0"/>
        <pt x="314" y="-9" on="1"/>
        <pt x="235" y="-9" on="0"/>
        <pt x="109" y="62" on="0"/>
        <pt x="37" y="191" on="0"/>
        <pt x="37" y="276" on="1"/>
        <pt x="37" y="361" on="0"/>
        <pt x="110" y="490" on="0"/>
        <pt x="236" y="560" on="0"/>
        <pt x="313" y="560" on="1"/>
        <pt x="358" y="560" on="0"/>
        <pt x="431" y="532" on="0"/>
        <pt x="466" y="503" on="1"/>
        <pt x="438" y="568" on="0"/>
        <pt x="387" y="628" on="1"/>
        <pt x="264" y="588" on="1"/>
        <pt x="264" y="649" on="1"/>
        <pt x="343" y="675" on="1"/>
        <pt x="309" y="707" on="0"/>
        <pt x="269" y="740" on="1"/>
        <pt x="385" y="740" on="1"/>
        <pt x="406" y="722" on="0"/>
        <pt x="426" y="702" on="1"/>
        <pt x="551" y="743" on="1"/>
        <pt x="551" y="682" on="1"/>
        <pt x="470" y="655" on="1"/>
      </contour>
      <contour>
        <pt x="358" y="87" on="0"/>
        <pt x="435" y="131" on="0"/>
        <pt x="482" y="216" on="0"/>
        <pt x="482" y="276" on="1"/>
        <pt x="482" y="336" on="0"/>
        <pt x="436" y="421" on="0"/>
        <pt x="360" y="464" on="0"/>
        <pt x="316" y="464" on="1"/>
        <pt x="272" y="464" on="0"/>
        <pt x="198" y="421" on="0"/>
        <pt x="154" y="336" on="0"/>
        <pt x="154" y="276" on="1"/>
        <pt x="154" y="216" on="0"/>
        <pt x="197" y="130" on="0"/>
        <pt x="270" y="87" on="0"/>
        <pt x="314" y="87" on="1"/>
      </contour>
    </TTGlyph>
    <TTGlyph name="exclam" xMin="148" yMin="0" xMax="285" yMax="749">
      <contour>
        <pt x="274" y="749" on="1"/>
        <pt x="260" y="220" on="1"/>
        <pt x="166" y="220" on="1"/>
        <pt x="153" y="749" on="1"/>
      </contour>
      <contour>
        <pt x="148" y="97" on="0"/>
        <pt x="187" y="137" on="0"/>
        <pt x="216" y="137" on="1"/>
        <pt x="245" y="137" on="0"/>
        <pt x="285" y="97" on="0"/>
        <pt x="285" y="68" on="1"/>
        <pt x="285" y="40" on="0"/>
        <pt x="245" y="0" on="0"/>
        <pt x="216" y="0" on="1"/>
        <pt x="188" y="0" on="0"/>
        <pt x="148" y="40" on="0"/>
        <pt x="148" y="68" on="1"/>
      </contour>
    </TTGlyph>
    <TTGlyph name="exclamdown" xMin="148" yMin="-189" xMax="285" yMax="560">
      <contour>
        <pt x="245" y="560" on="0"/>
        <pt x="285" y="520" on="0"/>
        <pt x="285" y="492" on="1"/>
        <pt x="285" y="463" on="0"/>
        <pt x="245" y="423" on="0"/>
        <pt x="216" y="423" on="1"/>
        <pt x="187" y="423" on="0"/>
        <pt x="148" y="463" on="0"/>
        <pt x="148" y="492" on="1"/>
        <pt x="148" y="521" on="0"/>
        <pt x="188" y="560" on="0"/>
        <pt x="216" y="560" on="1"/>
      </contour>
      <contour>
        <pt x="166" y="340" on="1"/>
        <pt x="260" y="340" on="1"/>
        <pt x="274" y="-189" on="1"/>
        <pt x="153" y="-189" on="1"/>
      </contour>
    </TTGlyph>
    <TTGlyph name="f" xMin="24" yMin="0" xMax="306" yMax="772">
      <contour>
        <pt x="306" y="458" on="1"/>
        <pt x="204" y="458" on="1"/>
        <pt x="204" y="0" on="1"/>
        <pt x="89" y="0" on="1"/>
        <pt x="89" y="458" on="1"/>
        <pt x="24" y="458" on="1"/>
        <pt x="24" y="551" on="1"/>
        <pt x="89" y="551" on="1"/>
        <pt x="89" y="590" on="1"/>
        <pt x="89" y="685" on="0"/>
        <pt x="190" y="772" on="0"/>
        <pt x="298" y="772" on="1"/>
        <pt x="298" y="677" on="1"/>
        <pt x="246" y="677" on="0"/>
        <pt x="204" y="638" on="0"/>
        <pt x="204" y="590" on="1"/>
        <pt x="204" y="551" on="1"/>
        <pt x="306" y="551" on="1"/>
      </contour>
    </TTGlyph>
    <TTGlyph name="fi" xMin="24" yMin="0" xMax="537" yMax="772">
      <contour>
        <pt x="204" y="551" on="1"/>
        <pt x="521" y="551" on="1"/>
        <pt x="521" y="0" on="1"/>
        <pt x="407" y="0" on="1"/>
        <pt x="407" y="458" on="1"/>
        <pt x="204" y="458" on="1"/>
        <pt x="204" y="0" on="1"/>
        <pt x="89" y="0" on="1"/>
        <pt x="89" y="458" on="1"/>
        <pt x="24" y="458" on="1"/>
        <pt x="24" y="551" on="1"/>
        <pt x="89" y="551" on="1"/>
        <pt x="89" y="590" on="1"/>
        <pt x="89" y="685" on="0"/>
        <pt x="190" y="772" on="0"/>
        <pt x="298" y="772" on="1"/>
        <pt x="298" y="677" on="1"/>
        <pt x="246" y="677" on="0"/>
        <pt x="204" y="638" on="0"/>
        <pt x="204" y="590" on="1"/>
      </contour>
      <contour>
        <pt x="434" y="624" on="0"/>
        <pt x="392" y="666" on="0"/>
        <pt x="392" y="697" on="1"/>
        <pt x="392" y="728" on="0"/>
        <pt x="434" y="770" on="0"/>
        <pt x="464" y="770" on="1"/>
        <pt x="495" y="770" on="0"/>
        <pt x="537" y="728" on="0"/>
        <pt x="537" y="697" on="1"/>
        <pt x="537" y="666" on="0"/>
        <pt x="495" y="624" on="0"/>
        <pt x="464" y="624" on="1"/>
      </contour>
    </TTGlyph>
    <TTGlyph name="five" xMin="74" yMin="0" xMax="580" yMax="731">
      <contour>
        <pt x="530" y="631" on="1"/>
        <pt x="195" y="631" on="1"/>
        <pt x="195" y="432" on="1"/>
        <pt x="216" y="460" on="0"/>
        <pt x="299" y="498" on="0"/>
        <pt x="346" y="498" on="1"/>
        <pt x="430" y="498" on="0"/>
        <pt x="535" y="426" on="0"/>
        <pt x="580" y="316" on="0"/>
        <pt x="580" y="255" on="1"/>
        <pt x="580" y="181" on="0"/>
        <pt x="523" y="66" on="0"/>
        <pt x="410" y="0" on="0"/>
        <pt x="328" y="0" on="1"/>
        <pt x="219" y="0" on="0"/>
        <pt x="87" y="108" on="0"/>
        <pt x="74" y="197" on="1"/>
        <pt x="185" y="197" on="1"/>
        <pt x="196" y="150" on="0"/>
        <pt x="272" y="95" on="0"/>
        <pt x="329" y="95" on="1"/>
        <pt x="400" y="95" on="0"/>
        <pt x="471" y="181" on="0"/>
        <pt x="471" y="252" on="1"/>
        <pt x="471" y="324" on="0"/>
        <pt x="399" y="401" on="0"/>
        <pt x="329" y="401" on="1"/>
        <pt x="280" y="401" on="0"/>
        <pt x="213" y="352" on="0"/>
        <pt x="198" y="310" on="1"/>
        <pt x="90" y="310" on="1"/>
        <pt x="90" y="731" on="1"/>
        <pt x="530" y="731" on="1"/>
      </contour>
    </TTGlyph>
    <TTGlyph name="fl" xMin="24" yMin="0" xMax="521" yMax="772">
      <component glyphName="f" x="0" y="0" flags="0x0"/>
      <component glyphName="l" x="332" y="0" flags="0x0"/>
    </TTGlyph>
    <TTGlyph name="florin" xMin="-56" yMin="-217" xMax="319" yMax="772">
      <contour>
        <pt x="257" y="677" on="0"/>
        <pt x="211" y="638" on="0"/>
        <pt x="206" y="590" on="1"/>
        <pt x="202" y="551" on="1"/>
        <pt x="303" y="551" on="1"/>
        <pt x="294" y="458" on="1"/>
        <pt x="192" y="458" on="1"/>
        <pt x="136" y="-64" on="1"/>
        <pt x="128" y="-146" on="0"/>
        <pt x="43" y="-217" on="0"/>
        <pt x="-34" y="-217" on="1"/>
        <pt x="-56" y="-217" on="1"/>
        <pt x="-46" y="-123" on="1"/>
        <pt x="-30" y="-123" on="1"/>
        <pt x="-6" y="-123" on="0"/>
        <pt x="19" y="-95" on="0"/>
        <pt x="22" y="-64" on="1"/>
        <pt x="77" y="458" on="1"/>
        <pt x="12" y="458" on="1"/>
        <pt x="21" y="551" on="1"/>
        <pt x="87" y="551" on="1"/>
        <pt x="91" y="590" on="1"/>
        <pt x="101" y="685" on="0"/>
        <pt x="211" y="772" on="0"/>
        <pt x="319" y="772" on="1"/>
        <pt x="309" y="677" on="1"/>
      </contour>
    </TTGlyph>
    <TTGlyph name="four" xMin="46" yMin="0" xMax="613" yMax="720">
      <contour>
        <pt x="46" y="152" on="1"/>
        <pt x="46" y="238" on="1"/>
        <pt x="382" y="720" on="1"/>
        <pt x="520" y="720" on="1"/>
        <pt x="520" y="251" on="1"/>
        <pt x="613" y="251" on="1"/>
        <pt x="613" y="152" on="1"/>
        <pt x="520" y="152" on="1"/>
        <pt x="520" y="0" on="1"/>
        <pt x="408" y="0" on="1"/>
        <pt x="408" y="152" on="1"/>
      </contour>
      <contour>
        <pt x="413" y="604" on="1"/>
        <pt x="177" y="251" on="1"/>
        <pt x="413" y="251" on="1"/>
      </contour>
    </TTGlyph>
    <TTGlyph name="fraction" xMin="51" yMin="0" xMax="563" yMax="696">
      <contour>
        <pt x="563" y="696" on="1"/>
        <pt x="164" y="0" on="1"/>
        <pt x="51" y="0" on="1"/>
        <pt x="450" y="696" on="1"/>
      </contour>
    </TTGlyph>
    <TTGlyph name="g" xMin="37" yMin="-272" xMax="603" yMax="560">
      <contour>
        <pt x="362" y="560" on="0"/>
        <pt x="461" y="501" on="0"/>
        <pt x="488" y="453" on="1"/>
        <pt x="488" y="551" on="1"/>
        <pt x="603" y="551" on="1"/>
        <pt x="603" y="-9" on="1"/>
        <pt x="603" y="-85" on="0"/>
        <pt x="539" y="-204" on="0"/>
        <pt x="418" y="-272" on="0"/>
        <pt x="334" y="-272" on="1"/>
        <pt x="222" y="-272" on="0"/>
        <pt x="74" y="-167" on="0"/>
        <pt x="64" y="-77" on="1"/>
        <pt x="177" y="-77" on="1"/>
        <pt x="190" y="-120" on="0"/>
        <pt x="275" y="-173" on="0"/>
        <pt x="334" y="-173" on="1"/>
        <pt x="403" y="-173" on="0"/>
        <pt x="488" y="-89" on="0"/>
        <pt x="488" y="-9" on="1"/>
        <pt x="488" y="103" on="1"/>
        <pt x="460" y="52" on="0"/>
        <pt x="362" y="-9" on="0"/>
        <pt x="297" y="-9" on="1"/>
        <pt x="225" y="-9" on="0"/>
        <pt x="106" y="64" on="0"/>
        <pt x="37" y="195" on="0"/>
        <pt x="37" y="278" on="1"/>
        <pt x="37" y="361" on="0"/>
        <pt x="106" y="489" on="0"/>
        <pt x="225" y="560" on="0"/>
        <pt x="297" y="560" on="1"/>
      </contour>
      <contour>
        <pt x="277" y="461" on="0"/>
        <pt x="201" y="418" on="0"/>
        <pt x="154" y="335" on="0"/>
        <pt x="154" y="278" on="1"/>
        <pt x="154" y="221" on="0"/>
        <pt x="201" y="135" on="0"/>
        <pt x="278" y="90" on="0"/>
        <pt x="321" y="90" on="1"/>
        <pt x="365" y="90" on="0"/>
        <pt x="441" y="134" on="0"/>
        <pt x="488" y="219" on="0"/>
        <pt x="488" y="276" on="1"/>
        <pt x="488" y="333" on="0"/>
        <pt x="441" y="417" on="0"/>
        <pt x="365" y="461" on="0"/>
        <pt x="321" y="461" on="1"/>
      </contour>
    </TTGlyph>
    <TTGlyph name="gbreve" xMin="37" yMin="-272" xMax="603" yMax="769">
      <component glyphName="g" x="0" y="0" flags="0x0"/>
      <component glyphName="breve" x="179" y="0" flags="0x0"/>
    </TTGlyph>
    <TTGlyph name="germandbls" xMin="75" yMin="-9" xMax="655" yMax="750">
      <contour>
        <pt x="593" y="341" on="0"/>
        <pt x="655" y="250" on="0"/>
        <pt x="655" y="184" on="1"/>
        <pt x="655" y="127" on="0"/>
        <pt x="598" y="39" on="0"/>
        <pt x="504" y="-9" on="0"/>
        <pt x="451" y="-9" on="1"/>
        <pt x="400" y="-9" on="0"/>
        <pt x="311" y="34" on="0"/>
        <pt x="258" y="117" on="0"/>
        <pt x="258" y="172" on="1"/>
        <pt x="354" y="172" on="1"/>
        <pt x="358" y="134" on="0"/>
        <pt x="406" y="91" on="0"/>
        <pt x="447" y="91" on="1"/>
        <pt x="489" y="91" on="0"/>
        <pt x="538" y="146" on="0"/>
        <pt x="538" y="184" on="1"/>
        <pt x="538" y="216" on="0"/>
        <pt x="502" y="266" on="0"/>
        <pt x="461" y="291" on="1"/>
        <pt x="305" y="387" on="1"/>
        <pt x="305" y="441" on="1"/>
        <pt x="334" y="457" on="1"/>
        <pt x="391" y="488" on="0"/>
        <pt x="391" y="552" on="1"/>
        <pt x="391" y="594" on="0"/>
        <pt x="335" y="651" on="0"/>
        <pt x="292" y="651" on="1"/>
        <pt x="248" y="651" on="0"/>
        <pt x="189" y="592" on="0"/>
        <pt x="189" y="543" on="1"/>
        <pt x="189" y="0" on="1"/>
        <pt x="75" y="0" on="1"/>
        <pt x="75" y="541" on="1"/>
        <pt x="75" y="637" on="0"/>
        <pt x="197" y="750" on="0"/>
        <pt x="297" y="750" on="1"/>
        <pt x="366" y="750" on="0"/>
        <pt x="461" y="701" on="0"/>
        <pt x="508" y="621" on="0"/>
        <pt x="508" y="576" on="1"/>
        <pt x="508" y="534" on="0"/>
        <pt x="466" y="470" on="0"/>
        <pt x="422" y="445" on="1"/>
        <pt x="521" y="385" on="1"/>
      </contour>
    </TTGlyph>
    <TTGlyph name="grave" xMin="10" yMin="590" xMax="231" yMax="796">
      <contour>
        <pt x="231" y="674" on="1"/>
        <pt x="231" y="590" on="1"/>
        <pt x="10" y="699" on="1"/>
        <pt x="10" y="796" on="1"/>
      </contour>
    </TTGlyph>
    <TTGlyph name="greater" xMin="112" yMin="134" xMax="486" yMax="588">
      <contour>
        <pt x="112" y="588" on="1"/>
        <pt x="256" y="588" on="1"/>
        <pt x="486" y="361" on="1"/>
        <pt x="256" y="134" on="1"/>
        <pt x="112" y="134" on="1"/>
        <pt x="343" y="361" on="1"/>
      </contour>
    </TTGlyph>
    <TTGlyph name="greaterequal" xMin="85" yMin="67" xMax="465" yMax="588">
      <contour>
        <pt x="85" y="208" on="1"/>
        <pt x="313" y="399" on="1"/>
        <pt x="85" y="588" on="1"/>
        <pt x="234" y="588" on="1"/>
        <pt x="465" y="398" on="1"/>
        <pt x="234" y="208" on="1"/>
      </contour>
      <contour>
        <pt x="89" y="153" on="1"/>
        <pt x="458" y="153" on="1"/>
        <pt x="458" y="67" on="1"/>
        <pt x="89" y="67" on="1"/>
      </contour>
    </TTGlyph>
    <TTGlyph name="guillemotleft" xMin="45" yMin="120" xMax="439" yMax="470">
      <contour>
        <pt x="137" y="120" on="1"/>
        <pt x="45" y="295" on="1"/>
        <pt x="137" y="470" on="1"/>
        <pt x="247" y="470" on="1"/>
        <pt x="151" y="295" on="1"/>
        <pt x="247" y="120" on="1"/>
      </contour>
      <contour>
        <pt x="329" y="120" on="1"/>
        <pt x="237" y="295" on="1"/>
        <pt x="329" y="470" on="1"/>
        <pt x="439" y="470" on="1"/>
        <pt x="343" y="295" on="1"/>
        <pt x="439" y="120" on="1"/>
      </contour>
    </TTGlyph>
    <TTGlyph name="guillemotright" xMin="50" yMin="120" xMax="444" yMax="470">
      <contour>
        <pt x="145" y="295" on="1"/>
        <pt x="50" y="470" on="1"/>
        <pt x="159" y="470" on="1"/>
        <pt x="252" y="295" on="1"/>
        <pt x="159" y="120" on="1"/>
        <pt x="50" y="120" on="1"/>
      </contour>
      <contour>
        <pt x="337" y="295" on="1"/>
        <pt x="242" y="470" on="1"/>
        <pt x="351" y="470" on="1"/>
        <pt x="444" y="295" on="1"/>
        <pt x="351" y="120" on="1"/>
        <pt x="242" y="120" on="1"/>
      </contour>
    </TTGlyph>
    <TTGlyph name="guilsinglleft" xMin="45" yMin="120" xMax="247" yMax="470">
      <contour>
        <pt x="137" y="120" on="1"/>
        <pt x="45" y="295" on="1"/>
        <pt x="137" y="470" on="1"/>
        <pt x="247" y="470" on="1"/>
        <pt x="151" y="295" on="1"/>
        <pt x="247" y="120" on="1"/>
      </contour>
    </TTGlyph>
    <TTGlyph name="guilsinglright" xMin="50" yMin="120" xMax="252" yMax="470">
      <contour>
        <pt x="145" y="295" on="1"/>
        <pt x="50" y="470" on="1"/>
        <pt x="159" y="470" on="1"/>
        <pt x="252" y="295" on="1"/>
        <pt x="159" y="120" on="1"/>
        <pt x="50" y="120" on="1"/>
      </contour>
    </TTGlyph>
    <TTGlyph name="h" xMin="75" yMin="0" xMax="579" yMax="740">
      <contour>
        <pt x="425" y="560" on="0"/>
        <pt x="522" y="506" on="0"/>
        <pt x="579" y="400" on="0"/>
        <pt x="579" y="325" on="1"/>
        <pt x="579" y="0" on="1"/>
        <pt x="466" y="0" on="1"/>
        <pt x="466" y="308" on="1"/>
        <pt x="466" y="382" on="0"/>
        <pt x="392" y="461" on="0"/>
        <pt x="328" y="461" on="1"/>
        <pt x="264" y="461" on="0"/>
        <pt x="189" y="382" on="0"/>
        <pt x="189" y="308" on="1"/>
        <pt x="189" y="0" on="1"/>
        <pt x="75" y="0" on="1"/>
        <pt x="75" y="740" on="1"/>
        <pt x="189" y="740" on="1"/>
        <pt x="189" y="464" on="1"/>
        <pt x="216" y="511" on="0"/>
        <pt x="307" y="560" on="0"/>
        <pt x="365" y="560" on="1"/>
      </contour>
    </TTGlyph>
    <TTGlyph name="hungarumlaut" xMin="10" yMin="601" xMax="355" yMax="771">
      <contour>
        <pt x="84" y="601" on="1"/>
        <pt x="10" y="601" on="1"/>
        <pt x="79" y="771" on="1"/>
        <pt x="178" y="771" on="1"/>
      </contour>
      <contour>
        <pt x="247" y="601" on="1"/>
        <pt x="173" y="601" on="1"/>
        <pt x="257" y="771" on="1"/>
        <pt x="355" y="771" on="1"/>
      </contour>
    </TTGlyph>
    <TTGlyph name="hyphen" xMin="87" yMin="314" xMax="498" yMax="410">
      <component glyphName="minus" x="0" y="0" flags="0x0"/>
    </TTGlyph>
    <TTGlyph name="i" xMin="60" yMin="0" xMax="205" yMax="770">
      <contour>
        <pt x="60" y="728" on="0"/>
        <pt x="102" y="770" on="0"/>
        <pt x="133" y="770" on="1"/>
        <pt x="163" y="770" on="0"/>
        <pt x="205" y="728" on="0"/>
        <pt x="205" y="697" on="1"/>
        <pt x="205" y="666" on="0"/>
        <pt x="163" y="624" on="0"/>
        <pt x="133" y="624" on="1"/>
        <pt x="102" y="624" on="0"/>
        <pt x="60" y="666" on="0"/>
        <pt x="60" y="697" on="1"/>
      </contour>
      <contour>
        <pt x="189" y="551" on="1"/>
        <pt x="189" y="0" on="1"/>
        <pt x="75" y="0" on="1"/>
        <pt x="75" y="551" on="1"/>
      </contour>
    </TTGlyph>
    <TTGlyph name="iacute" xMin="14" yMin="0" xMax="235" yMax="796">
      <component glyphName="dotlessi" x="0" y="0" flags="0x0"/>
      <component glyphName="acute" x="4" y="0" flags="0x0"/>
    </TTGlyph>
    <TTGlyph name="icircumflex" xMin="-11" yMin="0" xMax="275" yMax="768">
      <component glyphName="dotlessi" x="0" y="0" flags="0x0"/>
      <component glyphName="circumflex" x="-21" y="0" flags="0x0"/>
    </TTGlyph>
    <TTGlyph name="idieresis" xMin="-14" yMin="0" xMax="278" yMax="740">
      <component glyphName="dotlessi" x="0" y="0" flags="0x0"/>
      <component glyphName="dieresis" x="-24" y="0" flags="0x0"/>
    </TTGlyph>
    <TTGlyph name="igrave" xMin="14" yMin="0" xMax="235" yMax="796">
      <component glyphName="dotlessi" x="0" y="0" flags="0x0"/>
      <component glyphName="grave" x="4" y="0" flags="0x0"/>
    </TTGlyph>
    <TTGlyph name="imacron" xMin="-51" yMin="0" xMax="315" yMax="720">
      <component glyphName="dotlessi" x="0" y="0" flags="0x0"/>
      <component glyphName="macron" x="-61" y="0" flags="0x0"/>
    </TTGlyph>
    <TTGlyph name="indianrupee" xMin="46" yMin="-10" xMax="590" yMax="696">
      <contour>
        <pt x="474" y="538" on="1"/>
        <pt x="474" y="524" on="1"/>
        <pt x="590" y="524" on="1"/>
        <pt x="590" y="442" on="1"/>
        <pt x="468" y="442" on="1"/>
        <pt x="457" y="375" on="0"/>
        <pt x="396" y="296" on="0"/>
        <pt x="284" y="261" on="0"/>
        <pt x="195" y="261" on="1"/>
        <pt x="195" y="198" on="1"/>
        <pt x="195" y="143" on="0"/>
        <pt x="242" y="79" on="0"/>
        <pt x="298" y="79" on="1"/>
        <pt x="400" y="79" on="0"/>
        <pt x="400" y="194" on="1"/>
        <pt x="505" y="194" on="1"/>
        <pt x="504" y="93" on="0"/>
        <pt x="397" y="-10" on="0"/>
        <pt x="296" y="-10" on="1"/>
        <pt x="195" y="-10" on="0"/>
        <pt x="88" y="102" on="0"/>
        <pt x="88" y="203" on="1"/>
        <pt x="88" y="340" on="1"/>
        <pt x="199" y="340" on="0"/>
        <pt x="303" y="353" on="0"/>
        <pt x="354" y="395" on="0"/>
        <pt x="362" y="442" on="1"/>
        <pt x="46" y="442" on="1"/>
        <pt x="46" y="524" on="1"/>
        <pt x="367" y="524" on="1"/>
        <pt x="367" y="538" on="1"/>
        <pt x="367" y="613" on="1"/>
        <pt x="46" y="613" on="1"/>
        <pt x="46" y="696" on="1"/>
        <pt x="590" y="696" on="1"/>
        <pt x="590" y="613" on="1"/>
        <pt x="474" y="613" on="1"/>
      </contour>
    </TTGlyph>
    <TTGlyph name="infinity" xMin="27" yMin="192" xMax="675" yMax="503">
      <contour>
        <pt x="583" y="503" on="0"/>
        <pt x="675" y="420" on="0"/>
        <pt x="675" y="348" on="1"/>
        <pt x="675" y="300" on="0"/>
        <pt x="632" y="230" on="0"/>
        <pt x="558" y="192" on="0"/>
        <pt x="514" y="192" on="1"/>
        <pt x="465" y="192" on="0"/>
        <pt x="386" y="241" on="0"/>
        <pt x="348" y="284" on="1"/>
        <pt x="321" y="243" on="0"/>
        <pt x="237" y="192" on="0"/>
        <pt x="187" y="192" on="1"/>
        <pt x="117" y="192" on="0"/>
        <pt x="27" y="275" on="0"/>
        <pt x="27" y="347" on="1"/>
        <pt x="27" y="395" on="0"/>
        <pt x="70" y="465" on="0"/>
        <pt x="144" y="503" on="0"/>
        <pt x="188" y="503" on="1"/>
        <pt x="239" y="503" on="0"/>
        <pt x="316" y="452" on="0"/>
        <pt x="352" y="408" on="1"/>
        <pt x="379" y="451" on="0"/>
        <pt x="464" y="503" on="0"/>
        <pt x="515" y="503" on="1"/>
      </contour>
      <contour>
        <pt x="224" y="274" on="0"/>
        <pt x="281" y="311" on="0"/>
        <pt x="301" y="341" on="1"/>
        <pt x="269" y="381" on="0"/>
        <pt x="221" y="421" on="0"/>
        <pt x="194" y="421" on="1"/>
        <pt x="162" y="421" on="0"/>
        <pt x="122" y="382" on="0"/>
        <pt x="122" y="347" on="1"/>
        <pt x="122" y="312" on="0"/>
        <pt x="162" y="274" on="0"/>
        <pt x="194" y="274" on="1"/>
      </contour>
      <contour>
        <pt x="540" y="274" on="0"/>
        <pt x="580" y="313" on="0"/>
        <pt x="580" y="348" on="1"/>
        <pt x="580" y="383" on="0"/>
        <pt x="540" y="421" on="0"/>
        <pt x="508" y="421" on="1"/>
        <pt x="477" y="421" on="0"/>
        <pt x="418" y="383" on="0"/>
        <pt x="398" y="350" on="1"/>
        <pt x="428" y="312" on="0"/>
        <pt x="478" y="274" on="0"/>
        <pt x="508" y="274" on="1"/>
      </contour>
    </TTGlyph>
    <TTGlyph name="integral" xMin="-42" yMin="-217" xMax="318" yMax="925">
      <contour>
        <pt x="135" y="854" on="0"/>
        <pt x="219" y="925" on="0"/>
        <pt x="296" y="925" on="1"/>
        <pt x="318" y="925" on="1"/>
        <pt x="308" y="830" on="1"/>
        <pt x="292" y="830" on="1"/>
        <pt x="268" y="830" on="0"/>
        <pt x="244" y="803" on="0"/>
        <pt x="240" y="771" on="1"/>
        <pt x="150" y="-64" on="1"/>
        <pt x="141" y="-146" on="0"/>
        <pt x="56" y="-217" on="0"/>
        <pt x="-21" y="-217" on="1"/>
        <pt x="-42" y="-217" on="1"/>
        <pt x="-33" y="-123" on="1"/>
        <pt x="-16" y="-123" on="1"/>
        <pt x="8" y="-123" on="0"/>
        <pt x="32" y="-95" on="0"/>
        <pt x="35" y="-64" on="1"/>
        <pt x="126" y="771" on="1"/>
      </contour>
    </TTGlyph>
    <TTGlyph name="iogonek" xMin="-10" yMin="-204" xMax="224" yMax="770">
      <contour>
        <pt x="102" y="624" on="0"/>
        <pt x="60" y="666" on="0"/>
        <pt x="60" y="697" on="1"/>
        <pt x="60" y="728" on="0"/>
        <pt x="102" y="770" on="0"/>
        <pt x="133" y="770" on="1"/>
        <pt x="163" y="770" on="0"/>
        <pt x="205" y="728" on="0"/>
        <pt x="205" y="697" on="1"/>
        <pt x="205" y="666" on="0"/>
        <pt x="163" y="624" on="0"/>
        <pt x="133" y="624" on="1"/>
      </contour>
      <contour>
        <pt x="224" y="-132" on="1"/>
        <pt x="224" y="-204" on="1"/>
        <pt x="118" y="-204" on="1"/>
        <pt x="63" y="-204" on="0"/>
        <pt x="-10" y="-145" on="0"/>
        <pt x="-10" y="-95" on="1"/>
        <pt x="-10" y="-56" on="0"/>
        <pt x="36" y="-4" on="0"/>
        <pt x="75" y="5" on="1"/>
        <pt x="75" y="551" on="1"/>
        <pt x="189" y="551" on="1"/>
        <pt x="189" y="-59" on="1"/>
        <pt x="140" y="-59" on="1"/>
        <pt x="111" y="-59" on="0"/>
        <pt x="84" y="-74" on="0"/>
        <pt x="84" y="-95" on="1"/>
        <pt x="84" y="-116" on="0"/>
        <pt x="112" y="-132" on="0"/>
        <pt x="140" y="-132" on="1"/>
      </contour>
    </TTGlyph>
    <TTGlyph name="j" xMin="-28" yMin="-262" xMax="205" yMax="770">
      <contour>
        <pt x="60" y="728" on="0"/>
        <pt x="102" y="770" on="0"/>
        <pt x="133" y="770" on="1"/>
        <pt x="163" y="770" on="0"/>
        <pt x="205" y="728" on="0"/>
        <pt x="205" y="697" on="1"/>
        <pt x="205" y="666" on="0"/>
        <pt x="163" y="624" on="0"/>
        <pt x="133" y="624" on="1"/>
        <pt x="102" y="624" on="0"/>
        <pt x="60" y="666" on="0"/>
        <pt x="60" y="697" on="1"/>
      </contour>
      <contour>
        <pt x="189" y="-108" on="1"/>
        <pt x="189" y="-189" on="0"/>
        <pt x="108" y="-262" on="0"/>
        <pt x="31" y="-262" on="1"/>
        <pt x="-28" y="-262" on="1"/>
        <pt x="-28" y="-166" on="1"/>
        <pt x="11" y="-166" on="1"/>
        <pt x="46" y="-166" on="0"/>
        <pt x="75" y="-139" on="0"/>
        <pt x="75" y="-108" on="1"/>
        <pt x="75" y="551" on="1"/>
        <pt x="189" y="551" on="1"/>
      </contour>
    </TTGlyph>
    <TTGlyph name="k" xMin="75" yMin="0" xMax="547" yMax="740">
      <contour>
        <pt x="293" y="275" on="1"/>
        <pt x="547" y="0" on="1"/>
        <pt x="393" y="0" on="1"/>
        <pt x="189" y="237" on="1"/>
        <pt x="189" y="0" on="1"/>
        <pt x="75" y="0" on="1"/>
        <pt x="75" y="740" on="1"/>
        <pt x="189" y="740" on="1"/>
        <pt x="189" y="310" on="1"/>
        <pt x="389" y="551" on="1"/>
        <pt x="547" y="551" on="1"/>
      </contour>
    </TTGlyph>
    <TTGlyph name="l" xMin="75" yMin="0" xMax="189" yMax="740">
      <contour>
        <pt x="189" y="740" on="1"/>
        <pt x="189" y="0" on="1"/>
        <pt x="75" y="0" on="1"/>
        <pt x="75" y="740" on="1"/>
      </contour>
    </TTGlyph>
    <TTGlyph name="lacute" xMin="14" yMin="0" xMax="235" yMax="985">
      <component glyphName="l" x="0" y="0" flags="0x0"/>
      <component glyphName="acute" x="4" y="189" flags="0x4"/>
    </TTGlyph>
    <TTGlyph name="lcaron" xMin="75" yMin="0" xMax="384" yMax="740">
      <contour>
        <pt x="189" y="740" on="1"/>
        <pt x="189" y="0" on="1"/>
        <pt x="75" y="0" on="1"/>
        <pt x="75" y="740" on="1"/>
      </contour>
      <contour>
        <pt x="384" y="688" on="0"/>
        <pt x="384" y="640" on="1"/>
        <pt x="384" y="516" on="0"/>
        <pt x="272" y="516" on="1"/>
        <pt x="272" y="566" on="1"/>
        <pt x="320" y="566" on="0"/>
        <pt x="320" y="622" on="1"/>
        <pt x="320" y="643" on="1"/>
        <pt x="267" y="643" on="1"/>
        <pt x="267" y="740" on="1"/>
        <pt x="370" y="740" on="1"/>
      </contour>
    </TTGlyph>
    <TTGlyph name="less" xMin="98" yMin="134" xMax="472" yMax="588">
      <contour>
        <pt x="328" y="134" on="1"/>
        <pt x="98" y="361" on="1"/>
        <pt x="328" y="588" on="1"/>
        <pt x="472" y="588" on="1"/>
        <pt x="241" y="361" on="1"/>
        <pt x="472" y="134" on="1"/>
      </contour>
    </TTGlyph>
    <TTGlyph name="lessequal" xMin="85" yMin="67" xMax="465" yMax="588">
      <contour>
        <pt x="236" y="399" on="1"/>
        <pt x="465" y="208" on="1"/>
        <pt x="315" y="208" on="1"/>
        <pt x="85" y="398" on="1"/>
        <pt x="315" y="588" on="1"/>
        <pt x="465" y="588" on="1"/>
      </contour>
      <contour>
        <pt x="91" y="153" on="1"/>
        <pt x="460" y="153" on="1"/>
        <pt x="460" y="67" on="1"/>
        <pt x="91" y="67" on="1"/>
      </contour>
    </TTGlyph>
    <TTGlyph name="logicalnot" xMin="41" yMin="208" xMax="694" yMax="435">
      <contour>
        <pt x="694" y="435" on="1"/>
        <pt x="694" y="208" on="1"/>
        <pt x="580" y="208" on="1"/>
        <pt x="580" y="346" on="1"/>
        <pt x="41" y="346" on="1"/>
        <pt x="41" y="435" on="1"/>
      </contour>
    </TTGlyph>
    <TTGlyph name="lozenge" xMin="31" yMin="103" xMax="526" yMax="598">
      <contour>
        <pt x="526" y="351" on="1"/>
        <pt x="279" y="103" on="1"/>
        <pt x="31" y="351" on="1"/>
        <pt x="279" y="598" on="1"/>
      </contour>
      <contour>
        <pt x="149" y="351" on="1"/>
        <pt x="279" y="220" on="1"/>
        <pt x="409" y="351" on="1"/>
        <pt x="279" y="481" on="1"/>
      </contour>
    </TTGlyph>
    <TTGlyph name="lslash" xMin="9" yMin="0" xMax="256" yMax="740">
      <contour>
        <pt x="256" y="344" on="1"/>
        <pt x="189" y="321" on="1"/>
        <pt x="189" y="0" on="1"/>
        <pt x="75" y="0" on="1"/>
        <pt x="75" y="282" on="1"/>
        <pt x="9" y="259" on="1"/>
        <pt x="9" y="365" on="1"/>
        <pt x="75" y="387" on="1"/>
        <pt x="75" y="740" on="1"/>
        <pt x="189" y="740" on="1"/>
        <pt x="189" y="426" on="1"/>
        <pt x="256" y="449" on="1"/>
      </contour>
    </TTGlyph>
    <TTGlyph name="m" xMin="75" yMin="0" xMax="969" yMax="560">
      <contour>
        <pt x="814" y="560" on="0"/>
        <pt x="912" y="506" on="0"/>
        <pt x="969" y="400" on="0"/>
        <pt x="969" y="325" on="1"/>
        <pt x="969" y="0" on="1"/>
        <pt x="855" y="0" on="1"/>
        <pt x="855" y="308" on="1"/>
        <pt x="855" y="382" on="0"/>
        <pt x="781" y="461" on="0"/>
        <pt x="717" y="461" on="1"/>
        <pt x="653" y="461" on="0"/>
        <pt x="579" y="382" on="0"/>
        <pt x="579" y="308" on="1"/>
        <pt x="579" y="0" on="1"/>
        <pt x="466" y="0" on="1"/>
        <pt x="466" y="308" on="1"/>
        <pt x="466" y="382" on="0"/>
        <pt x="392" y="461" on="0"/>
        <pt x="328" y="461" on="1"/>
        <pt x="264" y="461" on="0"/>
        <pt x="189" y="382" on="0"/>
        <pt x="189" y="308" on="1"/>
        <pt x="189" y="0" on="1"/>
        <pt x="75" y="0" on="1"/>
        <pt x="75" y="551" on="1"/>
        <pt x="189" y="551" on="1"/>
        <pt x="189" y="464" on="1"/>
        <pt x="216" y="511" on="0"/>
        <pt x="307" y="560" on="0"/>
        <pt x="365" y="560" on="1"/>
        <pt x="429" y="560" on="0"/>
        <pt x="529" y="500" on="0"/>
        <pt x="555" y="443" on="1"/>
        <pt x="584" y="498" on="0"/>
        <pt x="687" y="560" on="0"/>
        <pt x="752" y="560" on="1"/>
      </contour>
    </TTGlyph>
    <TTGlyph name="macron" xMin="10" yMin="635" xMax="376" yMax="720">
      <contour>
        <pt x="376" y="720" on="1"/>
        <pt x="376" y="635" on="1"/>
        <pt x="10" y="635" on="1"/>
        <pt x="10" y="720" on="1"/>
      </contour>
    </TTGlyph>
    <TTGlyph name="minus" xMin="87" yMin="314" xMax="498" yMax="410">
      <contour>
        <pt x="498" y="410" on="1"/>
        <pt x="498" y="314" on="1"/>
        <pt x="87" y="314" on="1"/>
        <pt x="87" y="410" on="1"/>
      </contour>
    </TTGlyph>
    <TTGlyph name="multiply" xMin="123" yMin="138" xMax="575" yMax="587">
      <contour>
        <pt x="502" y="138" on="1"/>
        <pt x="350" y="290" on="1"/>
        <pt x="198" y="138" on="1"/>
        <pt x="123" y="213" on="1"/>
        <pt x="276" y="365" on="1"/>
        <pt x="127" y="514" on="1"/>
        <pt x="200" y="587" on="1"/>
        <pt x="349" y="438" on="1"/>
        <pt x="498" y="587" on="1"/>
        <pt x="573" y="512" on="1"/>
        <pt x="424" y="363" on="1"/>
        <pt x="575" y="211" on="1"/>
      </contour>
    </TTGlyph>
    <TTGlyph name="n" xMin="75" yMin="0" xMax="579" yMax="560">
      <contour>
        <pt x="425" y="560" on="0"/>
        <pt x="522" y="506" on="0"/>
        <pt x="579" y="400" on="0"/>
        <pt x="579" y="325" on="1"/>
        <pt x="579" y="0" on="1"/>
        <pt x="466" y="0" on="1"/>
        <pt x="466" y="308" on="1"/>
        <pt x="466" y="382" on="0"/>
        <pt x="392" y="461" on="0"/>
        <pt x="328" y="461" on="1"/>
        <pt x="264" y="461" on="0"/>
        <pt x="189" y="382" on="0"/>
        <pt x="189" y="308" on="1"/>
        <pt x="189" y="0" on="1"/>
        <pt x="75" y="0" on="1"/>
        <pt x="75" y="551" on="1"/>
        <pt x="189" y="551" on="1"/>
        <pt x="189" y="464" on="1"/>
        <pt x="216" y="511" on="0"/>
        <pt x="307" y="560" on="0"/>
        <pt x="365" y="560" on="1"/>
      </contour>
    </TTGlyph>
    <TTGlyph name="nacute" xMin="75" yMin="0" xMax="579" yMax="796">
      <component glyphName="n" x="0" y="0" flags="0x0"/>
      <component glyphName="acute" x="207" y="0" flags="0x0"/>
    </TTGlyph>
    <TTGlyph name="ncaron" xMin="75" yMin="0" xMax="579" yMax="768">
      <component glyphName="n" x="0" y="0" flags="0x0"/>
      <component glyphName="caron" x="182" y="0" flags="0x0"/>
    </TTGlyph>
    <TTGlyph name="nine" xMin="77" yMin="1" xMax="570" yMax="746">
      <contour>
        <pt x="212" y="148" on="0"/>
        <pt x="278" y="96" on="0"/>
        <pt x="334" y="96" on="1"/>
        <pt x="405" y="96" on="0"/>
        <pt x="471" y="208" on="0"/>
        <pt x="471" y="343" on="1"/>
        <pt x="447" y="309" on="0"/>
        <pt x="360" y="272" on="0"/>
        <pt x="309" y="272" on="1"/>
        <pt x="244" y="272" on="0"/>
        <pt x="138" y="325" on="0"/>
        <pt x="77" y="430" on="0"/>
        <pt x="77" y="505" on="1"/>
        <pt x="77" y="615" on="0"/>
        <pt x="206" y="746" on="0"/>
        <pt x="319" y="746" on="1"/>
        <pt x="455" y="746" on="0"/>
        <pt x="570" y="565" on="0"/>
        <pt x="570" y="378" on="1"/>
        <pt x="570" y="249" on="0"/>
        <pt x="527" y="85" on="0"/>
        <pt x="421" y="1" on="0"/>
        <pt x="327" y="1" on="1"/>
        <pt x="220" y="1" on="0"/>
        <pt x="104" y="113" on="0"/>
        <pt x="97" y="198" on="1"/>
        <pt x="202" y="198" on="1"/>
      </contour>
      <contour>
        <pt x="458" y="574" on="0"/>
        <pt x="385" y="651" on="0"/>
        <pt x="322" y="651" on="1"/>
        <pt x="259" y="651" on="0"/>
        <pt x="186" y="572" on="0"/>
        <pt x="186" y="508" on="1"/>
        <pt x="186" y="447" on="0"/>
        <pt x="257" y="368" on="0"/>
        <pt x="329" y="368" on="1"/>
        <pt x="389" y="368" on="0"/>
        <pt x="458" y="443" on="0"/>
        <pt x="458" y="505" on="1"/>
      </contour>
    </TTGlyph>
    <TTGlyph name="notequal" xMin="121" yMin="105" xMax="653" yMax="617">
      <contour>
        <pt x="573" y="525" on="1"/>
        <pt x="653" y="525" on="1"/>
        <pt x="653" y="424" on="1"/>
        <pt x="484" y="424" on="1"/>
        <pt x="374" y="298" on="1"/>
        <pt x="653" y="298" on="1"/>
        <pt x="653" y="197" on="1"/>
        <pt x="286" y="197" on="1"/>
        <pt x="205" y="105" on="1"/>
        <pt x="121" y="105" on="1"/>
        <pt x="202" y="197" on="1"/>
        <pt x="121" y="197" on="1"/>
        <pt x="121" y="298" on="1"/>
        <pt x="290" y="298" on="1"/>
        <pt x="400" y="424" on="1"/>
        <pt x="121" y="424" on="1"/>
        <pt x="121" y="525" on="1"/>
        <pt x="489" y="525" on="1"/>
        <pt x="569" y="617" on="1"/>
        <pt x="653" y="617" on="1"/>
      </contour>
    </TTGlyph>
    <TTGlyph name="ntilde" xMin="75" yMin="0" xMax="579" yMax="725">
      <component glyphName="n" x="0" y="0" flags="0x0"/>
      <component glyphName="tilde" x="162" y="0" flags="0x0"/>
    </TTGlyph>
    <TTGlyph name="numbersign" xMin="31" yMin="0" xMax="812" yMax="740">
      <contour>
        <pt x="658" y="458" on="1"/>
        <pt x="621" y="285" on="1"/>
        <pt x="753" y="285" on="1"/>
        <pt x="753" y="185" on="1"/>
        <pt x="600" y="185" on="1"/>
        <pt x="560" y="0" on="1"/>
        <pt x="451" y="0" on="1"/>
        <pt x="491" y="185" on="1"/>
        <pt x="295" y="185" on="1"/>
        <pt x="255" y="0" on="1"/>
        <pt x="146" y="0" on="1"/>
        <pt x="186" y="185" on="1"/>
        <pt x="31" y="185" on="1"/>
        <pt x="31" y="285" on="1"/>
        <pt x="207" y="285" on="1"/>
        <pt x="244" y="458" on="1"/>
        <pt x="90" y="458" on="1"/>
        <pt x="90" y="558" on="1"/>
        <pt x="265" y="558" on="1"/>
        <pt x="304" y="740" on="1"/>
        <pt x="413" y="740" on="1"/>
        <pt x="374" y="558" on="1"/>
        <pt x="570" y="558" on="1"/>
        <pt x="609" y="740" on="1"/>
        <pt x="718" y="740" on="1"/>
        <pt x="679" y="558" on="1"/>
        <pt x="812" y="558" on="1"/>
        <pt x="812" y="458" on="1"/>
      </contour>
      <contour>
        <pt x="549" y="458" on="1"/>
        <pt x="353" y="458" on="1"/>
        <pt x="316" y="285" on="1"/>
        <pt x="512" y="285" on="1"/>
      </contour>
    </TTGlyph>
    <TTGlyph name="o" xMin="38" yMin="-9" xMax="600" yMax="560">
      <contour>
        <pt x="398" y="560" on="0"/>
        <pt x="526" y="490" on="0"/>
        <pt x="600" y="360" on="0"/>
        <pt x="600" y="276" on="1"/>
        <pt x="600" y="192" on="0"/>
        <pt x="524" y="62" on="0"/>
        <pt x="393" y="-9" on="0"/>
        <pt x="314" y="-9" on="1"/>
        <pt x="236" y="-9" on="0"/>
        <pt x="110" y="62" on="0"/>
        <pt x="38" y="191" on="0"/>
        <pt x="38" y="276" on="1"/>
        <pt x="38" y="360" on="0"/>
        <pt x="112" y="490" on="0"/>
        <pt x="240" y="560" on="0"/>
        <pt x="319" y="560" on="1"/>
      </contour>
      <contour>
        <pt x="273" y="464" on="0"/>
        <pt x="199" y="421" on="0"/>
        <pt x="154" y="336" on="0"/>
        <pt x="154" y="276" on="1"/>
        <pt x="154" y="216" on="0"/>
        <pt x="197" y="130" on="0"/>
        <pt x="270" y="87" on="0"/>
        <pt x="314" y="87" on="1"/>
        <pt x="358" y="87" on="0"/>
        <pt x="435" y="131" on="0"/>
        <pt x="483" y="216" on="0"/>
        <pt x="483" y="276" on="1"/>
        <pt x="483" y="336" on="0"/>
        <pt x="437" y="421" on="0"/>
        <pt x="361" y="464" on="0"/>
        <pt x="317" y="464" on="1"/>
      </contour>
    </TTGlyph>
    <TTGlyph name="oacute" xMin="38" yMin="-9" xMax="600" yMax="796">
      <component glyphName="o" x="0" y="0" flags="0x0"/>
      <component glyphName="acute" x="191" y="0" flags="0x0"/>
    </TTGlyph>
    <TTGlyph name="ocircumflex" xMin="38" yMin="-9" xMax="600" yMax="768">
      <component glyphName="o" x="0" y="0" flags="0x0"/>
      <component glyphName="circumflex" x="166" y="0" flags="0x0"/>
    </TTGlyph>
    <TTGlyph name="odieresis" xMin="38" yMin="-9" xMax="600" yMax="740">
      <component glyphName="o" x="0" y="0" flags="0x0"/>
      <component glyphName="dieresis" x="163" y="0" flags="0x0"/>
    </TTGlyph>
    <TTGlyph name="oe" xMin="37" yMin="-9" xMax="1025" yMax="560">
      <contour>
        <pt x="1025" y="262" on="0"/>
        <pt x="1021" y="237" on="1"/>
        <pt x="600" y="237" on="1"/>
        <pt x="604" y="168" on="0"/>
        <pt x="688" y="87" on="0"/>
        <pt x="752" y="87" on="1"/>
        <pt x="845" y="87" on="0"/>
        <pt x="883" y="164" on="1"/>
        <pt x="1006" y="164" on="1"/>
        <pt x="981" y="88" on="0"/>
        <pt x="849" y="-9" on="0"/>
        <pt x="752" y="-9" on="1"/>
        <pt x="683" y="-9" on="0"/>
        <pt x="573" y="51" on="0"/>
        <pt x="538" y="107" on="1"/>
        <pt x="501" y="52" on="0"/>
        <pt x="383" y="-9" on="0"/>
        <pt x="314" y="-9" on="1"/>
        <pt x="235" y="-9" on="0"/>
        <pt x="109" y="62" on="0"/>
        <pt x="37" y="191" on="0"/>
        <pt x="37" y="276" on="1"/>
        <pt x="37" y="360" on="0"/>
        <pt x="112" y="490" on="0"/>
        <pt x="240" y="560" on="0"/>
        <pt x="319" y="560" on="1"/>
        <pt x="387" y="560" on="0"/>
        <pt x="502" y="500" on="0"/>
        <pt x="539" y="446" on="1"/>
        <pt x="574" y="500" on="0"/>
        <pt x="686" y="560" on="0"/>
        <pt x="757" y="560" on="1"/>
        <pt x="835" y="560" on="0"/>
        <pt x="957" y="492" on="0"/>
        <pt x="1025" y="370" on="0"/>
        <pt x="1025" y="291" on="1"/>
      </contour>
      <contour>
        <pt x="358" y="87" on="0"/>
        <pt x="435" y="131" on="0"/>
        <pt x="482" y="216" on="0"/>
        <pt x="482" y="276" on="1"/>
        <pt x="482" y="336" on="0"/>
        <pt x="436" y="421" on="0"/>
        <pt x="360" y="464" on="0"/>
        <pt x="316" y="464" on="1"/>
        <pt x="272" y="464" on="0"/>
        <pt x="198" y="421" on="0"/>
        <pt x="154" y="336" on="0"/>
        <pt x="154" y="276" on="1"/>
        <pt x="154" y="216" on="0"/>
        <pt x="197" y="130" on="0"/>
        <pt x="270" y="87" on="0"/>
        <pt x="314" y="87" on="1"/>
      </contour>
      <contour>
        <pt x="906" y="315" on="1"/>
        <pt x="905" y="383" on="0"/>
        <pt x="817" y="464" on="0"/>
        <pt x="752" y="464" on="1"/>
        <pt x="691" y="464" on="0"/>
        <pt x="607" y="384" on="0"/>
        <pt x="601" y="315" on="1"/>
      </contour>
    </TTGlyph>
    <TTGlyph name="ogonek" xMin="10" yMin="-205" xMax="244" yMax="9">
      <contour>
        <pt x="209" y="9" on="1"/>
        <pt x="209" y="-60" on="1"/>
        <pt x="160" y="-60" on="1"/>
        <pt x="131" y="-60" on="0"/>
        <pt x="104" y="-75" on="0"/>
        <pt x="104" y="-96" on="1"/>
        <pt x="104" y="-117" on="0"/>
        <pt x="132" y="-133" on="0"/>
        <pt x="160" y="-133" on="1"/>
        <pt x="244" y="-133" on="1"/>
        <pt x="244" y="-205" on="1"/>
        <pt x="138" y="-205" on="1"/>
        <pt x="83" y="-205" on="0"/>
        <pt x="10" y="-146" on="0"/>
        <pt x="10" y="-96" on="1"/>
        <pt x="10" y="-46" on="0"/>
        <pt x="83" y="9" on="0"/>
        <pt x="140" y="9" on="1"/>
      </contour>
    </TTGlyph>
    <TTGlyph name="ograve" xMin="38" yMin="-9" xMax="600" yMax="796">
      <component glyphName="o" x="0" y="0" flags="0x0"/>
      <component glyphName="grave" x="191" y="0" flags="0x0"/>
    </TTGlyph>
    <TTGlyph name="ohungarumlaut" xMin="38" yMin="-9" xMax="600" yMax="771">
      <component glyphName="o" x="0" y="0" flags="0x0"/>
      <component glyphName="hungarumlaut" x="181" y="0" flags="0x0"/>
    </TTGlyph>
    <TTGlyph name="omacron" xMin="38" yMin="-9" xMax="600" yMax="720">
      <component glyphName="o" x="0" y="0" flags="0x0"/>
      <component glyphName="macron" x="126" y="0" flags="0x0"/>
    </TTGlyph>
    <TTGlyph name="one" xMin="45" yMin="0" xMax="253" yMax="710">
      <contour>
        <pt x="45" y="606" on="1"/>
        <pt x="45" y="710" on="1"/>
        <pt x="253" y="710" on="1"/>
        <pt x="253" y="0" on="1"/>
        <pt x="138" y="0" on="1"/>
        <pt x="138" y="606" on="1"/>
      </contour>
    </TTGlyph>
    <TTGlyph name="onehalf" xMin="34" yMin="-1" xMax="657" yMax="704">
      <contour>
        <pt x="88" y="636" on="1"/>
        <pt x="34" y="636" on="1"/>
        <pt x="34" y="704" on="1"/>
        <pt x="177" y="704" on="1"/>
        <pt x="177" y="352" on="1"/>
        <pt x="88" y="352" on="1"/>
      </contour>
      <contour>
        <pt x="542" y="696" on="1"/>
        <pt x="171" y="0" on="1"/>
        <pt x="63" y="0" on="1"/>
        <pt x="434" y="696" on="1"/>
      </contour>
      <contour>
        <pt x="657" y="71" on="1"/>
        <pt x="657" y="-1" on="1"/>
        <pt x="388" y="-1" on="1"/>
        <pt x="388" y="65" on="1"/>
        <pt x="496" y="144" on="1"/>
        <pt x="529" y="170" on="0"/>
        <pt x="562" y="214" on="0"/>
        <pt x="562" y="240" on="1"/>
        <pt x="562" y="263" on="0"/>
        <pt x="537" y="290" on="0"/>
        <pt x="518" y="290" on="1"/>
        <pt x="500" y="290" on="0"/>
        <pt x="478" y="270" on="0"/>
        <pt x="476" y="252" on="1"/>
        <pt x="386" y="252" on="1"/>
        <pt x="388" y="300" on="0"/>
        <pt x="459" y="358" on="0"/>
        <pt x="521" y="358" on="1"/>
        <pt x="562" y="358" on="0"/>
        <pt x="623" y="326" on="0"/>
        <pt x="656" y="274" on="0"/>
        <pt x="656" y="244" on="1"/>
        <pt x="656" y="208" on="0"/>
        <pt x="613" y="152" on="0"/>
        <pt x="562" y="118" on="1"/>
        <pt x="489" y="71" on="1"/>
      </contour>
    </TTGlyph>
    <TTGlyph name="onequarter" xMin="34" yMin="0" xMax="643" yMax="704">
      <contour>
        <pt x="34" y="636" on="1"/>
        <pt x="34" y="704" on="1"/>
        <pt x="177" y="704" on="1"/>
        <pt x="177" y="352" on="1"/>
        <pt x="88" y="352" on="1"/>
        <pt x="88" y="636" on="1"/>
      </contour>
      <contour>
        <pt x="553" y="696" on="1"/>
        <pt x="171" y="0" on="1"/>
        <pt x="63" y="0" on="1"/>
        <pt x="446" y="696" on="1"/>
      </contour>
      <contour>
        <pt x="643" y="67" on="1"/>
        <pt x="598" y="67" on="1"/>
        <pt x="598" y="0" on="1"/>
        <pt x="509" y="0" on="1"/>
        <pt x="509" y="67" on="1"/>
        <pt x="323" y="67" on="1"/>
        <pt x="323" y="117" on="1"/>
        <pt x="474" y="353" on="1"/>
        <pt x="598" y="353" on="1"/>
        <pt x="598" y="123" on="1"/>
        <pt x="643" y="123" on="1"/>
      </contour>
      <contour>
        <pt x="511" y="285" on="1"/>
        <pt x="412" y="123" on="1"/>
        <pt x="511" y="123" on="1"/>
      </contour>
    </TTGlyph>
    <TTGlyph name="onesuperior" xMin="20" yMin="352" xMax="163" yMax="704">
      <contour>
        <pt x="20" y="636" on="1"/>
        <pt x="20" y="704" on="1"/>
        <pt x="163" y="704" on="1"/>
        <pt x="163" y="352" on="1"/>
        <pt x="74" y="352" on="1"/>
        <pt x="74" y="636" on="1"/>
      </contour>
    </TTGlyph>
    <TTGlyph name="ordfeminine" xMin="31" yMin="347" xMax="414" yMax="709">
      <contour>
        <pt x="244" y="709" on="0"/>
        <pt x="309" y="673" on="0"/>
        <pt x="325" y="642" on="1"/>
        <pt x="325" y="703" on="1"/>
        <pt x="414" y="703" on="1"/>
        <pt x="414" y="353" on="1"/>
        <pt x="325" y="353" on="1"/>
        <pt x="325" y="414" on="1"/>
        <pt x="308" y="384" on="0"/>
        <pt x="243" y="347" on="0"/>
        <pt x="199" y="347" on="1"/>
        <pt x="153" y="347" on="0"/>
        <pt x="76" y="394" on="0"/>
        <pt x="31" y="478" on="0"/>
        <pt x="31" y="530" on="1"/>
        <pt x="31" y="582" on="0"/>
        <pt x="76" y="663" on="0"/>
        <pt x="153" y="709" on="0"/>
        <pt x="199" y="709" on="1"/>
      </contour>
      <contour>
        <pt x="183" y="640" on="0"/>
        <pt x="123" y="581" on="0"/>
        <pt x="123" y="529" on="1"/>
        <pt x="123" y="477" on="0"/>
        <pt x="183" y="416" on="0"/>
        <pt x="224" y="416" on="1"/>
        <pt x="266" y="416" on="0"/>
        <pt x="325" y="476" on="0"/>
        <pt x="325" y="528" on="1"/>
        <pt x="325" y="580" on="0"/>
        <pt x="266" y="640" on="0"/>
        <pt x="224" y="640" on="1"/>
      </contour>
    </TTGlyph>
    <TTGlyph name="ordmasculine" xMin="31" yMin="347" xMax="413" yMax="709">
      <contour>
        <pt x="276" y="709" on="0"/>
        <pt x="363" y="665" on="0"/>
        <pt x="413" y="582" on="0"/>
        <pt x="413" y="528" on="1"/>
        <pt x="413" y="475" on="0"/>
        <pt x="362" y="392" on="0"/>
        <pt x="274" y="347" on="0"/>
        <pt x="220" y="347" on="1"/>
        <pt x="166" y="347" on="0"/>
        <pt x="80" y="392" on="0"/>
        <pt x="31" y="474" on="0"/>
        <pt x="31" y="528" on="1"/>
        <pt x="31" y="582" on="0"/>
        <pt x="81" y="664" on="0"/>
        <pt x="168" y="709" on="0"/>
        <pt x="222" y="709" on="1"/>
      </contour>
      <contour>
        <pt x="180" y="643" on="0"/>
        <pt x="123" y="583" on="0"/>
        <pt x="123" y="527" on="1"/>
        <pt x="123" y="473" on="0"/>
        <pt x="179" y="414" on="0"/>
        <pt x="220" y="414" on="1"/>
        <pt x="261" y="414" on="0"/>
        <pt x="321" y="474" on="0"/>
        <pt x="321" y="527" on="1"/>
        <pt x="321" y="582" on="0"/>
        <pt x="262" y="643" on="0"/>
        <pt x="221" y="643" on="1"/>
      </contour>
    </TTGlyph>
    <TTGlyph name="oslash" xMin="28" yMin="-9" xMax="610" yMax="560">
      <contour>
        <pt x="533" y="467" on="1"/>
        <pt x="600" y="390" on="0"/>
        <pt x="600" y="276" on="1"/>
        <pt x="600" y="192" on="0"/>
        <pt x="524" y="62" on="0"/>
        <pt x="393" y="-9" on="0"/>
        <pt x="314" y="-9" on="1"/>
        <pt x="218" y="-9" on="0"/>
        <pt x="147" y="43" on="1"/>
        <pt x="107" y="0" on="1"/>
        <pt x="28" y="0" on="1"/>
        <pt x="104" y="83" on="1"/>
        <pt x="38" y="160" on="0"/>
        <pt x="38" y="276" on="1"/>
        <pt x="38" y="360" on="0"/>
        <pt x="112" y="490" on="0"/>
        <pt x="240" y="560" on="0"/>
        <pt x="319" y="560" on="1"/>
        <pt x="417" y="560" on="0"/>
        <pt x="490" y="507" on="1"/>
        <pt x="531" y="551" on="1"/>
        <pt x="610" y="551" on="1"/>
      </contour>
      <contour>
        <pt x="154" y="211" on="0"/>
        <pt x="179" y="166" on="1"/>
        <pt x="419" y="428" on="1"/>
        <pt x="375" y="464" on="0"/>
        <pt x="317" y="464" on="1"/>
        <pt x="273" y="464" on="0"/>
        <pt x="199" y="421" on="0"/>
        <pt x="154" y="336" on="0"/>
        <pt x="154" y="276" on="1"/>
      </contour>
      <contour>
        <pt x="483" y="338" on="0"/>
        <pt x="457" y="383" on="1"/>
        <pt x="217" y="120" on="1"/>
        <pt x="258" y="87" on="0"/>
        <pt x="314" y="87" on="1"/>
        <pt x="358" y="87" on="0"/>
        <pt x="435" y="131" on="0"/>
        <pt x="483" y="216" on="0"/>
        <pt x="483" y="276" on="1"/>
      </contour>
    </TTGlyph>
    <TTGlyph name="otilde" xMin="38" yMin="-9" xMax="600" yMax="725">
      <component glyphName="o" x="0" y="0" flags="0x0"/>
      <component glyphName="tilde" x="146" y="0" flags="0x0"/>
    </TTGlyph>
    <TTGlyph name="p" xMin="75" yMin="-262" xMax="640" yMax="560">
      <contour>
        <pt x="453" y="560" on="0"/>
        <pt x="572" y="489" on="0"/>
        <pt x="640" y="361" on="0"/>
        <pt x="640" y="278" on="1"/>
        <pt x="640" y="195" on="0"/>
        <pt x="572" y="64" on="0"/>
        <pt x="453" y="-9" on="0"/>
        <pt x="381" y="-9" on="1"/>
        <pt x="316" y="-9" on="0"/>
        <pt x="218" y="52" on="0"/>
        <pt x="189" y="103" on="1"/>
        <pt x="189" y="-262" on="1"/>
        <pt x="75" y="-262" on="1"/>
        <pt x="75" y="551" on="1"/>
        <pt x="189" y="551" on="1"/>
        <pt x="189" y="453" on="1"/>
        <pt x="217" y="501" on="0"/>
        <pt x="316" y="560" on="0"/>
        <pt x="381" y="560" on="1"/>
      </contour>
      <contour>
        <pt x="313" y="461" on="0"/>
        <pt x="236" y="417" on="0"/>
        <pt x="189" y="333" on="0"/>
        <pt x="189" y="276" on="1"/>
        <pt x="189" y="219" on="0"/>
        <pt x="236" y="134" on="0"/>
        <pt x="313" y="90" on="0"/>
        <pt x="356" y="90" on="1"/>
        <pt x="400" y="90" on="0"/>
        <pt x="477" y="135" on="0"/>
        <pt x="524" y="221" on="0"/>
        <pt x="524" y="278" on="1"/>
        <pt x="524" y="335" on="0"/>
        <pt x="477" y="418" on="0"/>
        <pt x="400" y="461" on="0"/>
        <pt x="356" y="461" on="1"/>
      </contour>
    </TTGlyph>
    <TTGlyph name="paragraph" xMin="35" yMin="0" xMax="555" yMax="695">
      <contour>
        <pt x="555" y="0" on="1"/>
        <pt x="454" y="0" on="1"/>
        <pt x="454" y="606" on="1"/>
        <pt x="387" y="606" on="1"/>
        <pt x="387" y="0" on="1"/>
        <pt x="286" y="0" on="1"/>
        <pt x="286" y="282" on="1"/>
        <pt x="272" y="282" on="1"/>
        <pt x="154" y="282" on="0"/>
        <pt x="35" y="397" on="0"/>
        <pt x="35" y="488" on="1"/>
        <pt x="35" y="579" on="0"/>
        <pt x="155" y="695" on="0"/>
        <pt x="272" y="695" on="1"/>
        <pt x="555" y="695" on="1"/>
      </contour>
    </TTGlyph>
    <TTGlyph name="parenleft" xMin="127" yMin="-185" xMax="511" yMax="989">
      <contour>
        <pt x="127" y="526" on="0"/>
        <pt x="194" y="752" on="0"/>
        <pt x="314" y="931" on="0"/>
        <pt x="393" y="989" on="1"/>
        <pt x="511" y="989" on="1"/>
        <pt x="511" y="978" on="1"/>
        <pt x="374" y="869" on="0"/>
        <pt x="238" y="570" on="0"/>
        <pt x="238" y="403" on="1"/>
        <pt x="238" y="235" on="0"/>
        <pt x="374" y="-64" on="0"/>
        <pt x="511" y="-174" on="1"/>
        <pt x="511" y="-185" on="1"/>
        <pt x="393" y="-185" on="1"/>
        <pt x="314" y="-126" on="0"/>
        <pt x="194" y="53" on="0"/>
        <pt x="127" y="279" on="0"/>
        <pt x="127" y="403" on="1"/>
      </contour>
    </TTGlyph>
    <TTGlyph name="parenright" xMin="27" yMin="-185" xMax="412" yMax="989">
      <contour>
        <pt x="412" y="279" on="0"/>
        <pt x="345" y="53" on="0"/>
        <pt x="224" y="-126" on="0"/>
        <pt x="145" y="-185" on="1"/>
        <pt x="27" y="-185" on="1"/>
        <pt x="27" y="-174" on="1"/>
        <pt x="165" y="-64" on="0"/>
        <pt x="301" y="235" on="0"/>
        <pt x="301" y="403" on="1"/>
        <pt x="301" y="570" on="0"/>
        <pt x="165" y="869" on="0"/>
        <pt x="27" y="978" on="1"/>
        <pt x="27" y="989" on="1"/>
        <pt x="145" y="989" on="1"/>
        <pt x="224" y="931" on="0"/>
        <pt x="345" y="752" on="0"/>
        <pt x="412" y="526" on="0"/>
        <pt x="412" y="403" on="1"/>
      </contour>
    </TTGlyph>
    <TTGlyph name="partialdiff" xMin="38" yMin="-9" xMax="547" yMax="740">
      <contour>
        <pt x="350" y="560" on="0"/>
        <pt x="405" y="534" on="0"/>
        <pt x="428" y="507" on="1"/>
        <pt x="422" y="583" on="0"/>
        <pt x="351" y="673" on="0"/>
        <pt x="287" y="673" on="1"/>
        <pt x="253" y="673" on="0"/>
        <pt x="208" y="661" on="1"/>
        <pt x="208" y="725" on="1"/>
        <pt x="254" y="740" on="0"/>
        <pt x="304" y="740" on="1"/>
        <pt x="381" y="740" on="0"/>
        <pt x="490" y="658" on="0"/>
        <pt x="547" y="509" on="0"/>
        <pt x="547" y="410" on="1"/>
        <pt x="547" y="284" on="0"/>
        <pt x="465" y="94" on="0"/>
        <pt x="325" y="-9" on="0"/>
        <pt x="242" y="-9" on="1"/>
        <pt x="152" y="-9" on="0"/>
        <pt x="38" y="113" on="0"/>
        <pt x="38" y="231" on="1"/>
        <pt x="38" y="319" on="0"/>
        <pt x="112" y="470" on="0"/>
        <pt x="238" y="560" on="0"/>
        <pt x="312" y="560" on="1"/>
      </contour>
      <contour>
        <pt x="270" y="464" on="0"/>
        <pt x="196" y="402" on="0"/>
        <pt x="154" y="296" on="0"/>
        <pt x="154" y="231" on="1"/>
        <pt x="154" y="159" on="0"/>
        <pt x="209" y="87" on="0"/>
        <pt x="255" y="87" on="1"/>
        <pt x="300" y="87" on="0"/>
        <pt x="376" y="151" on="0"/>
        <pt x="420" y="259" on="0"/>
        <pt x="420" y="321" on="1"/>
        <pt x="420" y="390" on="0"/>
        <pt x="364" y="464" on="0"/>
        <pt x="316" y="464" on="1"/>
      </contour>
    </TTGlyph>
    <TTGlyph name="percent" xMin="41" yMin="-10" xMax="681" yMax="706">
      <contour>
        <pt x="260" y="706" on="0"/>
        <pt x="345" y="624" on="0"/>
        <pt x="345" y="553" on="1"/>
        <pt x="345" y="482" on="0"/>
        <pt x="260" y="399" on="0"/>
        <pt x="193" y="399" on="1"/>
        <pt x="126" y="399" on="0"/>
        <pt x="41" y="482" on="0"/>
        <pt x="41" y="553" on="1"/>
        <pt x="41" y="624" on="0"/>
        <pt x="126" y="706" on="0"/>
        <pt x="193" y="706" on="1"/>
      </contour>
      <contour>
        <pt x="616" y="696" on="1"/>
        <pt x="217" y="0" on="1"/>
        <pt x="105" y="0" on="1"/>
        <pt x="504" y="696" on="1"/>
      </contour>
      <contour>
        <pt x="130" y="468" on="0"/>
        <pt x="193" y="468" on="1"/>
        <pt x="223" y="468" on="0"/>
        <pt x="256" y="510" on="0"/>
        <pt x="256" y="553" on="1"/>
        <pt x="256" y="596" on="0"/>
        <pt x="223" y="637" on="0"/>
        <pt x="193" y="637" on="1"/>
        <pt x="130" y="637" on="0"/>
        <pt x="130" y="553" on="1"/>
      </contour>
      <contour>
        <pt x="596" y="297" on="0"/>
        <pt x="681" y="215" on="0"/>
        <pt x="681" y="144" on="1"/>
        <pt x="681" y="73" on="0"/>
        <pt x="596" y="-10" on="0"/>
        <pt x="530" y="-10" on="1"/>
        <pt x="463" y="-10" on="0"/>
        <pt x="378" y="73" on="0"/>
        <pt x="378" y="144" on="1"/>
        <pt x="378" y="215" on="0"/>
        <pt x="463" y="297" on="0"/>
        <pt x="530" y="297" on="1"/>
      </contour>
      <contour>
        <pt x="466" y="101" on="0"/>
        <pt x="499" y="60" on="0"/>
        <pt x="529" y="60" on="1"/>
        <pt x="559" y="60" on="0"/>
        <pt x="592" y="101" on="0"/>
        <pt x="592" y="144" on="1"/>
        <pt x="592" y="187" on="0"/>
        <pt x="559" y="228" on="0"/>
        <pt x="529" y="228" on="1"/>
        <pt x="499" y="228" on="0"/>
        <pt x="466" y="187" on="0"/>
        <pt x="466" y="144" on="1"/>
      </contour>
    </TTGlyph>
    <TTGlyph name="period" xMin="49" yMin="0" xMax="186" yMax="137">
      <contour>
        <pt x="49" y="97" on="0"/>
        <pt x="88" y="137" on="0"/>
        <pt x="117" y="137" on="1"/>
        <pt x="146" y="137" on="0"/>
        <pt x="186" y="97" on="0"/>
        <pt x="186" y="68" on="1"/>
        <pt x="186" y="39" on="0"/>
        <pt x="146" y="0" on="0"/>
        <pt x="117" y="0" on="1"/>
        <pt x="89" y="0" on="0"/>
        <pt x="49" y="40" on="0"/>
        <pt x="49" y="68" on="1"/>
      </contour>
    </TTGlyph>
    <TTGlyph name="periodcentered" xMin="53" yMin="269" xMax="190" yMax="406">
      <component glyphName="period" x="4" y="269" flags="0x4"/>
    </TTGlyph>
    <TTGlyph name="perthousand" xMin="41" yMin="-10" xMax="1021" yMax="706">
      <contour>
        <pt x="260" y="706" on="0"/>
        <pt x="345" y="624" on="0"/>
        <pt x="345" y="553" on="1"/>
        <pt x="345" y="482" on="0"/>
        <pt x="260" y="399" on="0"/>
        <pt x="193" y="399" on="1"/>
        <pt x="126" y="399" on="0"/>
        <pt x="41" y="482" on="0"/>
        <pt x="41" y="553" on="1"/>
        <pt x="41" y="624" on="0"/>
        <pt x="126" y="706" on="0"/>
        <pt x="193" y="706" on="1"/>
      </contour>
      <contour>
        <pt x="616" y="696" on="1"/>
        <pt x="217" y="0" on="1"/>
        <pt x="105" y="0" on="1"/>
        <pt x="504" y="696" on="1"/>
      </contour>
      <contour>
        <pt x="130" y="468" on="0"/>
        <pt x="193" y="468" on="1"/>
        <pt x="223" y="468" on="0"/>
        <pt x="256" y="510" on="0"/>
        <pt x="256" y="553" on="1"/>
        <pt x="256" y="596" on="0"/>
        <pt x="223" y="637" on="0"/>
        <pt x="193" y="637" on="1"/>
        <pt x="130" y="637" on="0"/>
        <pt x="130" y="553" on="1"/>
      </contour>
      <contour>
        <pt x="596" y="297" on="0"/>
        <pt x="681" y="215" on="0"/>
        <pt x="681" y="144" on="1"/>
        <pt x="681" y="73" on="0"/>
        <pt x="596" y="-10" on="0"/>
        <pt x="530" y="-10" on="1"/>
        <pt x="463" y="-10" on="0"/>
        <pt x="378" y="73" on="0"/>
        <pt x="378" y="144" on="1"/>
        <pt x="378" y="215" on="0"/>
        <pt x="463" y="297" on="0"/>
        <pt x="530" y="297" on="1"/>
      </contour>
      <contour>
        <pt x="936" y="297" on="0"/>
        <pt x="1021" y="215" on="0"/>
        <pt x="1021" y="144" on="1"/>
        <pt x="1021" y="73" on="0"/>
        <pt x="936" y="-10" on="0"/>
        <pt x="869" y="-10" on="1"/>
        <pt x="803" y="-10" on="0"/>
        <pt x="717" y="73" on="0"/>
        <pt x="717" y="144" on="1"/>
        <pt x="717" y="215" on="0"/>
        <pt x="803" y="297" on="0"/>
        <pt x="869" y="297" on="1"/>
      </contour>
      <contour>
        <pt x="466" y="101" on="0"/>
        <pt x="499" y="60" on="0"/>
        <pt x="529" y="60" on="1"/>
        <pt x="559" y="60" on="0"/>
        <pt x="592" y="101" on="0"/>
        <pt x="592" y="144" on="1"/>
        <pt x="592" y="187" on="0"/>
        <pt x="559" y="228" on="0"/>
        <pt x="529" y="228" on="1"/>
        <pt x="499" y="228" on="0"/>
        <pt x="466" y="187" on="0"/>
        <pt x="466" y="144" on="1"/>
      </contour>
      <contour>
        <pt x="806" y="60" on="0"/>
        <pt x="869" y="60" on="1"/>
        <pt x="899" y="60" on="0"/>
        <pt x="932" y="101" on="0"/>
        <pt x="932" y="144" on="1"/>
        <pt x="932" y="187" on="0"/>
        <pt x="899" y="228" on="0"/>
        <pt x="869" y="228" on="1"/>
        <pt x="806" y="228" on="0"/>
        <pt x="806" y="144" on="1"/>
      </contour>
    </TTGlyph>
    <TTGlyph name="pi" xMin="31" yMin="0" xMax="670" yMax="551">
      <contour>
        <pt x="670" y="551" on="1"/>
        <pt x="670" y="462" on="1"/>
        <pt x="593" y="462" on="1"/>
        <pt x="593" y="0" on="1"/>
        <pt x="480" y="0" on="1"/>
        <pt x="480" y="462" on="1"/>
        <pt x="221" y="462" on="1"/>
        <pt x="221" y="0" on="1"/>
        <pt x="107" y="0" on="1"/>
        <pt x="107" y="462" on="1"/>
        <pt x="31" y="462" on="1"/>
        <pt x="31" y="551" on="1"/>
      </contour>
    </TTGlyph>
    <TTGlyph name="plus" xMin="102" yMin="106" xMax="612" yMax="616">
      <contour>
        <pt x="612" y="310" on="1"/>
        <pt x="411" y="310" on="1"/>
        <pt x="411" y="106" on="1"/>
        <pt x="303" y="106" on="1"/>
        <pt x="303" y="310" on="1"/>
        <pt x="102" y="310" on="1"/>
        <pt x="102" y="412" on="1"/>
        <pt x="303" y="412" on="1"/>
        <pt x="303" y="616" on="1"/>
        <pt x="411" y="616" on="1"/>
        <pt x="411" y="412" on="1"/>
        <pt x="612" y="412" on="1"/>
      </contour>
    </TTGlyph>
    <TTGlyph name="plusminus" xMin="104" yMin="124" xMax="613" yMax="621">
      <contour>
        <pt x="413" y="369" on="1"/>
        <pt x="413" y="225" on="1"/>
        <pt x="613" y="225" on="1"/>
        <pt x="613" y="124" on="1"/>
        <pt x="104" y="124" on="1"/>
        <pt x="104" y="225" on="1"/>
        <pt x="304" y="225" on="1"/>
        <pt x="304" y="369" on="1"/>
        <pt x="104" y="369" on="1"/>
        <pt x="104" y="471" on="1"/>
        <pt x="304" y="471" on="1"/>
        <pt x="304" y="621" on="1"/>
        <pt x="413" y="621" on="1"/>
        <pt x="413" y="471" on="1"/>
        <pt x="613" y="471" on="1"/>
        <pt x="613" y="369" on="1"/>
      </contour>
    </TTGlyph>
    <TTGlyph name="product" xMin="31" yMin="0" xMax="710" yMax="696">
      <contour>
        <pt x="710" y="696" on="1"/>
        <pt x="710" y="607" on="1"/>
        <pt x="633" y="607" on="1"/>
        <pt x="633" y="0" on="1"/>
        <pt x="520" y="0" on="1"/>
        <pt x="520" y="607" on="1"/>
        <pt x="221" y="607" on="1"/>
        <pt x="221" y="0" on="1"/>
        <pt x="107" y="0" on="1"/>
        <pt x="107" y="607" on="1"/>
        <pt x="31" y="607" on="1"/>
        <pt x="31" y="696" on="1"/>
      </contour>
    </TTGlyph>
    <TTGlyph name="q" xMin="37" yMin="-262" xMax="603" yMax="560">
      <contour>
        <pt x="362" y="560" on="0"/>
        <pt x="461" y="501" on="0"/>
        <pt x="488" y="453" on="1"/>
        <pt x="488" y="551" on="1"/>
        <pt x="603" y="551" on="1"/>
        <pt x="603" y="-262" on="1"/>
        <pt x="488" y="-262" on="1"/>
        <pt x="488" y="103" on="1"/>
        <pt x="460" y="52" on="0"/>
        <pt x="362" y="-9" on="0"/>
        <pt x="297" y="-9" on="1"/>
        <pt x="225" y="-9" on="0"/>
        <pt x="106" y="64" on="0"/>
        <pt x="37" y="195" on="0"/>
        <pt x="37" y="278" on="1"/>
        <pt x="37" y="361" on="0"/>
        <pt x="106" y="489" on="0"/>
        <pt x="225" y="560" on="0"/>
        <pt x="297" y="560" on="1"/>
      </contour>
      <contour>
        <pt x="277" y="461" on="0"/>
        <pt x="201" y="418" on="0"/>
        <pt x="154" y="335" on="0"/>
        <pt x="154" y="278" on="1"/>
        <pt x="154" y="221" on="0"/>
        <pt x="201" y="135" on="0"/>
        <pt x="278" y="90" on="0"/>
        <pt x="321" y="90" on="1"/>
        <pt x="365" y="90" on="0"/>
        <pt x="441" y="134" on="0"/>
        <pt x="488" y="219" on="0"/>
        <pt x="488" y="276" on="1"/>
        <pt x="488" y="333" on="0"/>
        <pt x="441" y="417" on="0"/>
        <pt x="365" y="461" on="0"/>
        <pt x="321" y="461" on="1"/>
      </contour>
    </TTGlyph>
    <TTGlyph name="question" xMin="96" yMin="-6" xMax="543" yMax="748">
      <contour>
        <pt x="420" y="748" on="0"/>
        <pt x="543" y="636" on="0"/>
        <pt x="543" y="539" on="1"/>
        <pt x="543" y="431" on="0"/>
        <pt x="425" y="337" on="0"/>
        <pt x="309" y="336" on="1"/>
        <pt x="309" y="214" on="1"/>
        <pt x="201" y="214" on="1"/>
        <pt x="201" y="414" on="1"/>
        <pt x="249" y="414" on="1"/>
        <pt x="311" y="413" on="0"/>
        <pt x="390" y="433" on="0"/>
        <pt x="434" y="487" on="0"/>
        <pt x="434" y="539" on="1"/>
        <pt x="434" y="592" on="0"/>
        <pt x="373" y="652" on="0"/>
        <pt x="319" y="652" on="1"/>
        <pt x="265" y="652" on="0"/>
        <pt x="203" y="594" on="0"/>
        <pt x="203" y="542" on="1"/>
        <pt x="96" y="542" on="1"/>
        <pt x="96" y="602" on="0"/>
        <pt x="150" y="696" on="0"/>
        <pt x="251" y="748" on="0"/>
        <pt x="318" y="748" on="1"/>
      </contour>
      <contour>
        <pt x="286" y="132" on="0"/>
        <pt x="326" y="92" on="0"/>
        <pt x="326" y="63" on="1"/>
        <pt x="326" y="34" on="0"/>
        <pt x="286" y="-6" on="0"/>
        <pt x="257" y="-6" on="1"/>
        <pt x="229" y="-6" on="0"/>
        <pt x="189" y="34" on="0"/>
        <pt x="189" y="63" on="1"/>
        <pt x="189" y="92" on="0"/>
        <pt x="229" y="132" on="0"/>
        <pt x="257" y="132" on="1"/>
      </contour>
    </TTGlyph>
    <TTGlyph name="questiondown" xMin="90" yMin="-194" xMax="537" yMax="560">
      <contour>
        <pt x="347" y="422" on="0"/>
        <pt x="307" y="462" on="0"/>
        <pt x="307" y="491" on="1"/>
        <pt x="307" y="520" on="0"/>
        <pt x="347" y="560" on="0"/>
        <pt x="376" y="560" on="1"/>
        <pt x="404" y="560" on="0"/>
        <pt x="444" y="520" on="0"/>
        <pt x="444" y="491" on="1"/>
        <pt x="444" y="462" on="0"/>
        <pt x="404" y="422" on="0"/>
        <pt x="376" y="422" on="1"/>
      </contour>
      <contour>
        <pt x="213" y="-194" on="0"/>
        <pt x="90" y="-82" on="0"/>
        <pt x="90" y="15" on="1"/>
        <pt x="90" y="123" on="0"/>
        <pt x="208" y="217" on="0"/>
        <pt x="324" y="218" on="1"/>
        <pt x="324" y="340" on="1"/>
        <pt x="432" y="340" on="1"/>
        <pt x="432" y="140" on="1"/>
        <pt x="384" y="140" on="1"/>
        <pt x="322" y="141" on="0"/>
        <pt x="243" y="121" on="0"/>
        <pt x="199" y="67" on="0"/>
        <pt x="199" y="15" on="1"/>
        <pt x="199" y="-38" on="0"/>
        <pt x="260" y="-98" on="0"/>
        <pt x="314" y="-98" on="1"/>
        <pt x="368" y="-98" on="0"/>
        <pt x="430" y="-40" on="0"/>
        <pt x="430" y="12" on="1"/>
        <pt x="537" y="12" on="1"/>
        <pt x="537" y="-48" on="0"/>
        <pt x="483" y="-142" on="0"/>
        <pt x="382" y="-194" on="0"/>
        <pt x="315" y="-194" on="1"/>
      </contour>
    </TTGlyph>
    <TTGlyph name="quotedbl" xMin="34" yMin="592" xMax="288" yMax="797">
      <contour>
        <pt x="137" y="797" on="1"/>
        <pt x="125" y="592" on="1"/>
        <pt x="47" y="592" on="1"/>
        <pt x="34" y="797" on="1"/>
      </contour>
      <contour>
        <pt x="288" y="797" on="1"/>
        <pt x="276" y="592" on="1"/>
        <pt x="198" y="592" on="1"/>
        <pt x="185" y="797" on="1"/>
      </contour>
    </TTGlyph>
    <TTGlyph name="quotedblbase" xMin="36" yMin="-155" xMax="162" yMax="78">
      <contour>
        <pt x="162" y="14" on="0"/>
        <pt x="162" y="-29" on="1"/>
        <pt x="162" y="-89" on="0"/>
        <pt x="104" y="-155" on="0"/>
        <pt x="45" y="-155" on="1"/>
        <pt x="45" y="-105" on="1"/>
        <pt x="70" y="-105" on="0"/>
        <pt x="93" y="-81" on="0"/>
        <pt x="93" y="-53" on="1"/>
        <pt x="93" y="-32" on="1"/>
        <pt x="36" y="-32" on="1"/>
        <pt x="36" y="78" on="1"/>
        <pt x="144" y="78" on="1"/>
      </contour>
    </TTGlyph>
    <TTGlyph name="quotedblleft" xMin="29" yMin="576" xMax="297" yMax="800">
      <contour>
        <pt x="29" y="628" on="0"/>
        <pt x="29" y="675" on="1"/>
        <pt x="29" y="800" on="0"/>
        <pt x="141" y="800" on="1"/>
        <pt x="141" y="750" on="1"/>
        <pt x="93" y="750" on="0"/>
        <pt x="93" y="693" on="1"/>
        <pt x="93" y="672" on="1"/>
        <pt x="146" y="672" on="1"/>
        <pt x="146" y="576" on="1"/>
        <pt x="43" y="576" on="1"/>
      </contour>
      <contour>
        <pt x="180" y="628" on="0"/>
        <pt x="180" y="675" on="1"/>
        <pt x="180" y="800" on="0"/>
        <pt x="293" y="800" on="1"/>
        <pt x="293" y="750" on="1"/>
        <pt x="268" y="750" on="0"/>
        <pt x="244" y="722" on="0"/>
        <pt x="244" y="693" on="1"/>
        <pt x="244" y="672" on="1"/>
        <pt x="297" y="672" on="1"/>
        <pt x="297" y="576" on="1"/>
        <pt x="194" y="576" on="1"/>
      </contour>
    </TTGlyph>
    <TTGlyph name="quotedblright" xMin="29" yMin="576" xMax="298" yMax="800">
      <contour>
        <pt x="146" y="748" on="0"/>
        <pt x="146" y="700" on="1"/>
        <pt x="146" y="576" on="0"/>
        <pt x="34" y="576" on="1"/>
        <pt x="34" y="625" on="1"/>
        <pt x="82" y="625" on="0"/>
        <pt x="82" y="682" on="1"/>
        <pt x="82" y="703" on="1"/>
        <pt x="29" y="703" on="1"/>
        <pt x="29" y="800" on="1"/>
        <pt x="132" y="800" on="1"/>
      </contour>
      <contour>
        <pt x="298" y="742" on="0"/>
        <pt x="298" y="700" on="1"/>
        <pt x="298" y="576" on="0"/>
        <pt x="185" y="576" on="1"/>
        <pt x="185" y="625" on="1"/>
        <pt x="234" y="625" on="0"/>
        <pt x="234" y="682" on="1"/>
        <pt x="234" y="703" on="1"/>
        <pt x="181" y="703" on="1"/>
        <pt x="181" y="800" on="1"/>
        <pt x="284" y="800" on="1"/>
      </contour>
    </TTGlyph>
    <TTGlyph name="quoteleft" xMin="29" yMin="576" xMax="146" yMax="800">
      <contour>
        <pt x="29" y="628" on="0"/>
        <pt x="29" y="675" on="1"/>
        <pt x="29" y="800" on="0"/>
        <pt x="141" y="800" on="1"/>
        <pt x="141" y="750" on="1"/>
        <pt x="93" y="750" on="0"/>
        <pt x="93" y="693" on="1"/>
        <pt x="93" y="672" on="1"/>
        <pt x="146" y="672" on="1"/>
        <pt x="146" y="576" on="1"/>
        <pt x="43" y="576" on="1"/>
      </contour>
    </TTGlyph>
    <TTGlyph name="quoteright" xMin="29" yMin="576" xMax="146" yMax="800">
      <contour>
        <pt x="146" y="748" on="0"/>
        <pt x="146" y="700" on="1"/>
        <pt x="146" y="576" on="0"/>
        <pt x="34" y="576" on="1"/>
        <pt x="34" y="625" on="1"/>
        <pt x="82" y="625" on="0"/>
        <pt x="82" y="682" on="1"/>
        <pt x="82" y="703" on="1"/>
        <pt x="29" y="703" on="1"/>
        <pt x="29" y="800" on="1"/>
        <pt x="132" y="800" on="1"/>
      </contour>
    </TTGlyph>
    <TTGlyph name="quotesinglbase" xMin="36" yMin="-155" xMax="162" yMax="78">
      <component glyphName="comma" x="0" y="0" flags="0x0"/>
    </TTGlyph>
    <TTGlyph name="quotesingle" xMin="34" yMin="592" xMax="137" yMax="797">
      <contour>
        <pt x="137" y="797" on="1"/>
        <pt x="125" y="592" on="1"/>
        <pt x="47" y="592" on="1"/>
        <pt x="34" y="797" on="1"/>
      </contour>
    </TTGlyph>
    <TTGlyph name="r" xMin="75" yMin="0" xMax="354" yMax="560">
      <contour>
        <pt x="214" y="505" on="0"/>
        <pt x="297" y="560" on="0"/>
        <pt x="354" y="560" on="1"/>
        <pt x="354" y="442" on="1"/>
        <pt x="325" y="442" on="1"/>
        <pt x="258" y="442" on="0"/>
        <pt x="189" y="374" on="0"/>
        <pt x="189" y="290" on="1"/>
        <pt x="189" y="0" on="1"/>
        <pt x="75" y="0" on="1"/>
        <pt x="75" y="551" on="1"/>
        <pt x="189" y="551" on="1"/>
        <pt x="189" y="455" on="1"/>
      </contour>
    </TTGlyph>
    <TTGlyph name="racute" xMin="75" yMin="0" xMax="354" yMax="796">
      <component glyphName="r" x="0" y="0" flags="0x0"/>
      <component glyphName="acute" x="113" y="0" flags="0x0"/>
    </TTGlyph>
    <TTGlyph name="radical" xMin="21" yMin="-43" xMax="818" yMax="879">
      <contour>
        <pt x="818" y="879" on="1"/>
        <pt x="314" y="-43" on="1"/>
        <pt x="256" y="-43" on="1"/>
        <pt x="124" y="190" on="1"/>
        <pt x="55" y="149" on="1"/>
        <pt x="21" y="206" on="1"/>
        <pt x="188" y="305" on="1"/>
        <pt x="307" y="94" on="1"/>
        <pt x="736" y="879" on="1"/>
      </contour>
    </TTGlyph>
    <TTGlyph name="rcaron" xMin="75" yMin="0" xMax="384" yMax="768">
      <component glyphName="r" x="0" y="0" flags="0x0"/>
      <component glyphName="caron" x="88" y="0" flags="0x0"/>
    </TTGlyph>
    <TTGlyph name="registered" xMin="46" yMin="-9" xMax="757" yMax="704">
      <contour>
        <pt x="506" y="704" on="0"/>
        <pt x="668" y="613" on="0"/>
        <pt x="757" y="451" on="0"/>
        <pt x="757" y="348" on="1"/>
        <pt x="757" y="244" on="0"/>
        <pt x="667" y="82" on="0"/>
        <pt x="506" y="-9" on="0"/>
        <pt x="402" y="-9" on="1"/>
        <pt x="297" y="-9" on="0"/>
        <pt x="136" y="82" on="0"/>
        <pt x="46" y="244" on="0"/>
        <pt x="46" y="348" on="1"/>
        <pt x="46" y="452" on="0"/>
        <pt x="136" y="613" on="0"/>
        <pt x="297" y="704" on="0"/>
        <pt x="402" y="704" on="1"/>
      </contour>
      <contour>
        <pt x="495" y="36" on="0"/>
        <pt x="633" y="114" on="0"/>
        <pt x="707" y="255" on="0"/>
        <pt x="707" y="348" on="1"/>
        <pt x="707" y="442" on="0"/>
        <pt x="633" y="583" on="0"/>
        <pt x="495" y="659" on="0"/>
        <pt x="402" y="659" on="1"/>
        <pt x="309" y="659" on="0"/>
        <pt x="170" y="583" on="0"/>
        <pt x="96" y="442" on="0"/>
        <pt x="96" y="348" on="1"/>
        <pt x="96" y="255" on="0"/>
        <pt x="170" y="114" on="0"/>
        <pt x="309" y="36" on="0"/>
        <pt x="402" y="36" on="1"/>
      </contour>
      <contour>
        <pt x="575" y="401" on="0"/>
        <pt x="519" y="328" on="0"/>
        <pt x="461" y="317" on="1"/>
        <pt x="582" y="128" on="1"/>
        <pt x="492" y="128" on="1"/>
        <pt x="378" y="313" on="1"/>
        <pt x="331" y="313" on="1"/>
        <pt x="331" y="128" on="1"/>
        <pt x="257" y="128" on="1"/>
        <pt x="257" y="584" on="1"/>
        <pt x="414" y="584" on="1"/>
        <pt x="492" y="584" on="0"/>
        <pt x="575" y="507" on="0"/>
        <pt x="575" y="448" on="1"/>
      </contour>
      <contour>
        <pt x="331" y="370" on="1"/>
        <pt x="414" y="370" on="1"/>
        <pt x="457" y="370" on="0"/>
        <pt x="500" y="412" on="0"/>
        <pt x="500" y="448" on="1"/>
        <pt x="500" y="485" on="0"/>
        <pt x="457" y="526" on="0"/>
        <pt x="414" y="526" on="1"/>
        <pt x="331" y="526" on="1"/>
      </contour>
    </TTGlyph>
    <TTGlyph name="ring" xMin="10" yMin="605" xMax="228" yMax="824">
      <contour>
        <pt x="166" y="824" on="0"/>
        <pt x="228" y="764" on="0"/>
        <pt x="228" y="714" on="1"/>
        <pt x="228" y="665" on="0"/>
        <pt x="166" y="605" on="0"/>
        <pt x="119" y="605" on="1"/>
        <pt x="73" y="605" on="0"/>
        <pt x="10" y="665" on="0"/>
        <pt x="10" y="714" on="1"/>
        <pt x="10" y="764" on="0"/>
        <pt x="73" y="824" on="0"/>
        <pt x="119" y="824" on="1"/>
      </contour>
      <contour>
        <pt x="97" y="766" on="0"/>
        <pt x="68" y="738" on="0"/>
        <pt x="68" y="715" on="1"/>
        <pt x="68" y="693" on="0"/>
        <pt x="98" y="664" on="0"/>
        <pt x="119" y="664" on="1"/>
        <pt x="141" y="664" on="0"/>
        <pt x="171" y="693" on="0"/>
        <pt x="171" y="715" on="1"/>
        <pt x="171" y="738" on="0"/>
        <pt x="141" y="766" on="0"/>
        <pt x="119" y="766" on="1"/>
      </contour>
    </TTGlyph>
    <TTGlyph name="s" xMin="49" yMin="-9" xMax="484" yMax="560">
      <contour>
        <pt x="360" y="560" on="0"/>
        <pt x="473" y="465" on="0"/>
        <pt x="477" y="383" on="1"/>
        <pt x="360" y="383" on="1"/>
        <pt x="357" y="424" on="0"/>
        <pt x="306" y="470" on="0"/>
        <pt x="260" y="470" on="1"/>
        <pt x="214" y="470" on="0"/>
        <pt x="162" y="429" on="0"/>
        <pt x="162" y="397" on="1"/>
        <pt x="162" y="371" on="0"/>
        <pt x="196" y="339" on="0"/>
        <pt x="249" y="322" on="0"/>
        <pt x="294" y="312" on="1"/>
        <pt x="355" y="298" on="0"/>
        <pt x="430" y="270" on="0"/>
        <pt x="484" y="207" on="0"/>
        <pt x="484" y="153" on="1"/>
        <pt x="484" y="106" on="0"/>
        <pt x="429" y="32" on="0"/>
        <pt x="331" y="-9" on="0"/>
        <pt x="269" y="-9" on="1"/>
        <pt x="173" y="-9" on="0"/>
        <pt x="55" y="83" on="0"/>
        <pt x="49" y="168" on="1"/>
        <pt x="167" y="168" on="1"/>
        <pt x="170" y="127" on="0"/>
        <pt x="224" y="81" on="0"/>
        <pt x="269" y="81" on="1"/>
        <pt x="317" y="81" on="0"/>
        <pt x="372" y="122" on="0"/>
        <pt x="372" y="155" on="1"/>
        <pt x="372" y="182" on="0"/>
        <pt x="337" y="214" on="0"/>
        <pt x="283" y="231" on="0"/>
        <pt x="237" y="241" on="1"/>
        <pt x="177" y="255" on="0"/>
        <pt x="103" y="282" on="0"/>
        <pt x="50" y="342" on="0"/>
        <pt x="50" y="393" on="1"/>
        <pt x="50" y="439" on="0"/>
        <pt x="102" y="515" on="0"/>
        <pt x="201" y="560" on="0"/>
        <pt x="268" y="560" on="1"/>
      </contour>
    </TTGlyph>
    <TTGlyph name="sacute" xMin="49" yMin="-9" xMax="484" yMax="796">
      <component glyphName="s" x="0" y="0" flags="0x0"/>
      <component glyphName="acute" x="139" y="0" flags="0x0"/>
    </TTGlyph>
    <TTGlyph name="scaron" xMin="49" yMin="-9" xMax="484" yMax="768">
      <component glyphName="s" x="0" y="0" flags="0x0"/>
      <component glyphName="caron" x="114" y="0" flags="0x0"/>
    </TTGlyph>
    <TTGlyph name="section" xMin="41" yMin="-212" xMax="537" yMax="700">
      <contour>
        <pt x="458" y="59" on="0"/>
        <pt x="504" y="-2" on="0"/>
        <pt x="504" y="-46" on="1"/>
        <pt x="504" y="-91" on="0"/>
        <pt x="452" y="-167" on="0"/>
        <pt x="355" y="-212" on="0"/>
        <pt x="290" y="-212" on="1"/>
        <pt x="197" y="-212" on="0"/>
        <pt x="80" y="-125" on="0"/>
        <pt x="80" y="-47" on="1"/>
        <pt x="194" y="-47" on="1"/>
        <pt x="197" y="-87" on="0"/>
        <pt x="245" y="-133" on="0"/>
        <pt x="290" y="-133" on="1"/>
        <pt x="338" y="-133" on="0"/>
        <pt x="390" y="-94" on="0"/>
        <pt x="390" y="-56" on="1"/>
        <pt x="390" y="-33" on="0"/>
        <pt x="363" y="0" on="0"/>
        <pt x="298" y="33" on="0"/>
        <pt x="233" y="56" on="1"/>
        <pt x="135" y="91" on="0"/>
        <pt x="41" y="177" on="0"/>
        <pt x="41" y="244" on="1"/>
        <pt x="41" y="298" on="0"/>
        <pt x="104" y="382" on="0"/>
        <pt x="164" y="404" on="1"/>
        <pt x="121" y="429" on="0"/>
        <pt x="74" y="490" on="0"/>
        <pt x="74" y="534" on="1"/>
        <pt x="74" y="579" on="0"/>
        <pt x="126" y="655" on="0"/>
        <pt x="223" y="700" on="0"/>
        <pt x="288" y="700" on="1"/>
        <pt x="381" y="700" on="0"/>
        <pt x="498" y="613" on="0"/>
        <pt x="498" y="535" on="1"/>
        <pt x="384" y="535" on="1"/>
        <pt x="381" y="575" on="0"/>
        <pt x="333" y="621" on="0"/>
        <pt x="288" y="621" on="1"/>
        <pt x="240" y="621" on="0"/>
        <pt x="188" y="582" on="0"/>
        <pt x="188" y="544" on="1"/>
        <pt x="188" y="521" on="0"/>
        <pt x="215" y="488" on="0"/>
        <pt x="280" y="455" on="0"/>
        <pt x="345" y="432" on="1"/>
        <pt x="443" y="397" on="0"/>
        <pt x="537" y="311" on="0"/>
        <pt x="537" y="244" on="1"/>
        <pt x="537" y="191" on="0"/>
        <pt x="476" y="109" on="0"/>
        <pt x="415" y="84" on="1"/>
      </contour>
      <contour>
        <pt x="158" y="201" on="0"/>
        <pt x="231" y="140" on="0"/>
        <pt x="291" y="140" on="1"/>
        <pt x="350" y="140" on="0"/>
        <pt x="420" y="200" on="0"/>
        <pt x="420" y="244" on="1"/>
        <pt x="420" y="288" on="0"/>
        <pt x="347" y="348" on="0"/>
        <pt x="288" y="348" on="1"/>
        <pt x="229" y="348" on="0"/>
        <pt x="158" y="288" on="0"/>
        <pt x="158" y="244" on="1"/>
      </contour>
    </TTGlyph>
    <TTGlyph name="semicolon" xMin="95" yMin="-155" xMax="232" yMax="557">
      <component glyphName="period" x="46" y="420" flags="0x4"/>
      <component glyphName="comma" x="66" y="0" flags="0x0"/>
    </TTGlyph>
    <TTGlyph name="seven" xMin="40" yMin="0" xMax="522" yMax="726">
      <contour>
        <pt x="522" y="641" on="1"/>
        <pt x="244" y="0" on="1"/>
        <pt x="119" y="0" on="1"/>
        <pt x="410" y="631" on="1"/>
        <pt x="40" y="631" on="1"/>
        <pt x="40" y="726" on="1"/>
        <pt x="522" y="726" on="1"/>
      </contour>
    </TTGlyph>
    <TTGlyph name="six" xMin="74" yMin="0" xMax="580" yMax="747">
      <contour>
        <pt x="441" y="606" on="0"/>
        <pt x="383" y="652" on="0"/>
        <pt x="331" y="652" on="1"/>
        <pt x="252" y="652" on="0"/>
        <pt x="174" y="531" on="0"/>
        <pt x="172" y="391" on="1"/>
        <pt x="198" y="435" on="0"/>
        <pt x="298" y="483" on="0"/>
        <pt x="356" y="483" on="1"/>
        <pt x="422" y="483" on="0"/>
        <pt x="523" y="426" on="0"/>
        <pt x="580" y="318" on="0"/>
        <pt x="580" y="243" on="1"/>
        <pt x="580" y="173" on="0"/>
        <pt x="525" y="63" on="0"/>
        <pt x="417" y="0" on="0"/>
        <pt x="341" y="0" on="1"/>
        <pt x="238" y="0" on="0"/>
        <pt x="121" y="91" on="0"/>
        <pt x="74" y="257" on="0"/>
        <pt x="74" y="381" on="1"/>
        <pt x="74" y="747" on="0"/>
        <pt x="332" y="747" on="1"/>
        <pt x="432" y="747" on="0"/>
        <pt x="547" y="639" on="0"/>
        <pt x="557" y="560" on="1"/>
        <pt x="452" y="560" on="1"/>
      </contour>
      <contour>
        <pt x="185" y="176" on="0"/>
        <pt x="264" y="95" on="0"/>
        <pt x="335" y="95" on="1"/>
        <pt x="398" y="95" on="0"/>
        <pt x="471" y="173" on="0"/>
        <pt x="471" y="238" on="1"/>
        <pt x="471" y="306" on="0"/>
        <pt x="400" y="387" on="0"/>
        <pt x="331" y="387" on="1"/>
        <pt x="270" y="387" on="0"/>
        <pt x="185" y="314" on="0"/>
        <pt x="185" y="245" on="1"/>
      </contour>
    </TTGlyph>
    <TTGlyph name="slash" xMin="61" yMin="-175" xMax="445" yMax="944">
      <contour>
        <pt x="445" y="944" on="1"/>
        <pt x="173" y="-175" on="1"/>
        <pt x="61" y="-175" on="1"/>
        <pt x="332" y="944" on="1"/>
      </contour>
    </TTGlyph>
    <TTGlyph name="sterling" xMin="42" yMin="-2" xMax="558" yMax="721">
      <contour>
        <pt x="558" y="91" on="1"/>
        <pt x="558" y="-2" on="1"/>
        <pt x="95" y="-2" on="1"/>
        <pt x="75" y="60" on="1"/>
        <pt x="117" y="105" on="0"/>
        <pt x="157" y="194" on="0"/>
        <pt x="157" y="260" on="1"/>
        <pt x="157" y="280" on="0"/>
        <pt x="152" y="302" on="1"/>
        <pt x="42" y="302" on="1"/>
        <pt x="42" y="381" on="1"/>
        <pt x="127" y="381" on="1"/>
        <pt x="106" y="444" on="0"/>
        <pt x="106" y="503" on="1"/>
        <pt x="106" y="570" on="0"/>
        <pt x="164" y="668" on="0"/>
        <pt x="266" y="721" on="0"/>
        <pt x="333" y="721" on="1"/>
        <pt x="440" y="721" on="0"/>
        <pt x="550" y="601" on="0"/>
        <pt x="552" y="508" on="1"/>
        <pt x="448" y="508" on="1"/>
        <pt x="448" y="562" on="0"/>
        <pt x="392" y="625" on="0"/>
        <pt x="333" y="625" on="1"/>
        <pt x="279" y="625" on="0"/>
        <pt x="214" y="563" on="0"/>
        <pt x="214" y="497" on="1"/>
        <pt x="214" y="468" on="0"/>
        <pt x="226" y="414" on="0"/>
        <pt x="237" y="381" on="1"/>
        <pt x="431" y="381" on="1"/>
        <pt x="431" y="302" on="1"/>
        <pt x="260" y="302" on="1"/>
        <pt x="265" y="279" on="0"/>
        <pt x="265" y="259" on="1"/>
        <pt x="265" y="162" on="0"/>
        <pt x="198" y="91" on="1"/>
      </contour>
    </TTGlyph>
    <TTGlyph name="summation" xMin="40" yMin="-56" xMax="440" yMax="696">
      <contour>
        <pt x="440" y="608" on="1"/>
        <pt x="137" y="608" on="1"/>
        <pt x="399" y="367" on="1"/>
        <pt x="399" y="279" on="1"/>
        <pt x="136" y="32" on="1"/>
        <pt x="440" y="32" on="1"/>
        <pt x="440" y="-56" on="1"/>
        <pt x="40" y="-56" on="1"/>
        <pt x="40" y="77" on="1"/>
        <pt x="294" y="321" on="1"/>
        <pt x="40" y="564" on="1"/>
        <pt x="40" y="696" on="1"/>
        <pt x="440" y="696" on="1"/>
      </contour>
    </TTGlyph>
    <TTGlyph name="t" xMin="28" yMin="0" xMax="342" yMax="688">
      <contour>
        <pt x="208" y="458" on="1"/>
        <pt x="208" y="153" on="1"/>
        <pt x="208" y="122" on="0"/>
        <pt x="237" y="95" on="0"/>
        <pt x="272" y="95" on="1"/>
        <pt x="342" y="95" on="1"/>
        <pt x="342" y="0" on="1"/>
        <pt x="252" y="0" on="1"/>
        <pt x="175" y="0" on="0"/>
        <pt x="93" y="72" on="0"/>
        <pt x="93" y="153" on="1"/>
        <pt x="93" y="458" on="1"/>
        <pt x="28" y="458" on="1"/>
        <pt x="28" y="551" on="1"/>
        <pt x="93" y="551" on="1"/>
        <pt x="93" y="688" on="1"/>
        <pt x="208" y="688" on="1"/>
        <pt x="208" y="551" on="1"/>
        <pt x="342" y="551" on="1"/>
        <pt x="342" y="458" on="1"/>
      </contour>
    </TTGlyph>
    <TTGlyph name="tcaron" xMin="28" yMin="0" xMax="398" yMax="784">
      <contour>
        <pt x="392" y="752" on="0"/>
        <pt x="398" y="715" on="0"/>
        <pt x="398" y="694" on="1"/>
        <pt x="398" y="590" on="0"/>
        <pt x="285" y="590" on="1"/>
        <pt x="285" y="640" on="1"/>
        <pt x="310" y="640" on="0"/>
        <pt x="334" y="655" on="0"/>
        <pt x="334" y="672" on="1"/>
        <pt x="334" y="687" on="1"/>
        <pt x="281" y="687" on="1"/>
        <pt x="281" y="784" on="1"/>
        <pt x="384" y="784" on="1"/>
      </contour>
      <contour>
        <pt x="208" y="551" on="1"/>
        <pt x="342" y="551" on="1"/>
        <pt x="342" y="458" on="1"/>
        <pt x="208" y="458" on="1"/>
        <pt x="208" y="153" on="1"/>
        <pt x="208" y="122" on="0"/>
        <pt x="237" y="95" on="0"/>
        <pt x="272" y="95" on="1"/>
        <pt x="342" y="95" on="1"/>
        <pt x="342" y="0" on="1"/>
        <pt x="252" y="0" on="1"/>
        <pt x="175" y="0" on="0"/>
        <pt x="93" y="72" on="0"/>
        <pt x="93" y="153" on="1"/>
        <pt x="93" y="458" on="1"/>
        <pt x="28" y="458" on="1"/>
        <pt x="28" y="551" on="1"/>
        <pt x="93" y="551" on="1"/>
        <pt x="93" y="688" on="1"/>
        <pt x="208" y="688" on="1"/>
      </contour>
    </TTGlyph>
    <TTGlyph name="thorn" xMin="75" yMin="-262" xMax="640" yMax="740">
      <contour>
        <pt x="453" y="560" on="0"/>
        <pt x="572" y="489" on="0"/>
        <pt x="640" y="361" on="0"/>
        <pt x="640" y="278" on="1"/>
        <pt x="640" y="195" on="0"/>
        <pt x="572" y="64" on="0"/>
        <pt x="453" y="-9" on="0"/>
        <pt x="381" y="-9" on="1"/>
        <pt x="316" y="-9" on="0"/>
        <pt x="218" y="52" on="0"/>
        <pt x="189" y="103" on="1"/>
        <pt x="189" y="-262" on="1"/>
        <pt x="75" y="-262" on="1"/>
        <pt x="75" y="740" on="1"/>
        <pt x="189" y="740" on="1"/>
        <pt x="189" y="453" on="1"/>
        <pt x="217" y="501" on="0"/>
        <pt x="316" y="560" on="0"/>
        <pt x="381" y="560" on="1"/>
      </contour>
      <contour>
        <pt x="313" y="461" on="0"/>
        <pt x="236" y="417" on="0"/>
        <pt x="189" y="333" on="0"/>
        <pt x="189" y="276" on="1"/>
        <pt x="189" y="219" on="0"/>
        <pt x="236" y="134" on="0"/>
        <pt x="313" y="90" on="0"/>
        <pt x="356" y="90" on="1"/>
        <pt x="400" y="90" on="0"/>
        <pt x="477" y="135" on="0"/>
        <pt x="524" y="221" on="0"/>
        <pt x="524" y="278" on="1"/>
        <pt x="524" y="335" on="0"/>
        <pt x="477" y="418" on="0"/>
        <pt x="400" y="461" on="0"/>
        <pt x="356" y="461" on="1"/>
      </contour>
    </TTGlyph>
    <TTGlyph name="three" xMin="48" yMin="-4" xMax="534" yMax="746">
      <contour>
        <pt x="367" y="746" on="0"/>
        <pt x="469" y="696" on="0"/>
        <pt x="521" y="610" on="0"/>
        <pt x="521" y="556" on="1"/>
        <pt x="521" y="494" on="0"/>
        <pt x="455" y="406" on="0"/>
        <pt x="409" y="391" on="1"/>
        <pt x="409" y="387" on="1"/>
        <pt x="468" y="369" on="0"/>
        <pt x="534" y="274" on="0"/>
        <pt x="534" y="200" on="1"/>
        <pt x="534" y="141" on="0"/>
        <pt x="480" y="49" on="0"/>
        <pt x="374" y="-4" on="0"/>
        <pt x="300" y="-4" on="1"/>
        <pt x="192" y="-4" on="0"/>
        <pt x="53" y="107" on="0"/>
        <pt x="48" y="211" on="1"/>
        <pt x="158" y="211" on="1"/>
        <pt x="162" y="158" on="0"/>
        <pt x="236" y="91" on="0"/>
        <pt x="299" y="91" on="1"/>
        <pt x="360" y="91" on="0"/>
        <pt x="426" y="158" on="0"/>
        <pt x="426" y="211" on="1"/>
        <pt x="426" y="281" on="0"/>
        <pt x="337" y="340" on="0"/>
        <pt x="245" y="340" on="1"/>
        <pt x="219" y="340" on="1"/>
        <pt x="219" y="434" on="1"/>
        <pt x="246" y="434" on="1"/>
        <pt x="327" y="435" on="0"/>
        <pt x="412" y="487" on="0"/>
        <pt x="412" y="543" on="1"/>
        <pt x="412" y="591" on="0"/>
        <pt x="350" y="648" on="0"/>
        <pt x="293" y="648" on="1"/>
        <pt x="237" y="648" on="0"/>
        <pt x="175" y="591" on="0"/>
        <pt x="169" y="549" on="1"/>
        <pt x="58" y="549" on="1"/>
        <pt x="64" y="642" on="0"/>
        <pt x="195" y="746" on="0"/>
        <pt x="297" y="746" on="1"/>
      </contour>
    </TTGlyph>
</ttFont>
